M48
; DRILL file {KiCad (6.0.5)} date Fri Sep 16 11:29:33 2022
; FORMAT={-:-/ absolute / inch / decimal}
; #@! TF.CreationDate,2022-09-16T11:29:33+05:30
; #@! TF.GenerationSoftware,Kicad,Pcbnew,(6.0.5)
; #@! TF.FileFunction,Plated,1,2,PTH
FMAT,2
INCH
; #@! TA.AperFunction,Plated,PTH,ViaDrill
T1C0.0157
; #@! TA.AperFunction,Plated,PTH,ComponentDrill
T2C0.0295
; #@! TA.AperFunction,Plated,PTH,ComponentDrill
T3C0.0315
; #@! TA.AperFunction,Plated,PTH,ComponentDrill
T4C0.0394
; #@! TA.AperFunction,Plated,PTH,ComponentDrill
T5C0.0433
; #@! TA.AperFunction,Plated,PTH,ComponentDrill
T6C0.0512
%
G90
G05
T1
X3.3305Y-3.5025
X3.3632Y-3.7948
X3.3814Y-3.5725
X3.3934Y-3.7659
X3.4109Y-3.6117
X3.4234Y-3.6812
X3.4582Y-3.5728
X3.4874Y-3.907
X3.5381Y-3.6612
X3.5539Y-3.6142
X3.5844Y-3.5718
X3.6206Y-3.5386
X3.7843Y-2.8826
X4.1336Y-2.7071
X4.29Y-2.7752
X4.3729Y-2.3674
X4.4154Y-2.8327
X4.424Y-2.3682
T2
X5.1984Y-2.5846
X5.2484Y-2.5846
X5.2984Y-2.5846
T3
X3.0098Y-3.6988
X3.0098Y-3.8909
X4.0358Y-2.8791
X4.0358Y-3.0713
T4
X2.8915Y-4.1535
X2.9915Y-4.1535
X3.0915Y-4.1535
X3.1915Y-4.1535
X3.2915Y-4.1535
X3.3915Y-4.1535
X3.4915Y-4.1535
X3.7512Y-4.0535
X3.7512Y-4.1535
X3.8512Y-4.0535
X3.8512Y-4.1535
X3.9512Y-4.0535
X3.9512Y-4.1535
X4.0512Y-4.0535
X4.0512Y-4.1535
X4.2287Y-4.0459
X4.2287Y-4.1459
X4.4242Y-4.0443
X4.4242Y-4.1443
X4.5242Y-4.0443
X4.5242Y-4.1443
X4.6242Y-4.0443
X4.6242Y-4.1443
X4.8291Y-3.087
X4.9Y-2.0209
X5.0Y-2.0209
X5.1Y-2.0209
X5.2Y-2.0209
X5.3016Y-3.087
T5
X4.087Y-3.4575
X4.087Y-3.6346
X4.3429Y-3.4575
X4.3429Y-3.6346
T6
X4.8291Y-3.5673
X4.9683Y-3.9947
X5.0673Y-3.0102
X5.1683Y-3.9947
X5.3035Y-3.5693
T4
G00X2.8798Y-2.3535
M15
G01X2.8798Y-2.4323
M16
G05
G00X3.1042Y-2.2748
M15
G01X3.0255Y-2.2748
M16
G05
G00X3.1042Y-2.511
M15
G01X3.0255Y-2.511
M16
G05
T0
M30
