%TF.GenerationSoftware,KiCad,Pcbnew,(6.0.5)*%
%TF.CreationDate,2022-09-16T11:29:29+05:30*%
%TF.ProjectId,wifi-module,77696669-2d6d-46f6-9475-6c652e6b6963,rev?*%
%TF.SameCoordinates,Original*%
%TF.FileFunction,Legend,Bot*%
%TF.FilePolarity,Positive*%
%FSLAX46Y46*%
G04 Gerber Fmt 4.6, Leading zero omitted, Abs format (unit mm)*
G04 Created by KiCad (PCBNEW (6.0.5)) date 2022-09-16 11:29:29*
%MOMM*%
%LPD*%
G01*
G04 APERTURE LIST*
%ADD10C,0.150000*%
G04 APERTURE END LIST*
D10*
X133782380Y-56515238D02*
X134782380Y-56848571D01*
X133782380Y-57181904D01*
X134782380Y-58800952D02*
X134782380Y-58229523D01*
X134782380Y-58515238D02*
X133782380Y-58515238D01*
X133925238Y-58420000D01*
X134020476Y-58324761D01*
X134068095Y-58229523D01*
X134687142Y-59229523D02*
X134734761Y-59277142D01*
X134782380Y-59229523D01*
X134734761Y-59181904D01*
X134687142Y-59229523D01*
X134782380Y-59229523D01*
X133782380Y-59896190D02*
X133782380Y-59991428D01*
X133830000Y-60086666D01*
X133877619Y-60134285D01*
X133972857Y-60181904D01*
X134163333Y-60229523D01*
X134401428Y-60229523D01*
X134591904Y-60181904D01*
X134687142Y-60134285D01*
X134734761Y-60086666D01*
X134782380Y-59991428D01*
X134782380Y-59896190D01*
X134734761Y-59800952D01*
X134687142Y-59753333D01*
X134591904Y-59705714D01*
X134401428Y-59658095D01*
X134163333Y-59658095D01*
X133972857Y-59705714D01*
X133877619Y-59753333D01*
X133830000Y-59800952D01*
X133782380Y-59896190D01*
X136362380Y-54845238D02*
X135362380Y-54845238D01*
X135362380Y-55511904D02*
X135362380Y-55702380D01*
X135410000Y-55797619D01*
X135505238Y-55892857D01*
X135695714Y-55940476D01*
X136029047Y-55940476D01*
X136219523Y-55892857D01*
X136314761Y-55797619D01*
X136362380Y-55702380D01*
X136362380Y-55511904D01*
X136314761Y-55416666D01*
X136219523Y-55321428D01*
X136029047Y-55273809D01*
X135695714Y-55273809D01*
X135505238Y-55321428D01*
X135410000Y-55416666D01*
X135362380Y-55511904D01*
X135362380Y-56226190D02*
X135362380Y-56797619D01*
X136362380Y-56511904D02*
X135362380Y-56511904D01*
X136362380Y-57892857D02*
X135362380Y-57892857D01*
X135743333Y-57892857D02*
X135695714Y-57988095D01*
X135695714Y-58178571D01*
X135743333Y-58273809D01*
X135790952Y-58321428D01*
X135886190Y-58369047D01*
X136171904Y-58369047D01*
X136267142Y-58321428D01*
X136314761Y-58273809D01*
X136362380Y-58178571D01*
X136362380Y-57988095D01*
X136314761Y-57892857D01*
X136362380Y-58940476D02*
X136314761Y-58845238D01*
X136267142Y-58797619D01*
X136171904Y-58750000D01*
X135886190Y-58750000D01*
X135790952Y-58797619D01*
X135743333Y-58845238D01*
X135695714Y-58940476D01*
X135695714Y-59083333D01*
X135743333Y-59178571D01*
X135790952Y-59226190D01*
X135886190Y-59273809D01*
X136171904Y-59273809D01*
X136267142Y-59226190D01*
X136314761Y-59178571D01*
X136362380Y-59083333D01*
X136362380Y-58940476D01*
X136362380Y-60130952D02*
X135838571Y-60130952D01*
X135743333Y-60083333D01*
X135695714Y-59988095D01*
X135695714Y-59797619D01*
X135743333Y-59702380D01*
X136314761Y-60130952D02*
X136362380Y-60035714D01*
X136362380Y-59797619D01*
X136314761Y-59702380D01*
X136219523Y-59654761D01*
X136124285Y-59654761D01*
X136029047Y-59702380D01*
X135981428Y-59797619D01*
X135981428Y-60035714D01*
X135933809Y-60130952D01*
X136362380Y-60607142D02*
X135695714Y-60607142D01*
X135886190Y-60607142D02*
X135790952Y-60654761D01*
X135743333Y-60702380D01*
X135695714Y-60797619D01*
X135695714Y-60892857D01*
X136362380Y-61654761D02*
X135362380Y-61654761D01*
X136314761Y-61654761D02*
X136362380Y-61559523D01*
X136362380Y-61369047D01*
X136314761Y-61273809D01*
X136267142Y-61226190D01*
X136171904Y-61178571D01*
X135886190Y-61178571D01*
X135790952Y-61226190D01*
X135743333Y-61273809D01*
X135695714Y-61369047D01*
X135695714Y-61559523D01*
X135743333Y-61654761D01*
M02*
