%TF.GenerationSoftware,KiCad,Pcbnew,(6.0.5)*%
%TF.CreationDate,2022-09-16T11:29:29+05:30*%
%TF.ProjectId,wifi-module,77696669-2d6d-46f6-9475-6c652e6b6963,rev?*%
%TF.SameCoordinates,Original*%
%TF.FileFunction,Legend,Top*%
%TF.FilePolarity,Positive*%
%FSLAX46Y46*%
G04 Gerber Fmt 4.6, Leading zero omitted, Abs format (unit mm)*
G04 Created by KiCad (PCBNEW (6.0.5)) date 2022-09-16 11:29:29*
%MOMM*%
%LPD*%
G01*
G04 APERTURE LIST*
%ADD10C,0.150000*%
%ADD11C,0.120000*%
%ADD12C,0.010000*%
G04 APERTURE END LIST*
D10*
%TO.C,D4*%
X103982380Y-55018095D02*
X102982380Y-55018095D01*
X102982380Y-54780000D01*
X103030000Y-54637142D01*
X103125238Y-54541904D01*
X103220476Y-54494285D01*
X103410952Y-54446666D01*
X103553809Y-54446666D01*
X103744285Y-54494285D01*
X103839523Y-54541904D01*
X103934761Y-54637142D01*
X103982380Y-54780000D01*
X103982380Y-55018095D01*
X103315714Y-53589523D02*
X103982380Y-53589523D01*
X102934761Y-53827619D02*
X103649047Y-54065714D01*
X103649047Y-53446666D01*
%TO.C,D1*%
X87461904Y-56602380D02*
X87461904Y-55602380D01*
X87700000Y-55602380D01*
X87842857Y-55650000D01*
X87938095Y-55745238D01*
X87985714Y-55840476D01*
X88033333Y-56030952D01*
X88033333Y-56173809D01*
X87985714Y-56364285D01*
X87938095Y-56459523D01*
X87842857Y-56554761D01*
X87700000Y-56602380D01*
X87461904Y-56602380D01*
X88985714Y-56602380D02*
X88414285Y-56602380D01*
X88700000Y-56602380D02*
X88700000Y-55602380D01*
X88604761Y-55745238D01*
X88509523Y-55840476D01*
X88414285Y-55888095D01*
%TO.C,Q1*%
X133214761Y-62637619D02*
X133119523Y-62590000D01*
X133024285Y-62494761D01*
X132881428Y-62351904D01*
X132786190Y-62304285D01*
X132690952Y-62304285D01*
X132738571Y-62542380D02*
X132643333Y-62494761D01*
X132548095Y-62399523D01*
X132500476Y-62209047D01*
X132500476Y-61875714D01*
X132548095Y-61685238D01*
X132643333Y-61590000D01*
X132738571Y-61542380D01*
X132929047Y-61542380D01*
X133024285Y-61590000D01*
X133119523Y-61685238D01*
X133167142Y-61875714D01*
X133167142Y-62209047D01*
X133119523Y-62399523D01*
X133024285Y-62494761D01*
X132929047Y-62542380D01*
X132738571Y-62542380D01*
X134119523Y-62542380D02*
X133548095Y-62542380D01*
X133833809Y-62542380D02*
X133833809Y-61542380D01*
X133738571Y-61685238D01*
X133643333Y-61780476D01*
X133548095Y-61828095D01*
%TO.C,K1*%
X117662380Y-92658095D02*
X116662380Y-92658095D01*
X117662380Y-92086666D02*
X117090952Y-92515238D01*
X116662380Y-92086666D02*
X117233809Y-92658095D01*
X117662380Y-91134285D02*
X117662380Y-91705714D01*
X117662380Y-91420000D02*
X116662380Y-91420000D01*
X116805238Y-91515238D01*
X116900476Y-91610476D01*
X116948095Y-91705714D01*
%TO.C,C4*%
X101137142Y-94206666D02*
X101184761Y-94254285D01*
X101232380Y-94397142D01*
X101232380Y-94492380D01*
X101184761Y-94635238D01*
X101089523Y-94730476D01*
X100994285Y-94778095D01*
X100803809Y-94825714D01*
X100660952Y-94825714D01*
X100470476Y-94778095D01*
X100375238Y-94730476D01*
X100280000Y-94635238D01*
X100232380Y-94492380D01*
X100232380Y-94397142D01*
X100280000Y-94254285D01*
X100327619Y-94206666D01*
X100565714Y-93349523D02*
X101232380Y-93349523D01*
X100184761Y-93587619D02*
X100899047Y-93825714D01*
X100899047Y-93206666D01*
%TO.C,SW1*%
X102486666Y-85704761D02*
X102629523Y-85752380D01*
X102867619Y-85752380D01*
X102962857Y-85704761D01*
X103010476Y-85657142D01*
X103058095Y-85561904D01*
X103058095Y-85466666D01*
X103010476Y-85371428D01*
X102962857Y-85323809D01*
X102867619Y-85276190D01*
X102677142Y-85228571D01*
X102581904Y-85180952D01*
X102534285Y-85133333D01*
X102486666Y-85038095D01*
X102486666Y-84942857D01*
X102534285Y-84847619D01*
X102581904Y-84800000D01*
X102677142Y-84752380D01*
X102915238Y-84752380D01*
X103058095Y-84800000D01*
X103391428Y-84752380D02*
X103629523Y-85752380D01*
X103820000Y-85038095D01*
X104010476Y-85752380D01*
X104248571Y-84752380D01*
X105153333Y-85752380D02*
X104581904Y-85752380D01*
X104867619Y-85752380D02*
X104867619Y-84752380D01*
X104772380Y-84895238D01*
X104677142Y-84990476D01*
X104581904Y-85038095D01*
%TO.C,D2*%
X71411904Y-86832380D02*
X71411904Y-85832380D01*
X71650000Y-85832380D01*
X71792857Y-85880000D01*
X71888095Y-85975238D01*
X71935714Y-86070476D01*
X71983333Y-86260952D01*
X71983333Y-86403809D01*
X71935714Y-86594285D01*
X71888095Y-86689523D01*
X71792857Y-86784761D01*
X71650000Y-86832380D01*
X71411904Y-86832380D01*
X72364285Y-85927619D02*
X72411904Y-85880000D01*
X72507142Y-85832380D01*
X72745238Y-85832380D01*
X72840476Y-85880000D01*
X72888095Y-85927619D01*
X72935714Y-86022857D01*
X72935714Y-86118095D01*
X72888095Y-86260952D01*
X72316666Y-86832380D01*
X72935714Y-86832380D01*
%TO.C,C17*%
X117687142Y-63612857D02*
X117734761Y-63660476D01*
X117782380Y-63803333D01*
X117782380Y-63898571D01*
X117734761Y-64041428D01*
X117639523Y-64136666D01*
X117544285Y-64184285D01*
X117353809Y-64231904D01*
X117210952Y-64231904D01*
X117020476Y-64184285D01*
X116925238Y-64136666D01*
X116830000Y-64041428D01*
X116782380Y-63898571D01*
X116782380Y-63803333D01*
X116830000Y-63660476D01*
X116877619Y-63612857D01*
X117782380Y-62660476D02*
X117782380Y-63231904D01*
X117782380Y-62946190D02*
X116782380Y-62946190D01*
X116925238Y-63041428D01*
X117020476Y-63136666D01*
X117068095Y-63231904D01*
X116782380Y-62327142D02*
X116782380Y-61660476D01*
X117782380Y-62089047D01*
%TO.C,C13*%
X107017142Y-79827142D02*
X106969523Y-79874761D01*
X106826666Y-79922380D01*
X106731428Y-79922380D01*
X106588571Y-79874761D01*
X106493333Y-79779523D01*
X106445714Y-79684285D01*
X106398095Y-79493809D01*
X106398095Y-79350952D01*
X106445714Y-79160476D01*
X106493333Y-79065238D01*
X106588571Y-78970000D01*
X106731428Y-78922380D01*
X106826666Y-78922380D01*
X106969523Y-78970000D01*
X107017142Y-79017619D01*
X107969523Y-79922380D02*
X107398095Y-79922380D01*
X107683809Y-79922380D02*
X107683809Y-78922380D01*
X107588571Y-79065238D01*
X107493333Y-79160476D01*
X107398095Y-79208095D01*
X108302857Y-78922380D02*
X108921904Y-78922380D01*
X108588571Y-79303333D01*
X108731428Y-79303333D01*
X108826666Y-79350952D01*
X108874285Y-79398571D01*
X108921904Y-79493809D01*
X108921904Y-79731904D01*
X108874285Y-79827142D01*
X108826666Y-79874761D01*
X108731428Y-79922380D01*
X108445714Y-79922380D01*
X108350476Y-79874761D01*
X108302857Y-79827142D01*
%TO.C,J4*%
X71552380Y-55293333D02*
X72266666Y-55293333D01*
X72409523Y-55340952D01*
X72504761Y-55436190D01*
X72552380Y-55579047D01*
X72552380Y-55674285D01*
X71885714Y-54388571D02*
X72552380Y-54388571D01*
X71504761Y-54626666D02*
X72219047Y-54864761D01*
X72219047Y-54245714D01*
%TO.C,U2*%
X83022380Y-62111904D02*
X83831904Y-62111904D01*
X83927142Y-62064285D01*
X83974761Y-62016666D01*
X84022380Y-61921428D01*
X84022380Y-61730952D01*
X83974761Y-61635714D01*
X83927142Y-61588095D01*
X83831904Y-61540476D01*
X83022380Y-61540476D01*
X83117619Y-61111904D02*
X83070000Y-61064285D01*
X83022380Y-60969047D01*
X83022380Y-60730952D01*
X83070000Y-60635714D01*
X83117619Y-60588095D01*
X83212857Y-60540476D01*
X83308095Y-60540476D01*
X83450952Y-60588095D01*
X84022380Y-61159523D01*
X84022380Y-60540476D01*
%TO.C,Y1*%
X76366190Y-89776190D02*
X76842380Y-89776190D01*
X75842380Y-90109523D02*
X76366190Y-89776190D01*
X75842380Y-89442857D01*
X76842380Y-88585714D02*
X76842380Y-89157142D01*
X76842380Y-88871428D02*
X75842380Y-88871428D01*
X75985238Y-88966666D01*
X76080476Y-89061904D01*
X76128095Y-89157142D01*
%TO.C,C6*%
X76433333Y-85177142D02*
X76385714Y-85224761D01*
X76242857Y-85272380D01*
X76147619Y-85272380D01*
X76004761Y-85224761D01*
X75909523Y-85129523D01*
X75861904Y-85034285D01*
X75814285Y-84843809D01*
X75814285Y-84700952D01*
X75861904Y-84510476D01*
X75909523Y-84415238D01*
X76004761Y-84320000D01*
X76147619Y-84272380D01*
X76242857Y-84272380D01*
X76385714Y-84320000D01*
X76433333Y-84367619D01*
X77290476Y-84272380D02*
X77100000Y-84272380D01*
X77004761Y-84320000D01*
X76957142Y-84367619D01*
X76861904Y-84510476D01*
X76814285Y-84700952D01*
X76814285Y-85081904D01*
X76861904Y-85177142D01*
X76909523Y-85224761D01*
X77004761Y-85272380D01*
X77195238Y-85272380D01*
X77290476Y-85224761D01*
X77338095Y-85177142D01*
X77385714Y-85081904D01*
X77385714Y-84843809D01*
X77338095Y-84748571D01*
X77290476Y-84700952D01*
X77195238Y-84653333D01*
X77004761Y-84653333D01*
X76909523Y-84700952D01*
X76861904Y-84748571D01*
X76814285Y-84843809D01*
%TO.C,D3*%
X89671904Y-73472380D02*
X89671904Y-72472380D01*
X89910000Y-72472380D01*
X90052857Y-72520000D01*
X90148095Y-72615238D01*
X90195714Y-72710476D01*
X90243333Y-72900952D01*
X90243333Y-73043809D01*
X90195714Y-73234285D01*
X90148095Y-73329523D01*
X90052857Y-73424761D01*
X89910000Y-73472380D01*
X89671904Y-73472380D01*
X90576666Y-72472380D02*
X91195714Y-72472380D01*
X90862380Y-72853333D01*
X91005238Y-72853333D01*
X91100476Y-72900952D01*
X91148095Y-72948571D01*
X91195714Y-73043809D01*
X91195714Y-73281904D01*
X91148095Y-73377142D01*
X91100476Y-73424761D01*
X91005238Y-73472380D01*
X90719523Y-73472380D01*
X90624285Y-73424761D01*
X90576666Y-73377142D01*
%TO.C,C2*%
X76393333Y-76407142D02*
X76345714Y-76454761D01*
X76202857Y-76502380D01*
X76107619Y-76502380D01*
X75964761Y-76454761D01*
X75869523Y-76359523D01*
X75821904Y-76264285D01*
X75774285Y-76073809D01*
X75774285Y-75930952D01*
X75821904Y-75740476D01*
X75869523Y-75645238D01*
X75964761Y-75550000D01*
X76107619Y-75502380D01*
X76202857Y-75502380D01*
X76345714Y-75550000D01*
X76393333Y-75597619D01*
X76774285Y-75597619D02*
X76821904Y-75550000D01*
X76917142Y-75502380D01*
X77155238Y-75502380D01*
X77250476Y-75550000D01*
X77298095Y-75597619D01*
X77345714Y-75692857D01*
X77345714Y-75788095D01*
X77298095Y-75930952D01*
X76726666Y-76502380D01*
X77345714Y-76502380D01*
%TO.C,J7*%
X98446666Y-99672380D02*
X98446666Y-100386666D01*
X98399047Y-100529523D01*
X98303809Y-100624761D01*
X98160952Y-100672380D01*
X98065714Y-100672380D01*
X98827619Y-99672380D02*
X99494285Y-99672380D01*
X99065714Y-100672380D01*
%TO.C,C3*%
X101763333Y-51567142D02*
X101715714Y-51614761D01*
X101572857Y-51662380D01*
X101477619Y-51662380D01*
X101334761Y-51614761D01*
X101239523Y-51519523D01*
X101191904Y-51424285D01*
X101144285Y-51233809D01*
X101144285Y-51090952D01*
X101191904Y-50900476D01*
X101239523Y-50805238D01*
X101334761Y-50710000D01*
X101477619Y-50662380D01*
X101572857Y-50662380D01*
X101715714Y-50710000D01*
X101763333Y-50757619D01*
X102096666Y-50662380D02*
X102715714Y-50662380D01*
X102382380Y-51043333D01*
X102525238Y-51043333D01*
X102620476Y-51090952D01*
X102668095Y-51138571D01*
X102715714Y-51233809D01*
X102715714Y-51471904D01*
X102668095Y-51567142D01*
X102620476Y-51614761D01*
X102525238Y-51662380D01*
X102239523Y-51662380D01*
X102144285Y-51614761D01*
X102096666Y-51567142D01*
%TO.C,R7*%
X95083333Y-70462380D02*
X94750000Y-69986190D01*
X94511904Y-70462380D02*
X94511904Y-69462380D01*
X94892857Y-69462380D01*
X94988095Y-69510000D01*
X95035714Y-69557619D01*
X95083333Y-69652857D01*
X95083333Y-69795714D01*
X95035714Y-69890952D01*
X94988095Y-69938571D01*
X94892857Y-69986190D01*
X94511904Y-69986190D01*
X95416666Y-69462380D02*
X96083333Y-69462380D01*
X95654761Y-70462380D01*
%TO.C,C19*%
X119377142Y-69917142D02*
X119329523Y-69964761D01*
X119186666Y-70012380D01*
X119091428Y-70012380D01*
X118948571Y-69964761D01*
X118853333Y-69869523D01*
X118805714Y-69774285D01*
X118758095Y-69583809D01*
X118758095Y-69440952D01*
X118805714Y-69250476D01*
X118853333Y-69155238D01*
X118948571Y-69060000D01*
X119091428Y-69012380D01*
X119186666Y-69012380D01*
X119329523Y-69060000D01*
X119377142Y-69107619D01*
X120329523Y-70012380D02*
X119758095Y-70012380D01*
X120043809Y-70012380D02*
X120043809Y-69012380D01*
X119948571Y-69155238D01*
X119853333Y-69250476D01*
X119758095Y-69298095D01*
X120805714Y-70012380D02*
X120996190Y-70012380D01*
X121091428Y-69964761D01*
X121139047Y-69917142D01*
X121234285Y-69774285D01*
X121281904Y-69583809D01*
X121281904Y-69202857D01*
X121234285Y-69107619D01*
X121186666Y-69060000D01*
X121091428Y-69012380D01*
X120900952Y-69012380D01*
X120805714Y-69060000D01*
X120758095Y-69107619D01*
X120710476Y-69202857D01*
X120710476Y-69440952D01*
X120758095Y-69536190D01*
X120805714Y-69583809D01*
X120900952Y-69631428D01*
X121091428Y-69631428D01*
X121186666Y-69583809D01*
X121234285Y-69536190D01*
X121281904Y-69440952D01*
%TO.C,C7*%
X85653333Y-70297142D02*
X85605714Y-70344761D01*
X85462857Y-70392380D01*
X85367619Y-70392380D01*
X85224761Y-70344761D01*
X85129523Y-70249523D01*
X85081904Y-70154285D01*
X85034285Y-69963809D01*
X85034285Y-69820952D01*
X85081904Y-69630476D01*
X85129523Y-69535238D01*
X85224761Y-69440000D01*
X85367619Y-69392380D01*
X85462857Y-69392380D01*
X85605714Y-69440000D01*
X85653333Y-69487619D01*
X85986666Y-69392380D02*
X86653333Y-69392380D01*
X86224761Y-70392380D01*
%TO.C,J2*%
X107196666Y-99752380D02*
X107196666Y-100466666D01*
X107149047Y-100609523D01*
X107053809Y-100704761D01*
X106910952Y-100752380D01*
X106815714Y-100752380D01*
X107625238Y-99847619D02*
X107672857Y-99800000D01*
X107768095Y-99752380D01*
X108006190Y-99752380D01*
X108101428Y-99800000D01*
X108149047Y-99847619D01*
X108196666Y-99942857D01*
X108196666Y-100038095D01*
X108149047Y-100180952D01*
X107577619Y-100752380D01*
X108196666Y-100752380D01*
%TO.C,J3*%
X72256666Y-102232380D02*
X72256666Y-102946666D01*
X72209047Y-103089523D01*
X72113809Y-103184761D01*
X71970952Y-103232380D01*
X71875714Y-103232380D01*
X72637619Y-102232380D02*
X73256666Y-102232380D01*
X72923333Y-102613333D01*
X73066190Y-102613333D01*
X73161428Y-102660952D01*
X73209047Y-102708571D01*
X73256666Y-102803809D01*
X73256666Y-103041904D01*
X73209047Y-103137142D01*
X73161428Y-103184761D01*
X73066190Y-103232380D01*
X72780476Y-103232380D01*
X72685238Y-103184761D01*
X72637619Y-103137142D01*
%TO.C,R6*%
X90343333Y-70412380D02*
X90010000Y-69936190D01*
X89771904Y-70412380D02*
X89771904Y-69412380D01*
X90152857Y-69412380D01*
X90248095Y-69460000D01*
X90295714Y-69507619D01*
X90343333Y-69602857D01*
X90343333Y-69745714D01*
X90295714Y-69840952D01*
X90248095Y-69888571D01*
X90152857Y-69936190D01*
X89771904Y-69936190D01*
X91200476Y-69412380D02*
X91010000Y-69412380D01*
X90914761Y-69460000D01*
X90867142Y-69507619D01*
X90771904Y-69650476D01*
X90724285Y-69840952D01*
X90724285Y-70221904D01*
X90771904Y-70317142D01*
X90819523Y-70364761D01*
X90914761Y-70412380D01*
X91105238Y-70412380D01*
X91200476Y-70364761D01*
X91248095Y-70317142D01*
X91295714Y-70221904D01*
X91295714Y-69983809D01*
X91248095Y-69888571D01*
X91200476Y-69840952D01*
X91105238Y-69793333D01*
X90914761Y-69793333D01*
X90819523Y-69840952D01*
X90771904Y-69888571D01*
X90724285Y-69983809D01*
%TO.C,Y2*%
X98961190Y-76046190D02*
X99437380Y-76046190D01*
X98437380Y-76379523D02*
X98961190Y-76046190D01*
X98437380Y-75712857D01*
X98532619Y-75427142D02*
X98485000Y-75379523D01*
X98437380Y-75284285D01*
X98437380Y-75046190D01*
X98485000Y-74950952D01*
X98532619Y-74903333D01*
X98627857Y-74855714D01*
X98723095Y-74855714D01*
X98865952Y-74903333D01*
X99437380Y-75474761D01*
X99437380Y-74855714D01*
%TO.C,R10*%
X132427142Y-72292380D02*
X132093809Y-71816190D01*
X131855714Y-72292380D02*
X131855714Y-71292380D01*
X132236666Y-71292380D01*
X132331904Y-71340000D01*
X132379523Y-71387619D01*
X132427142Y-71482857D01*
X132427142Y-71625714D01*
X132379523Y-71720952D01*
X132331904Y-71768571D01*
X132236666Y-71816190D01*
X131855714Y-71816190D01*
X133379523Y-72292380D02*
X132808095Y-72292380D01*
X133093809Y-72292380D02*
X133093809Y-71292380D01*
X132998571Y-71435238D01*
X132903333Y-71530476D01*
X132808095Y-71578095D01*
X133998571Y-71292380D02*
X134093809Y-71292380D01*
X134189047Y-71340000D01*
X134236666Y-71387619D01*
X134284285Y-71482857D01*
X134331904Y-71673333D01*
X134331904Y-71911428D01*
X134284285Y-72101904D01*
X134236666Y-72197142D01*
X134189047Y-72244761D01*
X134093809Y-72292380D01*
X133998571Y-72292380D01*
X133903333Y-72244761D01*
X133855714Y-72197142D01*
X133808095Y-72101904D01*
X133760476Y-71911428D01*
X133760476Y-71673333D01*
X133808095Y-71482857D01*
X133855714Y-71387619D01*
X133903333Y-71340000D01*
X133998571Y-71292380D01*
%TO.C,C10*%
X85297142Y-73667142D02*
X85249523Y-73714761D01*
X85106666Y-73762380D01*
X85011428Y-73762380D01*
X84868571Y-73714761D01*
X84773333Y-73619523D01*
X84725714Y-73524285D01*
X84678095Y-73333809D01*
X84678095Y-73190952D01*
X84725714Y-73000476D01*
X84773333Y-72905238D01*
X84868571Y-72810000D01*
X85011428Y-72762380D01*
X85106666Y-72762380D01*
X85249523Y-72810000D01*
X85297142Y-72857619D01*
X86249523Y-73762380D02*
X85678095Y-73762380D01*
X85963809Y-73762380D02*
X85963809Y-72762380D01*
X85868571Y-72905238D01*
X85773333Y-73000476D01*
X85678095Y-73048095D01*
X86868571Y-72762380D02*
X86963809Y-72762380D01*
X87059047Y-72810000D01*
X87106666Y-72857619D01*
X87154285Y-72952857D01*
X87201904Y-73143333D01*
X87201904Y-73381428D01*
X87154285Y-73571904D01*
X87106666Y-73667142D01*
X87059047Y-73714761D01*
X86963809Y-73762380D01*
X86868571Y-73762380D01*
X86773333Y-73714761D01*
X86725714Y-73667142D01*
X86678095Y-73571904D01*
X86630476Y-73381428D01*
X86630476Y-73143333D01*
X86678095Y-72952857D01*
X86725714Y-72857619D01*
X86773333Y-72810000D01*
X86868571Y-72762380D01*
%TO.C,R4*%
X80953333Y-84872380D02*
X80620000Y-84396190D01*
X80381904Y-84872380D02*
X80381904Y-83872380D01*
X80762857Y-83872380D01*
X80858095Y-83920000D01*
X80905714Y-83967619D01*
X80953333Y-84062857D01*
X80953333Y-84205714D01*
X80905714Y-84300952D01*
X80858095Y-84348571D01*
X80762857Y-84396190D01*
X80381904Y-84396190D01*
X81810476Y-84205714D02*
X81810476Y-84872380D01*
X81572380Y-83824761D02*
X81334285Y-84539047D01*
X81953333Y-84539047D01*
%TO.C,C1*%
X97737142Y-90396666D02*
X97784761Y-90444285D01*
X97832380Y-90587142D01*
X97832380Y-90682380D01*
X97784761Y-90825238D01*
X97689523Y-90920476D01*
X97594285Y-90968095D01*
X97403809Y-91015714D01*
X97260952Y-91015714D01*
X97070476Y-90968095D01*
X96975238Y-90920476D01*
X96880000Y-90825238D01*
X96832380Y-90682380D01*
X96832380Y-90587142D01*
X96880000Y-90444285D01*
X96927619Y-90396666D01*
X97832380Y-89444285D02*
X97832380Y-90015714D01*
X97832380Y-89730000D02*
X96832380Y-89730000D01*
X96975238Y-89825238D01*
X97070476Y-89920476D01*
X97118095Y-90015714D01*
%TO.C,J6*%
X111236666Y-60277380D02*
X111236666Y-60991666D01*
X111189047Y-61134523D01*
X111093809Y-61229761D01*
X110950952Y-61277380D01*
X110855714Y-61277380D01*
X112141428Y-60277380D02*
X111950952Y-60277380D01*
X111855714Y-60325000D01*
X111808095Y-60372619D01*
X111712857Y-60515476D01*
X111665238Y-60705952D01*
X111665238Y-61086904D01*
X111712857Y-61182142D01*
X111760476Y-61229761D01*
X111855714Y-61277380D01*
X112046190Y-61277380D01*
X112141428Y-61229761D01*
X112189047Y-61182142D01*
X112236666Y-61086904D01*
X112236666Y-60848809D01*
X112189047Y-60753571D01*
X112141428Y-60705952D01*
X112046190Y-60658333D01*
X111855714Y-60658333D01*
X111760476Y-60705952D01*
X111712857Y-60753571D01*
X111665238Y-60848809D01*
%TO.C,R2*%
X72043333Y-99672380D02*
X71710000Y-99196190D01*
X71471904Y-99672380D02*
X71471904Y-98672380D01*
X71852857Y-98672380D01*
X71948095Y-98720000D01*
X71995714Y-98767619D01*
X72043333Y-98862857D01*
X72043333Y-99005714D01*
X71995714Y-99100952D01*
X71948095Y-99148571D01*
X71852857Y-99196190D01*
X71471904Y-99196190D01*
X72424285Y-98767619D02*
X72471904Y-98720000D01*
X72567142Y-98672380D01*
X72805238Y-98672380D01*
X72900476Y-98720000D01*
X72948095Y-98767619D01*
X72995714Y-98862857D01*
X72995714Y-98958095D01*
X72948095Y-99100952D01*
X72376666Y-99672380D01*
X72995714Y-99672380D01*
%TO.C,C5*%
X97807142Y-94276666D02*
X97854761Y-94324285D01*
X97902380Y-94467142D01*
X97902380Y-94562380D01*
X97854761Y-94705238D01*
X97759523Y-94800476D01*
X97664285Y-94848095D01*
X97473809Y-94895714D01*
X97330952Y-94895714D01*
X97140476Y-94848095D01*
X97045238Y-94800476D01*
X96950000Y-94705238D01*
X96902380Y-94562380D01*
X96902380Y-94467142D01*
X96950000Y-94324285D01*
X96997619Y-94276666D01*
X96902380Y-93371904D02*
X96902380Y-93848095D01*
X97378571Y-93895714D01*
X97330952Y-93848095D01*
X97283333Y-93752857D01*
X97283333Y-93514761D01*
X97330952Y-93419523D01*
X97378571Y-93371904D01*
X97473809Y-93324285D01*
X97711904Y-93324285D01*
X97807142Y-93371904D01*
X97854761Y-93419523D01*
X97902380Y-93514761D01*
X97902380Y-93752857D01*
X97854761Y-93848095D01*
X97807142Y-93895714D01*
%TO.C,C12*%
X106907142Y-70297142D02*
X106859523Y-70344761D01*
X106716666Y-70392380D01*
X106621428Y-70392380D01*
X106478571Y-70344761D01*
X106383333Y-70249523D01*
X106335714Y-70154285D01*
X106288095Y-69963809D01*
X106288095Y-69820952D01*
X106335714Y-69630476D01*
X106383333Y-69535238D01*
X106478571Y-69440000D01*
X106621428Y-69392380D01*
X106716666Y-69392380D01*
X106859523Y-69440000D01*
X106907142Y-69487619D01*
X107859523Y-70392380D02*
X107288095Y-70392380D01*
X107573809Y-70392380D02*
X107573809Y-69392380D01*
X107478571Y-69535238D01*
X107383333Y-69630476D01*
X107288095Y-69678095D01*
X108240476Y-69487619D02*
X108288095Y-69440000D01*
X108383333Y-69392380D01*
X108621428Y-69392380D01*
X108716666Y-69440000D01*
X108764285Y-69487619D01*
X108811904Y-69582857D01*
X108811904Y-69678095D01*
X108764285Y-69820952D01*
X108192857Y-70392380D01*
X108811904Y-70392380D01*
%TO.C,J8*%
X121636666Y-101542380D02*
X121636666Y-102256666D01*
X121589047Y-102399523D01*
X121493809Y-102494761D01*
X121350952Y-102542380D01*
X121255714Y-102542380D01*
X122255714Y-101970952D02*
X122160476Y-101923333D01*
X122112857Y-101875714D01*
X122065238Y-101780476D01*
X122065238Y-101732857D01*
X122112857Y-101637619D01*
X122160476Y-101590000D01*
X122255714Y-101542380D01*
X122446190Y-101542380D01*
X122541428Y-101590000D01*
X122589047Y-101637619D01*
X122636666Y-101732857D01*
X122636666Y-101780476D01*
X122589047Y-101875714D01*
X122541428Y-101923333D01*
X122446190Y-101970952D01*
X122255714Y-101970952D01*
X122160476Y-102018571D01*
X122112857Y-102066190D01*
X122065238Y-102161428D01*
X122065238Y-102351904D01*
X122112857Y-102447142D01*
X122160476Y-102494761D01*
X122255714Y-102542380D01*
X122446190Y-102542380D01*
X122541428Y-102494761D01*
X122589047Y-102447142D01*
X122636666Y-102351904D01*
X122636666Y-102161428D01*
X122589047Y-102066190D01*
X122541428Y-102018571D01*
X122446190Y-101970952D01*
%TO.C,R5*%
X90553333Y-84072380D02*
X90220000Y-83596190D01*
X89981904Y-84072380D02*
X89981904Y-83072380D01*
X90362857Y-83072380D01*
X90458095Y-83120000D01*
X90505714Y-83167619D01*
X90553333Y-83262857D01*
X90553333Y-83405714D01*
X90505714Y-83500952D01*
X90458095Y-83548571D01*
X90362857Y-83596190D01*
X89981904Y-83596190D01*
X91458095Y-83072380D02*
X90981904Y-83072380D01*
X90934285Y-83548571D01*
X90981904Y-83500952D01*
X91077142Y-83453333D01*
X91315238Y-83453333D01*
X91410476Y-83500952D01*
X91458095Y-83548571D01*
X91505714Y-83643809D01*
X91505714Y-83881904D01*
X91458095Y-83977142D01*
X91410476Y-84024761D01*
X91315238Y-84072380D01*
X91077142Y-84072380D01*
X90981904Y-84024761D01*
X90934285Y-83977142D01*
%TO.C,U1*%
X80628095Y-88552380D02*
X80628095Y-89361904D01*
X80675714Y-89457142D01*
X80723333Y-89504761D01*
X80818571Y-89552380D01*
X81009047Y-89552380D01*
X81104285Y-89504761D01*
X81151904Y-89457142D01*
X81199523Y-89361904D01*
X81199523Y-88552380D01*
X82199523Y-89552380D02*
X81628095Y-89552380D01*
X81913809Y-89552380D02*
X81913809Y-88552380D01*
X81818571Y-88695238D01*
X81723333Y-88790476D01*
X81628095Y-88838095D01*
%TO.C,J1*%
X134732380Y-51613333D02*
X135446666Y-51613333D01*
X135589523Y-51660952D01*
X135684761Y-51756190D01*
X135732380Y-51899047D01*
X135732380Y-51994285D01*
X135732380Y-50613333D02*
X135732380Y-51184761D01*
X135732380Y-50899047D02*
X134732380Y-50899047D01*
X134875238Y-50994285D01*
X134970476Y-51089523D01*
X135018095Y-51184761D01*
%TO.C,C8*%
X80703333Y-91637142D02*
X80655714Y-91684761D01*
X80512857Y-91732380D01*
X80417619Y-91732380D01*
X80274761Y-91684761D01*
X80179523Y-91589523D01*
X80131904Y-91494285D01*
X80084285Y-91303809D01*
X80084285Y-91160952D01*
X80131904Y-90970476D01*
X80179523Y-90875238D01*
X80274761Y-90780000D01*
X80417619Y-90732380D01*
X80512857Y-90732380D01*
X80655714Y-90780000D01*
X80703333Y-90827619D01*
X81274761Y-91160952D02*
X81179523Y-91113333D01*
X81131904Y-91065714D01*
X81084285Y-90970476D01*
X81084285Y-90922857D01*
X81131904Y-90827619D01*
X81179523Y-90780000D01*
X81274761Y-90732380D01*
X81465238Y-90732380D01*
X81560476Y-90780000D01*
X81608095Y-90827619D01*
X81655714Y-90922857D01*
X81655714Y-90970476D01*
X81608095Y-91065714D01*
X81560476Y-91113333D01*
X81465238Y-91160952D01*
X81274761Y-91160952D01*
X81179523Y-91208571D01*
X81131904Y-91256190D01*
X81084285Y-91351428D01*
X81084285Y-91541904D01*
X81131904Y-91637142D01*
X81179523Y-91684761D01*
X81274761Y-91732380D01*
X81465238Y-91732380D01*
X81560476Y-91684761D01*
X81608095Y-91637142D01*
X81655714Y-91541904D01*
X81655714Y-91351428D01*
X81608095Y-91256190D01*
X81560476Y-91208571D01*
X81465238Y-91160952D01*
%TO.C,U4*%
X112278095Y-64602380D02*
X112278095Y-65411904D01*
X112325714Y-65507142D01*
X112373333Y-65554761D01*
X112468571Y-65602380D01*
X112659047Y-65602380D01*
X112754285Y-65554761D01*
X112801904Y-65507142D01*
X112849523Y-65411904D01*
X112849523Y-64602380D01*
X113754285Y-64935714D02*
X113754285Y-65602380D01*
X113516190Y-64554761D02*
X113278095Y-65269047D01*
X113897142Y-65269047D01*
%TO.C,C18*%
X119487142Y-59267142D02*
X119439523Y-59314761D01*
X119296666Y-59362380D01*
X119201428Y-59362380D01*
X119058571Y-59314761D01*
X118963333Y-59219523D01*
X118915714Y-59124285D01*
X118868095Y-58933809D01*
X118868095Y-58790952D01*
X118915714Y-58600476D01*
X118963333Y-58505238D01*
X119058571Y-58410000D01*
X119201428Y-58362380D01*
X119296666Y-58362380D01*
X119439523Y-58410000D01*
X119487142Y-58457619D01*
X120439523Y-59362380D02*
X119868095Y-59362380D01*
X120153809Y-59362380D02*
X120153809Y-58362380D01*
X120058571Y-58505238D01*
X119963333Y-58600476D01*
X119868095Y-58648095D01*
X121010952Y-58790952D02*
X120915714Y-58743333D01*
X120868095Y-58695714D01*
X120820476Y-58600476D01*
X120820476Y-58552857D01*
X120868095Y-58457619D01*
X120915714Y-58410000D01*
X121010952Y-58362380D01*
X121201428Y-58362380D01*
X121296666Y-58410000D01*
X121344285Y-58457619D01*
X121391904Y-58552857D01*
X121391904Y-58600476D01*
X121344285Y-58695714D01*
X121296666Y-58743333D01*
X121201428Y-58790952D01*
X121010952Y-58790952D01*
X120915714Y-58838571D01*
X120868095Y-58886190D01*
X120820476Y-58981428D01*
X120820476Y-59171904D01*
X120868095Y-59267142D01*
X120915714Y-59314761D01*
X121010952Y-59362380D01*
X121201428Y-59362380D01*
X121296666Y-59314761D01*
X121344285Y-59267142D01*
X121391904Y-59171904D01*
X121391904Y-58981428D01*
X121344285Y-58886190D01*
X121296666Y-58838571D01*
X121201428Y-58790952D01*
%TO.C,D5*%
X94611904Y-73502380D02*
X94611904Y-72502380D01*
X94850000Y-72502380D01*
X94992857Y-72550000D01*
X95088095Y-72645238D01*
X95135714Y-72740476D01*
X95183333Y-72930952D01*
X95183333Y-73073809D01*
X95135714Y-73264285D01*
X95088095Y-73359523D01*
X94992857Y-73454761D01*
X94850000Y-73502380D01*
X94611904Y-73502380D01*
X96088095Y-72502380D02*
X95611904Y-72502380D01*
X95564285Y-72978571D01*
X95611904Y-72930952D01*
X95707142Y-72883333D01*
X95945238Y-72883333D01*
X96040476Y-72930952D01*
X96088095Y-72978571D01*
X96135714Y-73073809D01*
X96135714Y-73311904D01*
X96088095Y-73407142D01*
X96040476Y-73454761D01*
X95945238Y-73502380D01*
X95707142Y-73502380D01*
X95611904Y-73454761D01*
X95564285Y-73407142D01*
%TO.C,J5*%
X114306666Y-99632380D02*
X114306666Y-100346666D01*
X114259047Y-100489523D01*
X114163809Y-100584761D01*
X114020952Y-100632380D01*
X113925714Y-100632380D01*
X115259047Y-99632380D02*
X114782857Y-99632380D01*
X114735238Y-100108571D01*
X114782857Y-100060952D01*
X114878095Y-100013333D01*
X115116190Y-100013333D01*
X115211428Y-100060952D01*
X115259047Y-100108571D01*
X115306666Y-100203809D01*
X115306666Y-100441904D01*
X115259047Y-100537142D01*
X115211428Y-100584761D01*
X115116190Y-100632380D01*
X114878095Y-100632380D01*
X114782857Y-100584761D01*
X114735238Y-100537142D01*
%TO.C,R8*%
X104823333Y-66552380D02*
X104490000Y-66076190D01*
X104251904Y-66552380D02*
X104251904Y-65552380D01*
X104632857Y-65552380D01*
X104728095Y-65600000D01*
X104775714Y-65647619D01*
X104823333Y-65742857D01*
X104823333Y-65885714D01*
X104775714Y-65980952D01*
X104728095Y-66028571D01*
X104632857Y-66076190D01*
X104251904Y-66076190D01*
X105394761Y-65980952D02*
X105299523Y-65933333D01*
X105251904Y-65885714D01*
X105204285Y-65790476D01*
X105204285Y-65742857D01*
X105251904Y-65647619D01*
X105299523Y-65600000D01*
X105394761Y-65552380D01*
X105585238Y-65552380D01*
X105680476Y-65600000D01*
X105728095Y-65647619D01*
X105775714Y-65742857D01*
X105775714Y-65790476D01*
X105728095Y-65885714D01*
X105680476Y-65933333D01*
X105585238Y-65980952D01*
X105394761Y-65980952D01*
X105299523Y-66028571D01*
X105251904Y-66076190D01*
X105204285Y-66171428D01*
X105204285Y-66361904D01*
X105251904Y-66457142D01*
X105299523Y-66504761D01*
X105394761Y-66552380D01*
X105585238Y-66552380D01*
X105680476Y-66504761D01*
X105728095Y-66457142D01*
X105775714Y-66361904D01*
X105775714Y-66171428D01*
X105728095Y-66076190D01*
X105680476Y-66028571D01*
X105585238Y-65980952D01*
%TO.C,R3*%
X85113333Y-84042380D02*
X84780000Y-83566190D01*
X84541904Y-84042380D02*
X84541904Y-83042380D01*
X84922857Y-83042380D01*
X85018095Y-83090000D01*
X85065714Y-83137619D01*
X85113333Y-83232857D01*
X85113333Y-83375714D01*
X85065714Y-83470952D01*
X85018095Y-83518571D01*
X84922857Y-83566190D01*
X84541904Y-83566190D01*
X85446666Y-83042380D02*
X86065714Y-83042380D01*
X85732380Y-83423333D01*
X85875238Y-83423333D01*
X85970476Y-83470952D01*
X86018095Y-83518571D01*
X86065714Y-83613809D01*
X86065714Y-83851904D01*
X86018095Y-83947142D01*
X85970476Y-83994761D01*
X85875238Y-84042380D01*
X85589523Y-84042380D01*
X85494285Y-83994761D01*
X85446666Y-83947142D01*
%TO.C,U3*%
X96932380Y-79021904D02*
X97741904Y-79021904D01*
X97837142Y-78974285D01*
X97884761Y-78926666D01*
X97932380Y-78831428D01*
X97932380Y-78640952D01*
X97884761Y-78545714D01*
X97837142Y-78498095D01*
X97741904Y-78450476D01*
X96932380Y-78450476D01*
X96932380Y-78069523D02*
X96932380Y-77450476D01*
X97313333Y-77783809D01*
X97313333Y-77640952D01*
X97360952Y-77545714D01*
X97408571Y-77498095D01*
X97503809Y-77450476D01*
X97741904Y-77450476D01*
X97837142Y-77498095D01*
X97884761Y-77545714D01*
X97932380Y-77640952D01*
X97932380Y-77926666D01*
X97884761Y-78021904D01*
X97837142Y-78069523D01*
%TO.C,D6*%
X126031904Y-72512380D02*
X126031904Y-71512380D01*
X126270000Y-71512380D01*
X126412857Y-71560000D01*
X126508095Y-71655238D01*
X126555714Y-71750476D01*
X126603333Y-71940952D01*
X126603333Y-72083809D01*
X126555714Y-72274285D01*
X126508095Y-72369523D01*
X126412857Y-72464761D01*
X126270000Y-72512380D01*
X126031904Y-72512380D01*
X127460476Y-71512380D02*
X127270000Y-71512380D01*
X127174761Y-71560000D01*
X127127142Y-71607619D01*
X127031904Y-71750476D01*
X126984285Y-71940952D01*
X126984285Y-72321904D01*
X127031904Y-72417142D01*
X127079523Y-72464761D01*
X127174761Y-72512380D01*
X127365238Y-72512380D01*
X127460476Y-72464761D01*
X127508095Y-72417142D01*
X127555714Y-72321904D01*
X127555714Y-72083809D01*
X127508095Y-71988571D01*
X127460476Y-71940952D01*
X127365238Y-71893333D01*
X127174761Y-71893333D01*
X127079523Y-71940952D01*
X127031904Y-71988571D01*
X126984285Y-72083809D01*
%TO.C,C20*%
X126327142Y-67747142D02*
X126279523Y-67794761D01*
X126136666Y-67842380D01*
X126041428Y-67842380D01*
X125898571Y-67794761D01*
X125803333Y-67699523D01*
X125755714Y-67604285D01*
X125708095Y-67413809D01*
X125708095Y-67270952D01*
X125755714Y-67080476D01*
X125803333Y-66985238D01*
X125898571Y-66890000D01*
X126041428Y-66842380D01*
X126136666Y-66842380D01*
X126279523Y-66890000D01*
X126327142Y-66937619D01*
X126708095Y-66937619D02*
X126755714Y-66890000D01*
X126850952Y-66842380D01*
X127089047Y-66842380D01*
X127184285Y-66890000D01*
X127231904Y-66937619D01*
X127279523Y-67032857D01*
X127279523Y-67128095D01*
X127231904Y-67270952D01*
X126660476Y-67842380D01*
X127279523Y-67842380D01*
X127898571Y-66842380D02*
X127993809Y-66842380D01*
X128089047Y-66890000D01*
X128136666Y-66937619D01*
X128184285Y-67032857D01*
X128231904Y-67223333D01*
X128231904Y-67461428D01*
X128184285Y-67651904D01*
X128136666Y-67747142D01*
X128089047Y-67794761D01*
X127993809Y-67842380D01*
X127898571Y-67842380D01*
X127803333Y-67794761D01*
X127755714Y-67747142D01*
X127708095Y-67651904D01*
X127660476Y-67461428D01*
X127660476Y-67223333D01*
X127708095Y-67032857D01*
X127755714Y-66937619D01*
X127803333Y-66890000D01*
X127898571Y-66842380D01*
%TO.C,R1*%
X87913333Y-84082380D02*
X87580000Y-83606190D01*
X87341904Y-84082380D02*
X87341904Y-83082380D01*
X87722857Y-83082380D01*
X87818095Y-83130000D01*
X87865714Y-83177619D01*
X87913333Y-83272857D01*
X87913333Y-83415714D01*
X87865714Y-83510952D01*
X87818095Y-83558571D01*
X87722857Y-83606190D01*
X87341904Y-83606190D01*
X88865714Y-84082380D02*
X88294285Y-84082380D01*
X88580000Y-84082380D02*
X88580000Y-83082380D01*
X88484761Y-83225238D01*
X88389523Y-83320476D01*
X88294285Y-83368095D01*
%TO.C,C9*%
X80773333Y-101127142D02*
X80725714Y-101174761D01*
X80582857Y-101222380D01*
X80487619Y-101222380D01*
X80344761Y-101174761D01*
X80249523Y-101079523D01*
X80201904Y-100984285D01*
X80154285Y-100793809D01*
X80154285Y-100650952D01*
X80201904Y-100460476D01*
X80249523Y-100365238D01*
X80344761Y-100270000D01*
X80487619Y-100222380D01*
X80582857Y-100222380D01*
X80725714Y-100270000D01*
X80773333Y-100317619D01*
X81249523Y-101222380D02*
X81440000Y-101222380D01*
X81535238Y-101174761D01*
X81582857Y-101127142D01*
X81678095Y-100984285D01*
X81725714Y-100793809D01*
X81725714Y-100412857D01*
X81678095Y-100317619D01*
X81630476Y-100270000D01*
X81535238Y-100222380D01*
X81344761Y-100222380D01*
X81249523Y-100270000D01*
X81201904Y-100317619D01*
X81154285Y-100412857D01*
X81154285Y-100650952D01*
X81201904Y-100746190D01*
X81249523Y-100793809D01*
X81344761Y-100841428D01*
X81535238Y-100841428D01*
X81630476Y-100793809D01*
X81678095Y-100746190D01*
X81725714Y-100650952D01*
%TO.C,C15*%
X85247142Y-81347142D02*
X85199523Y-81394761D01*
X85056666Y-81442380D01*
X84961428Y-81442380D01*
X84818571Y-81394761D01*
X84723333Y-81299523D01*
X84675714Y-81204285D01*
X84628095Y-81013809D01*
X84628095Y-80870952D01*
X84675714Y-80680476D01*
X84723333Y-80585238D01*
X84818571Y-80490000D01*
X84961428Y-80442380D01*
X85056666Y-80442380D01*
X85199523Y-80490000D01*
X85247142Y-80537619D01*
X86199523Y-81442380D02*
X85628095Y-81442380D01*
X85913809Y-81442380D02*
X85913809Y-80442380D01*
X85818571Y-80585238D01*
X85723333Y-80680476D01*
X85628095Y-80728095D01*
X87104285Y-80442380D02*
X86628095Y-80442380D01*
X86580476Y-80918571D01*
X86628095Y-80870952D01*
X86723333Y-80823333D01*
X86961428Y-80823333D01*
X87056666Y-80870952D01*
X87104285Y-80918571D01*
X87151904Y-81013809D01*
X87151904Y-81251904D01*
X87104285Y-81347142D01*
X87056666Y-81394761D01*
X86961428Y-81442380D01*
X86723333Y-81442380D01*
X86628095Y-81394761D01*
X86580476Y-81347142D01*
%TO.C,C11*%
X85317142Y-77357142D02*
X85269523Y-77404761D01*
X85126666Y-77452380D01*
X85031428Y-77452380D01*
X84888571Y-77404761D01*
X84793333Y-77309523D01*
X84745714Y-77214285D01*
X84698095Y-77023809D01*
X84698095Y-76880952D01*
X84745714Y-76690476D01*
X84793333Y-76595238D01*
X84888571Y-76500000D01*
X85031428Y-76452380D01*
X85126666Y-76452380D01*
X85269523Y-76500000D01*
X85317142Y-76547619D01*
X86269523Y-77452380D02*
X85698095Y-77452380D01*
X85983809Y-77452380D02*
X85983809Y-76452380D01*
X85888571Y-76595238D01*
X85793333Y-76690476D01*
X85698095Y-76738095D01*
X87221904Y-77452380D02*
X86650476Y-77452380D01*
X86936190Y-77452380D02*
X86936190Y-76452380D01*
X86840952Y-76595238D01*
X86745714Y-76690476D01*
X86650476Y-76738095D01*
%TO.C,C14*%
X107907142Y-62247142D02*
X107859523Y-62294761D01*
X107716666Y-62342380D01*
X107621428Y-62342380D01*
X107478571Y-62294761D01*
X107383333Y-62199523D01*
X107335714Y-62104285D01*
X107288095Y-61913809D01*
X107288095Y-61770952D01*
X107335714Y-61580476D01*
X107383333Y-61485238D01*
X107478571Y-61390000D01*
X107621428Y-61342380D01*
X107716666Y-61342380D01*
X107859523Y-61390000D01*
X107907142Y-61437619D01*
X108859523Y-62342380D02*
X108288095Y-62342380D01*
X108573809Y-62342380D02*
X108573809Y-61342380D01*
X108478571Y-61485238D01*
X108383333Y-61580476D01*
X108288095Y-61628095D01*
X109716666Y-61675714D02*
X109716666Y-62342380D01*
X109478571Y-61294761D02*
X109240476Y-62009047D01*
X109859523Y-62009047D01*
%TO.C,R9*%
X101035833Y-65232380D02*
X100702500Y-64756190D01*
X100464404Y-65232380D02*
X100464404Y-64232380D01*
X100845357Y-64232380D01*
X100940595Y-64280000D01*
X100988214Y-64327619D01*
X101035833Y-64422857D01*
X101035833Y-64565714D01*
X100988214Y-64660952D01*
X100940595Y-64708571D01*
X100845357Y-64756190D01*
X100464404Y-64756190D01*
X101512023Y-65232380D02*
X101702500Y-65232380D01*
X101797738Y-65184761D01*
X101845357Y-65137142D01*
X101940595Y-64994285D01*
X101988214Y-64803809D01*
X101988214Y-64422857D01*
X101940595Y-64327619D01*
X101892976Y-64280000D01*
X101797738Y-64232380D01*
X101607261Y-64232380D01*
X101512023Y-64280000D01*
X101464404Y-64327619D01*
X101416785Y-64422857D01*
X101416785Y-64660952D01*
X101464404Y-64756190D01*
X101512023Y-64803809D01*
X101607261Y-64851428D01*
X101797738Y-64851428D01*
X101892976Y-64803809D01*
X101940595Y-64756190D01*
X101988214Y-64660952D01*
%TO.C,C16*%
X119407142Y-66267142D02*
X119359523Y-66314761D01*
X119216666Y-66362380D01*
X119121428Y-66362380D01*
X118978571Y-66314761D01*
X118883333Y-66219523D01*
X118835714Y-66124285D01*
X118788095Y-65933809D01*
X118788095Y-65790952D01*
X118835714Y-65600476D01*
X118883333Y-65505238D01*
X118978571Y-65410000D01*
X119121428Y-65362380D01*
X119216666Y-65362380D01*
X119359523Y-65410000D01*
X119407142Y-65457619D01*
X120359523Y-66362380D02*
X119788095Y-66362380D01*
X120073809Y-66362380D02*
X120073809Y-65362380D01*
X119978571Y-65505238D01*
X119883333Y-65600476D01*
X119788095Y-65648095D01*
X121216666Y-65362380D02*
X121026190Y-65362380D01*
X120930952Y-65410000D01*
X120883333Y-65457619D01*
X120788095Y-65600476D01*
X120740476Y-65790952D01*
X120740476Y-66171904D01*
X120788095Y-66267142D01*
X120835714Y-66314761D01*
X120930952Y-66362380D01*
X121121428Y-66362380D01*
X121216666Y-66314761D01*
X121264285Y-66267142D01*
X121311904Y-66171904D01*
X121311904Y-65933809D01*
X121264285Y-65838571D01*
X121216666Y-65790952D01*
X121121428Y-65743333D01*
X120930952Y-65743333D01*
X120835714Y-65790952D01*
X120788095Y-65838571D01*
X120740476Y-65933809D01*
D11*
%TO.C,D4*%
X102000000Y-62520000D02*
X102000000Y-57120000D01*
X105300000Y-62520000D02*
X105300000Y-57120000D01*
X102000000Y-62520000D02*
X105300000Y-62520000D01*
%TO.C,D1*%
X91600000Y-55300000D02*
X86200000Y-55300000D01*
X91600000Y-52000000D02*
X86200000Y-52000000D01*
X91600000Y-55300000D02*
X91600000Y-52000000D01*
%TO.C,Q1*%
X131510000Y-67500000D02*
X135110000Y-67500000D01*
X135148478Y-67488478D02*
G75*
G03*
X133310000Y-63050000I-1838478J1838478D01*
G01*
X133310000Y-63049999D02*
G75*
G03*
X131471522Y-67488478I0J-2600001D01*
G01*
%TO.C,REF\u002A\u002A*%
G36*
X117203802Y-82834059D02*
G01*
X117239786Y-82655332D01*
X117289759Y-82493845D01*
X117353668Y-82349726D01*
X117431462Y-82223106D01*
X117523089Y-82114115D01*
X117628497Y-82022883D01*
X117673662Y-81991932D01*
X117774611Y-81935785D01*
X117877901Y-81896174D01*
X117987989Y-81872014D01*
X118109330Y-81862219D01*
X118201836Y-81863265D01*
X118331490Y-81874231D01*
X118444084Y-81896046D01*
X118542875Y-81929714D01*
X118631121Y-81976236D01*
X118679986Y-82010448D01*
X118709353Y-82032362D01*
X118731043Y-82047333D01*
X118739253Y-82051733D01*
X118740868Y-82040904D01*
X118742159Y-82010251D01*
X118743138Y-81962526D01*
X118743817Y-81900479D01*
X118744210Y-81826862D01*
X118744330Y-81744427D01*
X118744188Y-81655925D01*
X118743797Y-81564107D01*
X118743171Y-81471724D01*
X118742320Y-81381528D01*
X118741260Y-81296271D01*
X118740001Y-81218703D01*
X118738556Y-81151576D01*
X118736938Y-81097641D01*
X118735161Y-81059650D01*
X118734669Y-81052667D01*
X118727092Y-80982251D01*
X118715531Y-80927102D01*
X118697792Y-80879981D01*
X118671682Y-80833647D01*
X118665415Y-80824067D01*
X118640983Y-80787378D01*
X119546311Y-80787378D01*
X119546507Y-82472245D01*
X119546526Y-82706662D01*
X119546552Y-82919603D01*
X119546625Y-83112168D01*
X119546782Y-83285459D01*
X119547064Y-83440576D01*
X119547509Y-83578620D01*
X119548156Y-83700692D01*
X119549045Y-83807894D01*
X119550213Y-83901326D01*
X119551701Y-83982090D01*
X119553546Y-84051286D01*
X119555789Y-84110015D01*
X119558469Y-84159379D01*
X119561623Y-84200478D01*
X119565292Y-84234413D01*
X119569513Y-84262286D01*
X119574327Y-84285198D01*
X119579773Y-84304249D01*
X119585888Y-84320540D01*
X119592712Y-84335173D01*
X119600285Y-84349249D01*
X119608645Y-84363868D01*
X119613839Y-84372974D01*
X119648104Y-84433689D01*
X118789955Y-84433689D01*
X118789955Y-84337733D01*
X118789224Y-84294370D01*
X118787272Y-84261205D01*
X118784463Y-84243424D01*
X118783221Y-84241778D01*
X118771799Y-84248662D01*
X118749084Y-84266505D01*
X118726385Y-84285879D01*
X118671800Y-84326614D01*
X118602321Y-84367617D01*
X118525270Y-84405123D01*
X118447965Y-84435364D01*
X118417113Y-84445012D01*
X118348616Y-84459578D01*
X118265764Y-84469539D01*
X118176371Y-84474583D01*
X118088248Y-84474396D01*
X118009207Y-84468666D01*
X117971511Y-84462858D01*
X117833414Y-84424797D01*
X117706113Y-84367073D01*
X117590292Y-84290211D01*
X117486637Y-84194739D01*
X117395833Y-84081179D01*
X117329031Y-83970381D01*
X117274164Y-83853625D01*
X117232163Y-83734276D01*
X117202167Y-83608283D01*
X117183311Y-83471594D01*
X117174732Y-83320158D01*
X117174006Y-83242711D01*
X117176100Y-83185934D01*
X118005217Y-83185934D01*
X118005424Y-83279002D01*
X118008337Y-83366692D01*
X118014000Y-83443772D01*
X118022455Y-83505009D01*
X118025038Y-83517350D01*
X118056840Y-83624633D01*
X118098498Y-83711658D01*
X118150363Y-83778642D01*
X118212781Y-83825805D01*
X118286100Y-83853365D01*
X118370669Y-83861541D01*
X118466835Y-83850551D01*
X118530311Y-83834829D01*
X118579454Y-83816639D01*
X118633583Y-83790791D01*
X118674244Y-83767089D01*
X118744800Y-83720721D01*
X118744800Y-82570530D01*
X118677392Y-82526962D01*
X118598867Y-82486040D01*
X118514681Y-82459389D01*
X118429557Y-82447465D01*
X118348216Y-82450722D01*
X118275380Y-82469615D01*
X118243426Y-82485184D01*
X118185501Y-82528181D01*
X118136544Y-82584953D01*
X118095390Y-82657575D01*
X118060874Y-82748121D01*
X118031833Y-82858666D01*
X118030552Y-82864533D01*
X118020381Y-82926788D01*
X118012739Y-83004594D01*
X118007670Y-83092720D01*
X118005217Y-83185934D01*
X117176100Y-83185934D01*
X117181857Y-83029895D01*
X117203802Y-82834059D01*
G37*
D12*
X117203802Y-82834059D02*
X117239786Y-82655332D01*
X117289759Y-82493845D01*
X117353668Y-82349726D01*
X117431462Y-82223106D01*
X117523089Y-82114115D01*
X117628497Y-82022883D01*
X117673662Y-81991932D01*
X117774611Y-81935785D01*
X117877901Y-81896174D01*
X117987989Y-81872014D01*
X118109330Y-81862219D01*
X118201836Y-81863265D01*
X118331490Y-81874231D01*
X118444084Y-81896046D01*
X118542875Y-81929714D01*
X118631121Y-81976236D01*
X118679986Y-82010448D01*
X118709353Y-82032362D01*
X118731043Y-82047333D01*
X118739253Y-82051733D01*
X118740868Y-82040904D01*
X118742159Y-82010251D01*
X118743138Y-81962526D01*
X118743817Y-81900479D01*
X118744210Y-81826862D01*
X118744330Y-81744427D01*
X118744188Y-81655925D01*
X118743797Y-81564107D01*
X118743171Y-81471724D01*
X118742320Y-81381528D01*
X118741260Y-81296271D01*
X118740001Y-81218703D01*
X118738556Y-81151576D01*
X118736938Y-81097641D01*
X118735161Y-81059650D01*
X118734669Y-81052667D01*
X118727092Y-80982251D01*
X118715531Y-80927102D01*
X118697792Y-80879981D01*
X118671682Y-80833647D01*
X118665415Y-80824067D01*
X118640983Y-80787378D01*
X119546311Y-80787378D01*
X119546507Y-82472245D01*
X119546526Y-82706662D01*
X119546552Y-82919603D01*
X119546625Y-83112168D01*
X119546782Y-83285459D01*
X119547064Y-83440576D01*
X119547509Y-83578620D01*
X119548156Y-83700692D01*
X119549045Y-83807894D01*
X119550213Y-83901326D01*
X119551701Y-83982090D01*
X119553546Y-84051286D01*
X119555789Y-84110015D01*
X119558469Y-84159379D01*
X119561623Y-84200478D01*
X119565292Y-84234413D01*
X119569513Y-84262286D01*
X119574327Y-84285198D01*
X119579773Y-84304249D01*
X119585888Y-84320540D01*
X119592712Y-84335173D01*
X119600285Y-84349249D01*
X119608645Y-84363868D01*
X119613839Y-84372974D01*
X119648104Y-84433689D01*
X118789955Y-84433689D01*
X118789955Y-84337733D01*
X118789224Y-84294370D01*
X118787272Y-84261205D01*
X118784463Y-84243424D01*
X118783221Y-84241778D01*
X118771799Y-84248662D01*
X118749084Y-84266505D01*
X118726385Y-84285879D01*
X118671800Y-84326614D01*
X118602321Y-84367617D01*
X118525270Y-84405123D01*
X118447965Y-84435364D01*
X118417113Y-84445012D01*
X118348616Y-84459578D01*
X118265764Y-84469539D01*
X118176371Y-84474583D01*
X118088248Y-84474396D01*
X118009207Y-84468666D01*
X117971511Y-84462858D01*
X117833414Y-84424797D01*
X117706113Y-84367073D01*
X117590292Y-84290211D01*
X117486637Y-84194739D01*
X117395833Y-84081179D01*
X117329031Y-83970381D01*
X117274164Y-83853625D01*
X117232163Y-83734276D01*
X117202167Y-83608283D01*
X117183311Y-83471594D01*
X117174732Y-83320158D01*
X117174006Y-83242711D01*
X117176100Y-83185934D01*
X118005217Y-83185934D01*
X118005424Y-83279002D01*
X118008337Y-83366692D01*
X118014000Y-83443772D01*
X118022455Y-83505009D01*
X118025038Y-83517350D01*
X118056840Y-83624633D01*
X118098498Y-83711658D01*
X118150363Y-83778642D01*
X118212781Y-83825805D01*
X118286100Y-83853365D01*
X118370669Y-83861541D01*
X118466835Y-83850551D01*
X118530311Y-83834829D01*
X118579454Y-83816639D01*
X118633583Y-83790791D01*
X118674244Y-83767089D01*
X118744800Y-83720721D01*
X118744800Y-82570530D01*
X118677392Y-82526962D01*
X118598867Y-82486040D01*
X118514681Y-82459389D01*
X118429557Y-82447465D01*
X118348216Y-82450722D01*
X118275380Y-82469615D01*
X118243426Y-82485184D01*
X118185501Y-82528181D01*
X118136544Y-82584953D01*
X118095390Y-82657575D01*
X118060874Y-82748121D01*
X118031833Y-82858666D01*
X118030552Y-82864533D01*
X118020381Y-82926788D01*
X118012739Y-83004594D01*
X118007670Y-83092720D01*
X118005217Y-83185934D01*
X117176100Y-83185934D01*
X117181857Y-83029895D01*
X117203802Y-82834059D01*
G36*
X118323065Y-85269163D02*
G01*
X118401772Y-85269542D01*
X118462863Y-85270333D01*
X118508817Y-85271670D01*
X118542114Y-85273683D01*
X118565236Y-85276506D01*
X118580662Y-85280269D01*
X118590871Y-85285105D01*
X118595813Y-85288822D01*
X118621457Y-85321358D01*
X118624559Y-85355138D01*
X118608711Y-85385826D01*
X118598348Y-85398089D01*
X118587196Y-85406450D01*
X118571035Y-85411657D01*
X118545642Y-85414457D01*
X118506798Y-85415596D01*
X118450280Y-85415821D01*
X118439180Y-85415822D01*
X118293244Y-85415822D01*
X118293244Y-85686756D01*
X118293148Y-85772154D01*
X118292711Y-85837864D01*
X118291712Y-85886774D01*
X118289928Y-85921773D01*
X118287137Y-85945749D01*
X118283117Y-85961593D01*
X118277645Y-85972191D01*
X118270666Y-85980267D01*
X118237734Y-86000112D01*
X118203354Y-85998548D01*
X118172176Y-85975906D01*
X118169886Y-85973100D01*
X118162429Y-85962492D01*
X118156747Y-85950081D01*
X118152601Y-85932850D01*
X118149750Y-85907784D01*
X118147954Y-85871867D01*
X118146972Y-85822083D01*
X118146564Y-85755417D01*
X118146489Y-85679589D01*
X118146489Y-85415822D01*
X118007127Y-85415822D01*
X117947322Y-85415418D01*
X117905918Y-85413840D01*
X117878748Y-85410547D01*
X117861646Y-85404992D01*
X117850443Y-85396631D01*
X117849083Y-85395178D01*
X117832725Y-85361939D01*
X117834172Y-85324362D01*
X117852978Y-85291645D01*
X117860250Y-85285298D01*
X117869627Y-85280266D01*
X117883609Y-85276396D01*
X117904696Y-85273537D01*
X117935389Y-85271535D01*
X117978189Y-85270239D01*
X118035595Y-85269498D01*
X118110110Y-85269158D01*
X118204233Y-85269068D01*
X118224260Y-85269067D01*
X118323065Y-85269163D01*
G37*
X118323065Y-85269163D02*
X118401772Y-85269542D01*
X118462863Y-85270333D01*
X118508817Y-85271670D01*
X118542114Y-85273683D01*
X118565236Y-85276506D01*
X118580662Y-85280269D01*
X118590871Y-85285105D01*
X118595813Y-85288822D01*
X118621457Y-85321358D01*
X118624559Y-85355138D01*
X118608711Y-85385826D01*
X118598348Y-85398089D01*
X118587196Y-85406450D01*
X118571035Y-85411657D01*
X118545642Y-85414457D01*
X118506798Y-85415596D01*
X118450280Y-85415821D01*
X118439180Y-85415822D01*
X118293244Y-85415822D01*
X118293244Y-85686756D01*
X118293148Y-85772154D01*
X118292711Y-85837864D01*
X118291712Y-85886774D01*
X118289928Y-85921773D01*
X118287137Y-85945749D01*
X118283117Y-85961593D01*
X118277645Y-85972191D01*
X118270666Y-85980267D01*
X118237734Y-86000112D01*
X118203354Y-85998548D01*
X118172176Y-85975906D01*
X118169886Y-85973100D01*
X118162429Y-85962492D01*
X118156747Y-85950081D01*
X118152601Y-85932850D01*
X118149750Y-85907784D01*
X118147954Y-85871867D01*
X118146972Y-85822083D01*
X118146564Y-85755417D01*
X118146489Y-85679589D01*
X118146489Y-85415822D01*
X118007127Y-85415822D01*
X117947322Y-85415418D01*
X117905918Y-85413840D01*
X117878748Y-85410547D01*
X117861646Y-85404992D01*
X117850443Y-85396631D01*
X117849083Y-85395178D01*
X117832725Y-85361939D01*
X117834172Y-85324362D01*
X117852978Y-85291645D01*
X117860250Y-85285298D01*
X117869627Y-85280266D01*
X117883609Y-85276396D01*
X117904696Y-85273537D01*
X117935389Y-85271535D01*
X117978189Y-85270239D01*
X118035595Y-85269498D01*
X118110110Y-85269158D01*
X118204233Y-85269068D01*
X118224260Y-85269067D01*
X118323065Y-85269163D01*
G36*
X107089002Y-85345055D02*
G01*
X107097170Y-85311778D01*
X107110444Y-85289759D01*
X107130026Y-85276739D01*
X107157117Y-85270457D01*
X107192918Y-85268653D01*
X107238629Y-85269066D01*
X107278111Y-85269467D01*
X107393800Y-85272259D01*
X107490689Y-85280550D01*
X107572081Y-85295232D01*
X107641277Y-85317193D01*
X107701580Y-85347322D01*
X107756292Y-85386510D01*
X107775833Y-85403532D01*
X107808250Y-85443363D01*
X107837480Y-85497413D01*
X107860009Y-85557323D01*
X107872321Y-85614739D01*
X107873600Y-85635956D01*
X107865583Y-85694769D01*
X107844101Y-85759013D01*
X107813001Y-85819821D01*
X107776134Y-85868330D01*
X107770146Y-85874182D01*
X107719421Y-85915321D01*
X107663875Y-85947435D01*
X107600304Y-85971365D01*
X107525506Y-85987953D01*
X107436278Y-85998041D01*
X107329418Y-86002469D01*
X107280472Y-86002845D01*
X107218238Y-86002545D01*
X107174472Y-86001292D01*
X107145069Y-85998554D01*
X107125921Y-85993801D01*
X107112923Y-85986501D01*
X107105955Y-85980267D01*
X107099374Y-85972694D01*
X107094212Y-85962924D01*
X107090297Y-85948340D01*
X107087457Y-85926326D01*
X107085520Y-85894264D01*
X107084492Y-85856089D01*
X107230133Y-85856089D01*
X107323266Y-85856004D01*
X107379307Y-85854396D01*
X107438001Y-85850256D01*
X107486972Y-85844464D01*
X107488462Y-85844226D01*
X107567608Y-85825090D01*
X107628998Y-85795287D01*
X107675695Y-85752878D01*
X107705365Y-85706961D01*
X107723647Y-85656026D01*
X107722229Y-85608200D01*
X107701012Y-85556933D01*
X107659511Y-85503899D01*
X107602002Y-85464600D01*
X107527250Y-85438331D01*
X107477292Y-85429035D01*
X107420584Y-85422507D01*
X107360481Y-85417782D01*
X107309361Y-85415817D01*
X107306333Y-85415808D01*
X107230133Y-85415822D01*
X107230133Y-85856089D01*
X107084492Y-85856089D01*
X107084316Y-85849536D01*
X107083672Y-85789526D01*
X107083417Y-85711617D01*
X107083378Y-85635956D01*
X107083130Y-85535041D01*
X107083183Y-85454427D01*
X107084143Y-85415822D01*
X107084740Y-85391851D01*
X107089002Y-85345055D01*
G37*
X107089002Y-85345055D02*
X107097170Y-85311778D01*
X107110444Y-85289759D01*
X107130026Y-85276739D01*
X107157117Y-85270457D01*
X107192918Y-85268653D01*
X107238629Y-85269066D01*
X107278111Y-85269467D01*
X107393800Y-85272259D01*
X107490689Y-85280550D01*
X107572081Y-85295232D01*
X107641277Y-85317193D01*
X107701580Y-85347322D01*
X107756292Y-85386510D01*
X107775833Y-85403532D01*
X107808250Y-85443363D01*
X107837480Y-85497413D01*
X107860009Y-85557323D01*
X107872321Y-85614739D01*
X107873600Y-85635956D01*
X107865583Y-85694769D01*
X107844101Y-85759013D01*
X107813001Y-85819821D01*
X107776134Y-85868330D01*
X107770146Y-85874182D01*
X107719421Y-85915321D01*
X107663875Y-85947435D01*
X107600304Y-85971365D01*
X107525506Y-85987953D01*
X107436278Y-85998041D01*
X107329418Y-86002469D01*
X107280472Y-86002845D01*
X107218238Y-86002545D01*
X107174472Y-86001292D01*
X107145069Y-85998554D01*
X107125921Y-85993801D01*
X107112923Y-85986501D01*
X107105955Y-85980267D01*
X107099374Y-85972694D01*
X107094212Y-85962924D01*
X107090297Y-85948340D01*
X107087457Y-85926326D01*
X107085520Y-85894264D01*
X107084492Y-85856089D01*
X107230133Y-85856089D01*
X107323266Y-85856004D01*
X107379307Y-85854396D01*
X107438001Y-85850256D01*
X107486972Y-85844464D01*
X107488462Y-85844226D01*
X107567608Y-85825090D01*
X107628998Y-85795287D01*
X107675695Y-85752878D01*
X107705365Y-85706961D01*
X107723647Y-85656026D01*
X107722229Y-85608200D01*
X107701012Y-85556933D01*
X107659511Y-85503899D01*
X107602002Y-85464600D01*
X107527250Y-85438331D01*
X107477292Y-85429035D01*
X107420584Y-85422507D01*
X107360481Y-85417782D01*
X107309361Y-85415817D01*
X107306333Y-85415808D01*
X107230133Y-85415822D01*
X107230133Y-85856089D01*
X107084492Y-85856089D01*
X107084316Y-85849536D01*
X107083672Y-85789526D01*
X107083417Y-85711617D01*
X107083378Y-85635956D01*
X107083130Y-85535041D01*
X107083183Y-85454427D01*
X107084143Y-85415822D01*
X107084740Y-85391851D01*
X107089002Y-85345055D01*
G36*
X117104665Y-85271034D02*
G01*
X117124255Y-85278035D01*
X117125010Y-85278377D01*
X117151613Y-85298678D01*
X117166270Y-85319561D01*
X117169138Y-85329352D01*
X117168996Y-85342361D01*
X117164961Y-85360895D01*
X117156146Y-85387257D01*
X117141669Y-85423752D01*
X117120645Y-85472687D01*
X117092188Y-85536365D01*
X117055415Y-85617093D01*
X117035175Y-85661216D01*
X116998625Y-85739985D01*
X116964315Y-85812423D01*
X116933552Y-85875880D01*
X116907648Y-85927708D01*
X116887910Y-85965259D01*
X116875650Y-85985884D01*
X116873224Y-85988733D01*
X116842183Y-86001302D01*
X116807121Y-85999619D01*
X116779000Y-85984332D01*
X116777854Y-85983089D01*
X116766668Y-85966154D01*
X116747904Y-85933170D01*
X116723875Y-85888380D01*
X116696897Y-85836032D01*
X116687201Y-85816742D01*
X116614014Y-85670150D01*
X116534240Y-85829393D01*
X116505767Y-85884415D01*
X116479350Y-85932132D01*
X116457148Y-85968893D01*
X116441319Y-85991044D01*
X116435954Y-85995741D01*
X116394257Y-86002102D01*
X116359849Y-85988733D01*
X116349728Y-85974446D01*
X116332214Y-85942692D01*
X116308735Y-85896597D01*
X116280720Y-85839285D01*
X116249599Y-85773880D01*
X116216799Y-85703507D01*
X116183750Y-85631291D01*
X116151881Y-85560355D01*
X116122619Y-85493825D01*
X116097395Y-85434826D01*
X116077636Y-85386481D01*
X116064772Y-85351915D01*
X116060231Y-85334253D01*
X116060277Y-85333613D01*
X116071326Y-85311388D01*
X116093410Y-85288753D01*
X116094710Y-85287768D01*
X116121853Y-85272425D01*
X116146958Y-85272574D01*
X116156368Y-85275466D01*
X116167834Y-85281718D01*
X116180010Y-85294014D01*
X116194357Y-85314908D01*
X116212336Y-85346949D01*
X116235407Y-85392688D01*
X116265030Y-85454677D01*
X116291745Y-85511898D01*
X116322480Y-85578226D01*
X116350021Y-85637874D01*
X116372938Y-85687725D01*
X116389798Y-85724664D01*
X116399173Y-85745573D01*
X116400540Y-85748845D01*
X116406689Y-85743497D01*
X116420822Y-85721109D01*
X116441057Y-85684946D01*
X116465515Y-85638277D01*
X116475248Y-85619022D01*
X116508217Y-85554004D01*
X116533643Y-85506654D01*
X116553612Y-85474219D01*
X116570210Y-85453946D01*
X116585524Y-85443082D01*
X116601640Y-85438875D01*
X116612143Y-85438400D01*
X116630670Y-85440042D01*
X116646904Y-85446831D01*
X116663035Y-85461566D01*
X116681251Y-85487044D01*
X116703739Y-85526061D01*
X116732689Y-85581414D01*
X116748662Y-85612903D01*
X116774570Y-85663087D01*
X116797167Y-85704704D01*
X116814458Y-85734242D01*
X116824450Y-85748189D01*
X116825809Y-85748770D01*
X116832261Y-85737793D01*
X116846708Y-85709290D01*
X116867703Y-85666244D01*
X116893797Y-85611638D01*
X116923546Y-85548454D01*
X116938180Y-85517071D01*
X116976250Y-85436078D01*
X117006905Y-85373756D01*
X117031737Y-85328071D01*
X117052337Y-85296989D01*
X117070298Y-85278478D01*
X117087210Y-85270504D01*
X117104665Y-85271034D01*
G37*
X117104665Y-85271034D02*
X117124255Y-85278035D01*
X117125010Y-85278377D01*
X117151613Y-85298678D01*
X117166270Y-85319561D01*
X117169138Y-85329352D01*
X117168996Y-85342361D01*
X117164961Y-85360895D01*
X117156146Y-85387257D01*
X117141669Y-85423752D01*
X117120645Y-85472687D01*
X117092188Y-85536365D01*
X117055415Y-85617093D01*
X117035175Y-85661216D01*
X116998625Y-85739985D01*
X116964315Y-85812423D01*
X116933552Y-85875880D01*
X116907648Y-85927708D01*
X116887910Y-85965259D01*
X116875650Y-85985884D01*
X116873224Y-85988733D01*
X116842183Y-86001302D01*
X116807121Y-85999619D01*
X116779000Y-85984332D01*
X116777854Y-85983089D01*
X116766668Y-85966154D01*
X116747904Y-85933170D01*
X116723875Y-85888380D01*
X116696897Y-85836032D01*
X116687201Y-85816742D01*
X116614014Y-85670150D01*
X116534240Y-85829393D01*
X116505767Y-85884415D01*
X116479350Y-85932132D01*
X116457148Y-85968893D01*
X116441319Y-85991044D01*
X116435954Y-85995741D01*
X116394257Y-86002102D01*
X116359849Y-85988733D01*
X116349728Y-85974446D01*
X116332214Y-85942692D01*
X116308735Y-85896597D01*
X116280720Y-85839285D01*
X116249599Y-85773880D01*
X116216799Y-85703507D01*
X116183750Y-85631291D01*
X116151881Y-85560355D01*
X116122619Y-85493825D01*
X116097395Y-85434826D01*
X116077636Y-85386481D01*
X116064772Y-85351915D01*
X116060231Y-85334253D01*
X116060277Y-85333613D01*
X116071326Y-85311388D01*
X116093410Y-85288753D01*
X116094710Y-85287768D01*
X116121853Y-85272425D01*
X116146958Y-85272574D01*
X116156368Y-85275466D01*
X116167834Y-85281718D01*
X116180010Y-85294014D01*
X116194357Y-85314908D01*
X116212336Y-85346949D01*
X116235407Y-85392688D01*
X116265030Y-85454677D01*
X116291745Y-85511898D01*
X116322480Y-85578226D01*
X116350021Y-85637874D01*
X116372938Y-85687725D01*
X116389798Y-85724664D01*
X116399173Y-85745573D01*
X116400540Y-85748845D01*
X116406689Y-85743497D01*
X116420822Y-85721109D01*
X116441057Y-85684946D01*
X116465515Y-85638277D01*
X116475248Y-85619022D01*
X116508217Y-85554004D01*
X116533643Y-85506654D01*
X116553612Y-85474219D01*
X116570210Y-85453946D01*
X116585524Y-85443082D01*
X116601640Y-85438875D01*
X116612143Y-85438400D01*
X116630670Y-85440042D01*
X116646904Y-85446831D01*
X116663035Y-85461566D01*
X116681251Y-85487044D01*
X116703739Y-85526061D01*
X116732689Y-85581414D01*
X116748662Y-85612903D01*
X116774570Y-85663087D01*
X116797167Y-85704704D01*
X116814458Y-85734242D01*
X116824450Y-85748189D01*
X116825809Y-85748770D01*
X116832261Y-85737793D01*
X116846708Y-85709290D01*
X116867703Y-85666244D01*
X116893797Y-85611638D01*
X116923546Y-85548454D01*
X116938180Y-85517071D01*
X116976250Y-85436078D01*
X117006905Y-85373756D01*
X117031737Y-85328071D01*
X117052337Y-85296989D01*
X117070298Y-85278478D01*
X117087210Y-85270504D01*
X117104665Y-85271034D01*
G36*
X110413600Y-80489054D02*
G01*
X110424465Y-80602993D01*
X110456082Y-80710616D01*
X110506985Y-80809615D01*
X110575707Y-80897684D01*
X110660781Y-80972516D01*
X110757768Y-81030384D01*
X110864036Y-81070005D01*
X110971050Y-81088573D01*
X111076700Y-81087434D01*
X111178875Y-81067930D01*
X111275466Y-81031406D01*
X111364362Y-80979205D01*
X111443454Y-80912673D01*
X111510631Y-80833152D01*
X111563783Y-80741987D01*
X111600801Y-80640523D01*
X111619573Y-80530102D01*
X111621511Y-80480206D01*
X111621511Y-80392267D01*
X111673440Y-80392267D01*
X111709747Y-80395111D01*
X111736645Y-80406911D01*
X111763751Y-80430649D01*
X111802133Y-80469031D01*
X111802133Y-82660602D01*
X111802124Y-82922739D01*
X111802092Y-83163241D01*
X111802028Y-83383048D01*
X111801924Y-83583101D01*
X111801773Y-83764344D01*
X111801566Y-83927716D01*
X111801294Y-84074160D01*
X111800950Y-84204617D01*
X111800526Y-84320029D01*
X111800013Y-84421338D01*
X111799403Y-84509484D01*
X111798688Y-84585410D01*
X111797860Y-84650057D01*
X111796911Y-84704367D01*
X111795833Y-84749280D01*
X111794617Y-84785740D01*
X111793255Y-84814687D01*
X111791739Y-84837063D01*
X111790062Y-84853809D01*
X111788214Y-84865868D01*
X111786187Y-84874180D01*
X111783975Y-84879687D01*
X111782892Y-84881537D01*
X111778729Y-84888549D01*
X111775195Y-84894996D01*
X111771365Y-84900900D01*
X111766318Y-84906286D01*
X111759129Y-84911178D01*
X111748877Y-84915598D01*
X111734636Y-84919572D01*
X111715486Y-84923121D01*
X111690501Y-84926270D01*
X111658760Y-84929042D01*
X111619338Y-84931461D01*
X111571314Y-84933551D01*
X111513763Y-84935335D01*
X111445763Y-84936837D01*
X111366390Y-84938080D01*
X111274721Y-84939089D01*
X111169834Y-84939885D01*
X111050804Y-84940494D01*
X110916710Y-84940939D01*
X110766627Y-84941243D01*
X110599633Y-84941430D01*
X110414804Y-84941524D01*
X110211217Y-84941548D01*
X109987950Y-84941525D01*
X109744078Y-84941480D01*
X109478679Y-84941437D01*
X109440296Y-84941432D01*
X109173318Y-84941389D01*
X108927998Y-84941318D01*
X108703417Y-84941213D01*
X108498655Y-84941066D01*
X108312794Y-84940869D01*
X108144912Y-84940616D01*
X107994092Y-84940300D01*
X107859413Y-84939913D01*
X107739956Y-84939447D01*
X107634801Y-84938897D01*
X107543029Y-84938253D01*
X107463721Y-84937511D01*
X107395957Y-84936661D01*
X107338818Y-84935697D01*
X107291383Y-84934611D01*
X107252734Y-84933397D01*
X107221951Y-84932047D01*
X107198115Y-84930555D01*
X107180306Y-84928911D01*
X107167605Y-84927111D01*
X107159092Y-84925145D01*
X107154734Y-84923477D01*
X107146272Y-84919906D01*
X107138503Y-84917270D01*
X107131398Y-84914634D01*
X107124927Y-84911062D01*
X107119061Y-84905621D01*
X107113771Y-84897375D01*
X107109026Y-84885390D01*
X107104798Y-84868731D01*
X107101057Y-84846463D01*
X107097773Y-84817652D01*
X107094917Y-84781363D01*
X107092460Y-84736661D01*
X107090371Y-84682611D01*
X107088622Y-84618279D01*
X107087183Y-84542730D01*
X107086024Y-84455030D01*
X107085117Y-84354243D01*
X107084431Y-84239434D01*
X107083937Y-84109670D01*
X107083605Y-83964015D01*
X107083407Y-83801535D01*
X107083313Y-83621295D01*
X107083292Y-83422360D01*
X107083315Y-83203796D01*
X107083354Y-82964668D01*
X107083378Y-82704040D01*
X107083378Y-82661889D01*
X107083364Y-82398992D01*
X107083339Y-82157732D01*
X107083329Y-81937165D01*
X107083358Y-81736352D01*
X107083452Y-81554349D01*
X107083638Y-81390216D01*
X107083941Y-81243011D01*
X107084386Y-81111792D01*
X107084966Y-81001867D01*
X107387803Y-81001867D01*
X107427593Y-81059711D01*
X107438764Y-81075479D01*
X107448834Y-81089441D01*
X107457862Y-81102784D01*
X107465903Y-81116693D01*
X107473014Y-81132356D01*
X107479253Y-81150958D01*
X107484675Y-81173686D01*
X107489338Y-81201727D01*
X107493299Y-81236267D01*
X107496615Y-81278492D01*
X107499341Y-81329589D01*
X107501536Y-81390744D01*
X107503255Y-81463144D01*
X107504556Y-81547975D01*
X107505495Y-81646422D01*
X107506130Y-81759674D01*
X107506516Y-81888916D01*
X107506712Y-82035334D01*
X107506773Y-82200116D01*
X107506757Y-82384447D01*
X107506720Y-82589513D01*
X107506711Y-82712133D01*
X107506735Y-82929082D01*
X107506769Y-83124642D01*
X107506757Y-83299999D01*
X107506642Y-83456341D01*
X107506370Y-83594857D01*
X107505882Y-83716734D01*
X107505124Y-83823160D01*
X107504038Y-83915322D01*
X107502569Y-83994409D01*
X107500660Y-84061608D01*
X107498256Y-84118107D01*
X107495299Y-84165093D01*
X107491734Y-84203755D01*
X107487505Y-84235280D01*
X107482554Y-84260855D01*
X107476827Y-84281670D01*
X107470267Y-84298911D01*
X107462817Y-84313765D01*
X107454421Y-84327422D01*
X107445024Y-84341069D01*
X107434568Y-84355893D01*
X107428477Y-84364783D01*
X107389704Y-84422400D01*
X107921268Y-84422400D01*
X108044517Y-84422365D01*
X108147013Y-84422215D01*
X108230580Y-84421878D01*
X108297044Y-84421286D01*
X108348229Y-84420367D01*
X108385959Y-84419051D01*
X108412060Y-84417269D01*
X108428356Y-84414951D01*
X108436672Y-84412026D01*
X108438832Y-84408424D01*
X108436661Y-84404075D01*
X108435465Y-84402645D01*
X108410315Y-84365573D01*
X108384417Y-84312772D01*
X108360808Y-84250770D01*
X108352539Y-84224357D01*
X108347922Y-84206416D01*
X108344021Y-84185355D01*
X108340752Y-84159089D01*
X108338034Y-84125532D01*
X108335785Y-84082599D01*
X108333923Y-84028204D01*
X108332364Y-83960262D01*
X108331028Y-83876688D01*
X108329831Y-83775395D01*
X108328692Y-83654300D01*
X108328315Y-83609600D01*
X108327298Y-83484449D01*
X108326540Y-83380082D01*
X108326097Y-83294707D01*
X108326030Y-83226533D01*
X108326395Y-83173765D01*
X108327252Y-83134614D01*
X108328659Y-83107285D01*
X108330675Y-83089986D01*
X108333357Y-83080926D01*
X108336764Y-83078312D01*
X108340956Y-83080351D01*
X108345429Y-83084667D01*
X108355784Y-83097602D01*
X108377842Y-83126676D01*
X108410043Y-83169759D01*
X108450826Y-83224718D01*
X108498630Y-83289423D01*
X108551895Y-83361742D01*
X108609060Y-83439544D01*
X108668563Y-83520698D01*
X108728845Y-83603072D01*
X108788345Y-83684536D01*
X108845502Y-83762957D01*
X108898755Y-83836204D01*
X108946543Y-83902147D01*
X108987307Y-83958654D01*
X109019484Y-84003593D01*
X109041515Y-84034834D01*
X109046083Y-84041466D01*
X109069004Y-84078369D01*
X109095812Y-84126359D01*
X109121211Y-84175897D01*
X109124432Y-84182577D01*
X109146110Y-84230772D01*
X109158696Y-84268334D01*
X109164426Y-84304160D01*
X109165544Y-84346200D01*
X109164910Y-84422400D01*
X110319349Y-84422400D01*
X110228185Y-84328669D01*
X110181388Y-84278775D01*
X110131101Y-84222295D01*
X110085056Y-84168026D01*
X110064631Y-84142673D01*
X110034193Y-84103128D01*
X109994138Y-84049916D01*
X109945639Y-83984667D01*
X109889865Y-83909011D01*
X109827989Y-83824577D01*
X109761181Y-83732994D01*
X109690613Y-83635892D01*
X109617455Y-83534901D01*
X109542879Y-83431650D01*
X109468056Y-83327768D01*
X109394157Y-83224885D01*
X109322354Y-83124631D01*
X109253816Y-83028636D01*
X109189716Y-82938527D01*
X109131225Y-82855936D01*
X109079514Y-82782492D01*
X109035753Y-82719824D01*
X109001115Y-82669561D01*
X108976770Y-82633334D01*
X108963889Y-82612771D01*
X108962131Y-82608668D01*
X108970090Y-82597342D01*
X108990885Y-82570162D01*
X109023153Y-82528829D01*
X109065530Y-82475044D01*
X109116653Y-82410506D01*
X109175159Y-82336918D01*
X109239686Y-82255978D01*
X109308869Y-82169388D01*
X109381347Y-82078848D01*
X109455754Y-81986060D01*
X109515483Y-81911702D01*
X110526489Y-81911702D01*
X110532398Y-81924659D01*
X110546728Y-81946908D01*
X110547775Y-81948391D01*
X110566562Y-81978544D01*
X110586209Y-82015375D01*
X110590108Y-82023511D01*
X110593644Y-82031940D01*
X110596770Y-82042059D01*
X110599514Y-82055260D01*
X110601908Y-82072938D01*
X110603981Y-82096484D01*
X110605765Y-82127293D01*
X110607288Y-82166757D01*
X110608581Y-82216269D01*
X110609674Y-82277223D01*
X110610597Y-82351011D01*
X110611381Y-82439028D01*
X110612055Y-82542665D01*
X110612650Y-82663316D01*
X110613195Y-82802374D01*
X110613721Y-82961232D01*
X110614255Y-83140089D01*
X110614794Y-83325207D01*
X110615228Y-83489145D01*
X110615491Y-83633303D01*
X110615516Y-83759079D01*
X110615235Y-83867871D01*
X110614581Y-83961077D01*
X110613486Y-84040097D01*
X110611882Y-84106328D01*
X110609703Y-84161170D01*
X110606881Y-84206021D01*
X110603349Y-84242278D01*
X110599039Y-84271341D01*
X110593883Y-84294609D01*
X110587815Y-84313479D01*
X110580767Y-84329351D01*
X110572671Y-84343622D01*
X110563460Y-84357691D01*
X110554960Y-84370158D01*
X110537824Y-84396452D01*
X110527678Y-84414037D01*
X110526489Y-84417257D01*
X110537396Y-84418334D01*
X110568589Y-84419335D01*
X110617777Y-84420235D01*
X110682667Y-84421010D01*
X110760970Y-84421637D01*
X110850393Y-84422091D01*
X110948644Y-84422349D01*
X111017555Y-84422400D01*
X111122548Y-84422180D01*
X111219390Y-84421548D01*
X111305893Y-84420549D01*
X111379868Y-84419227D01*
X111439126Y-84417626D01*
X111481480Y-84415791D01*
X111504740Y-84413765D01*
X111508622Y-84412493D01*
X111500924Y-84397591D01*
X111492926Y-84389560D01*
X111479754Y-84372434D01*
X111462515Y-84342183D01*
X111450593Y-84317622D01*
X111423955Y-84258711D01*
X111420880Y-83081845D01*
X111417805Y-81904978D01*
X110972147Y-81904978D01*
X110874330Y-81905142D01*
X110783936Y-81905611D01*
X110703370Y-81906347D01*
X110635038Y-81907316D01*
X110581344Y-81908480D01*
X110544695Y-81909803D01*
X110527496Y-81911249D01*
X110526489Y-81911702D01*
X109515483Y-81911702D01*
X109530730Y-81892722D01*
X109604910Y-81800537D01*
X109676931Y-81711204D01*
X109745431Y-81626424D01*
X109809045Y-81547898D01*
X109866412Y-81477326D01*
X109916167Y-81416409D01*
X109956948Y-81366847D01*
X109974112Y-81346178D01*
X110060404Y-81245516D01*
X110137003Y-81162259D01*
X110205817Y-81094438D01*
X110268752Y-81040089D01*
X110278133Y-81032722D01*
X110317644Y-81002117D01*
X109185884Y-81001867D01*
X109191173Y-81049844D01*
X109187870Y-81107188D01*
X109166339Y-81175463D01*
X109126365Y-81255212D01*
X109081057Y-81327495D01*
X109064839Y-81350140D01*
X109036786Y-81387696D01*
X108998570Y-81438021D01*
X108951863Y-81498973D01*
X108898339Y-81568411D01*
X108839669Y-81644194D01*
X108777525Y-81724180D01*
X108713579Y-81806228D01*
X108649505Y-81888196D01*
X108586973Y-81967943D01*
X108527657Y-82043327D01*
X108473229Y-82112207D01*
X108425361Y-82172442D01*
X108385725Y-82221889D01*
X108355994Y-82258408D01*
X108337839Y-82279858D01*
X108334780Y-82283156D01*
X108331921Y-82275149D01*
X108329707Y-82244855D01*
X108328143Y-82192556D01*
X108327233Y-82118531D01*
X108326980Y-82023063D01*
X108327387Y-81906434D01*
X108328296Y-81786445D01*
X108329618Y-81654333D01*
X108331143Y-81542594D01*
X108333119Y-81449025D01*
X108335794Y-81371419D01*
X108339418Y-81307574D01*
X108344239Y-81255283D01*
X108350506Y-81212344D01*
X108358468Y-81176551D01*
X108368373Y-81145700D01*
X108380469Y-81117586D01*
X108395007Y-81090005D01*
X108409689Y-81064966D01*
X108447686Y-81001867D01*
X107387803Y-81001867D01*
X107084966Y-81001867D01*
X107084999Y-80995617D01*
X107085805Y-80893544D01*
X107086830Y-80804633D01*
X107088100Y-80727941D01*
X107089640Y-80662527D01*
X107091476Y-80607449D01*
X107093633Y-80561765D01*
X107096137Y-80524534D01*
X107099013Y-80494813D01*
X107102287Y-80471662D01*
X107105985Y-80454139D01*
X107110131Y-80441301D01*
X107114753Y-80432208D01*
X107119874Y-80425918D01*
X107125522Y-80421488D01*
X107131721Y-80417978D01*
X107138496Y-80414445D01*
X107144492Y-80410876D01*
X107149725Y-80408300D01*
X107157901Y-80405972D01*
X107170114Y-80403878D01*
X107187459Y-80402007D01*
X107211031Y-80400347D01*
X107241923Y-80398884D01*
X107281232Y-80397608D01*
X107330050Y-80396504D01*
X107389473Y-80395561D01*
X107460596Y-80394767D01*
X107544512Y-80394109D01*
X107642317Y-80393575D01*
X107755106Y-80393153D01*
X107883971Y-80392829D01*
X108030009Y-80392592D01*
X108194314Y-80392430D01*
X108377980Y-80392330D01*
X108582103Y-80392280D01*
X108793247Y-80392267D01*
X110413600Y-80392267D01*
X110413600Y-80489054D01*
G37*
X110413600Y-80489054D02*
X110424465Y-80602993D01*
X110456082Y-80710616D01*
X110506985Y-80809615D01*
X110575707Y-80897684D01*
X110660781Y-80972516D01*
X110757768Y-81030384D01*
X110864036Y-81070005D01*
X110971050Y-81088573D01*
X111076700Y-81087434D01*
X111178875Y-81067930D01*
X111275466Y-81031406D01*
X111364362Y-80979205D01*
X111443454Y-80912673D01*
X111510631Y-80833152D01*
X111563783Y-80741987D01*
X111600801Y-80640523D01*
X111619573Y-80530102D01*
X111621511Y-80480206D01*
X111621511Y-80392267D01*
X111673440Y-80392267D01*
X111709747Y-80395111D01*
X111736645Y-80406911D01*
X111763751Y-80430649D01*
X111802133Y-80469031D01*
X111802133Y-82660602D01*
X111802124Y-82922739D01*
X111802092Y-83163241D01*
X111802028Y-83383048D01*
X111801924Y-83583101D01*
X111801773Y-83764344D01*
X111801566Y-83927716D01*
X111801294Y-84074160D01*
X111800950Y-84204617D01*
X111800526Y-84320029D01*
X111800013Y-84421338D01*
X111799403Y-84509484D01*
X111798688Y-84585410D01*
X111797860Y-84650057D01*
X111796911Y-84704367D01*
X111795833Y-84749280D01*
X111794617Y-84785740D01*
X111793255Y-84814687D01*
X111791739Y-84837063D01*
X111790062Y-84853809D01*
X111788214Y-84865868D01*
X111786187Y-84874180D01*
X111783975Y-84879687D01*
X111782892Y-84881537D01*
X111778729Y-84888549D01*
X111775195Y-84894996D01*
X111771365Y-84900900D01*
X111766318Y-84906286D01*
X111759129Y-84911178D01*
X111748877Y-84915598D01*
X111734636Y-84919572D01*
X111715486Y-84923121D01*
X111690501Y-84926270D01*
X111658760Y-84929042D01*
X111619338Y-84931461D01*
X111571314Y-84933551D01*
X111513763Y-84935335D01*
X111445763Y-84936837D01*
X111366390Y-84938080D01*
X111274721Y-84939089D01*
X111169834Y-84939885D01*
X111050804Y-84940494D01*
X110916710Y-84940939D01*
X110766627Y-84941243D01*
X110599633Y-84941430D01*
X110414804Y-84941524D01*
X110211217Y-84941548D01*
X109987950Y-84941525D01*
X109744078Y-84941480D01*
X109478679Y-84941437D01*
X109440296Y-84941432D01*
X109173318Y-84941389D01*
X108927998Y-84941318D01*
X108703417Y-84941213D01*
X108498655Y-84941066D01*
X108312794Y-84940869D01*
X108144912Y-84940616D01*
X107994092Y-84940300D01*
X107859413Y-84939913D01*
X107739956Y-84939447D01*
X107634801Y-84938897D01*
X107543029Y-84938253D01*
X107463721Y-84937511D01*
X107395957Y-84936661D01*
X107338818Y-84935697D01*
X107291383Y-84934611D01*
X107252734Y-84933397D01*
X107221951Y-84932047D01*
X107198115Y-84930555D01*
X107180306Y-84928911D01*
X107167605Y-84927111D01*
X107159092Y-84925145D01*
X107154734Y-84923477D01*
X107146272Y-84919906D01*
X107138503Y-84917270D01*
X107131398Y-84914634D01*
X107124927Y-84911062D01*
X107119061Y-84905621D01*
X107113771Y-84897375D01*
X107109026Y-84885390D01*
X107104798Y-84868731D01*
X107101057Y-84846463D01*
X107097773Y-84817652D01*
X107094917Y-84781363D01*
X107092460Y-84736661D01*
X107090371Y-84682611D01*
X107088622Y-84618279D01*
X107087183Y-84542730D01*
X107086024Y-84455030D01*
X107085117Y-84354243D01*
X107084431Y-84239434D01*
X107083937Y-84109670D01*
X107083605Y-83964015D01*
X107083407Y-83801535D01*
X107083313Y-83621295D01*
X107083292Y-83422360D01*
X107083315Y-83203796D01*
X107083354Y-82964668D01*
X107083378Y-82704040D01*
X107083378Y-82661889D01*
X107083364Y-82398992D01*
X107083339Y-82157732D01*
X107083329Y-81937165D01*
X107083358Y-81736352D01*
X107083452Y-81554349D01*
X107083638Y-81390216D01*
X107083941Y-81243011D01*
X107084386Y-81111792D01*
X107084966Y-81001867D01*
X107387803Y-81001867D01*
X107427593Y-81059711D01*
X107438764Y-81075479D01*
X107448834Y-81089441D01*
X107457862Y-81102784D01*
X107465903Y-81116693D01*
X107473014Y-81132356D01*
X107479253Y-81150958D01*
X107484675Y-81173686D01*
X107489338Y-81201727D01*
X107493299Y-81236267D01*
X107496615Y-81278492D01*
X107499341Y-81329589D01*
X107501536Y-81390744D01*
X107503255Y-81463144D01*
X107504556Y-81547975D01*
X107505495Y-81646422D01*
X107506130Y-81759674D01*
X107506516Y-81888916D01*
X107506712Y-82035334D01*
X107506773Y-82200116D01*
X107506757Y-82384447D01*
X107506720Y-82589513D01*
X107506711Y-82712133D01*
X107506735Y-82929082D01*
X107506769Y-83124642D01*
X107506757Y-83299999D01*
X107506642Y-83456341D01*
X107506370Y-83594857D01*
X107505882Y-83716734D01*
X107505124Y-83823160D01*
X107504038Y-83915322D01*
X107502569Y-83994409D01*
X107500660Y-84061608D01*
X107498256Y-84118107D01*
X107495299Y-84165093D01*
X107491734Y-84203755D01*
X107487505Y-84235280D01*
X107482554Y-84260855D01*
X107476827Y-84281670D01*
X107470267Y-84298911D01*
X107462817Y-84313765D01*
X107454421Y-84327422D01*
X107445024Y-84341069D01*
X107434568Y-84355893D01*
X107428477Y-84364783D01*
X107389704Y-84422400D01*
X107921268Y-84422400D01*
X108044517Y-84422365D01*
X108147013Y-84422215D01*
X108230580Y-84421878D01*
X108297044Y-84421286D01*
X108348229Y-84420367D01*
X108385959Y-84419051D01*
X108412060Y-84417269D01*
X108428356Y-84414951D01*
X108436672Y-84412026D01*
X108438832Y-84408424D01*
X108436661Y-84404075D01*
X108435465Y-84402645D01*
X108410315Y-84365573D01*
X108384417Y-84312772D01*
X108360808Y-84250770D01*
X108352539Y-84224357D01*
X108347922Y-84206416D01*
X108344021Y-84185355D01*
X108340752Y-84159089D01*
X108338034Y-84125532D01*
X108335785Y-84082599D01*
X108333923Y-84028204D01*
X108332364Y-83960262D01*
X108331028Y-83876688D01*
X108329831Y-83775395D01*
X108328692Y-83654300D01*
X108328315Y-83609600D01*
X108327298Y-83484449D01*
X108326540Y-83380082D01*
X108326097Y-83294707D01*
X108326030Y-83226533D01*
X108326395Y-83173765D01*
X108327252Y-83134614D01*
X108328659Y-83107285D01*
X108330675Y-83089986D01*
X108333357Y-83080926D01*
X108336764Y-83078312D01*
X108340956Y-83080351D01*
X108345429Y-83084667D01*
X108355784Y-83097602D01*
X108377842Y-83126676D01*
X108410043Y-83169759D01*
X108450826Y-83224718D01*
X108498630Y-83289423D01*
X108551895Y-83361742D01*
X108609060Y-83439544D01*
X108668563Y-83520698D01*
X108728845Y-83603072D01*
X108788345Y-83684536D01*
X108845502Y-83762957D01*
X108898755Y-83836204D01*
X108946543Y-83902147D01*
X108987307Y-83958654D01*
X109019484Y-84003593D01*
X109041515Y-84034834D01*
X109046083Y-84041466D01*
X109069004Y-84078369D01*
X109095812Y-84126359D01*
X109121211Y-84175897D01*
X109124432Y-84182577D01*
X109146110Y-84230772D01*
X109158696Y-84268334D01*
X109164426Y-84304160D01*
X109165544Y-84346200D01*
X109164910Y-84422400D01*
X110319349Y-84422400D01*
X110228185Y-84328669D01*
X110181388Y-84278775D01*
X110131101Y-84222295D01*
X110085056Y-84168026D01*
X110064631Y-84142673D01*
X110034193Y-84103128D01*
X109994138Y-84049916D01*
X109945639Y-83984667D01*
X109889865Y-83909011D01*
X109827989Y-83824577D01*
X109761181Y-83732994D01*
X109690613Y-83635892D01*
X109617455Y-83534901D01*
X109542879Y-83431650D01*
X109468056Y-83327768D01*
X109394157Y-83224885D01*
X109322354Y-83124631D01*
X109253816Y-83028636D01*
X109189716Y-82938527D01*
X109131225Y-82855936D01*
X109079514Y-82782492D01*
X109035753Y-82719824D01*
X109001115Y-82669561D01*
X108976770Y-82633334D01*
X108963889Y-82612771D01*
X108962131Y-82608668D01*
X108970090Y-82597342D01*
X108990885Y-82570162D01*
X109023153Y-82528829D01*
X109065530Y-82475044D01*
X109116653Y-82410506D01*
X109175159Y-82336918D01*
X109239686Y-82255978D01*
X109308869Y-82169388D01*
X109381347Y-82078848D01*
X109455754Y-81986060D01*
X109515483Y-81911702D01*
X110526489Y-81911702D01*
X110532398Y-81924659D01*
X110546728Y-81946908D01*
X110547775Y-81948391D01*
X110566562Y-81978544D01*
X110586209Y-82015375D01*
X110590108Y-82023511D01*
X110593644Y-82031940D01*
X110596770Y-82042059D01*
X110599514Y-82055260D01*
X110601908Y-82072938D01*
X110603981Y-82096484D01*
X110605765Y-82127293D01*
X110607288Y-82166757D01*
X110608581Y-82216269D01*
X110609674Y-82277223D01*
X110610597Y-82351011D01*
X110611381Y-82439028D01*
X110612055Y-82542665D01*
X110612650Y-82663316D01*
X110613195Y-82802374D01*
X110613721Y-82961232D01*
X110614255Y-83140089D01*
X110614794Y-83325207D01*
X110615228Y-83489145D01*
X110615491Y-83633303D01*
X110615516Y-83759079D01*
X110615235Y-83867871D01*
X110614581Y-83961077D01*
X110613486Y-84040097D01*
X110611882Y-84106328D01*
X110609703Y-84161170D01*
X110606881Y-84206021D01*
X110603349Y-84242278D01*
X110599039Y-84271341D01*
X110593883Y-84294609D01*
X110587815Y-84313479D01*
X110580767Y-84329351D01*
X110572671Y-84343622D01*
X110563460Y-84357691D01*
X110554960Y-84370158D01*
X110537824Y-84396452D01*
X110527678Y-84414037D01*
X110526489Y-84417257D01*
X110537396Y-84418334D01*
X110568589Y-84419335D01*
X110617777Y-84420235D01*
X110682667Y-84421010D01*
X110760970Y-84421637D01*
X110850393Y-84422091D01*
X110948644Y-84422349D01*
X111017555Y-84422400D01*
X111122548Y-84422180D01*
X111219390Y-84421548D01*
X111305893Y-84420549D01*
X111379868Y-84419227D01*
X111439126Y-84417626D01*
X111481480Y-84415791D01*
X111504740Y-84413765D01*
X111508622Y-84412493D01*
X111500924Y-84397591D01*
X111492926Y-84389560D01*
X111479754Y-84372434D01*
X111462515Y-84342183D01*
X111450593Y-84317622D01*
X111423955Y-84258711D01*
X111420880Y-83081845D01*
X111417805Y-81904978D01*
X110972147Y-81904978D01*
X110874330Y-81905142D01*
X110783936Y-81905611D01*
X110703370Y-81906347D01*
X110635038Y-81907316D01*
X110581344Y-81908480D01*
X110544695Y-81909803D01*
X110527496Y-81911249D01*
X110526489Y-81911702D01*
X109515483Y-81911702D01*
X109530730Y-81892722D01*
X109604910Y-81800537D01*
X109676931Y-81711204D01*
X109745431Y-81626424D01*
X109809045Y-81547898D01*
X109866412Y-81477326D01*
X109916167Y-81416409D01*
X109956948Y-81366847D01*
X109974112Y-81346178D01*
X110060404Y-81245516D01*
X110137003Y-81162259D01*
X110205817Y-81094438D01*
X110268752Y-81040089D01*
X110278133Y-81032722D01*
X110317644Y-81002117D01*
X109185884Y-81001867D01*
X109191173Y-81049844D01*
X109187870Y-81107188D01*
X109166339Y-81175463D01*
X109126365Y-81255212D01*
X109081057Y-81327495D01*
X109064839Y-81350140D01*
X109036786Y-81387696D01*
X108998570Y-81438021D01*
X108951863Y-81498973D01*
X108898339Y-81568411D01*
X108839669Y-81644194D01*
X108777525Y-81724180D01*
X108713579Y-81806228D01*
X108649505Y-81888196D01*
X108586973Y-81967943D01*
X108527657Y-82043327D01*
X108473229Y-82112207D01*
X108425361Y-82172442D01*
X108385725Y-82221889D01*
X108355994Y-82258408D01*
X108337839Y-82279858D01*
X108334780Y-82283156D01*
X108331921Y-82275149D01*
X108329707Y-82244855D01*
X108328143Y-82192556D01*
X108327233Y-82118531D01*
X108326980Y-82023063D01*
X108327387Y-81906434D01*
X108328296Y-81786445D01*
X108329618Y-81654333D01*
X108331143Y-81542594D01*
X108333119Y-81449025D01*
X108335794Y-81371419D01*
X108339418Y-81307574D01*
X108344239Y-81255283D01*
X108350506Y-81212344D01*
X108358468Y-81176551D01*
X108368373Y-81145700D01*
X108380469Y-81117586D01*
X108395007Y-81090005D01*
X108409689Y-81064966D01*
X108447686Y-81001867D01*
X107387803Y-81001867D01*
X107084966Y-81001867D01*
X107084999Y-80995617D01*
X107085805Y-80893544D01*
X107086830Y-80804633D01*
X107088100Y-80727941D01*
X107089640Y-80662527D01*
X107091476Y-80607449D01*
X107093633Y-80561765D01*
X107096137Y-80524534D01*
X107099013Y-80494813D01*
X107102287Y-80471662D01*
X107105985Y-80454139D01*
X107110131Y-80441301D01*
X107114753Y-80432208D01*
X107119874Y-80425918D01*
X107125522Y-80421488D01*
X107131721Y-80417978D01*
X107138496Y-80414445D01*
X107144492Y-80410876D01*
X107149725Y-80408300D01*
X107157901Y-80405972D01*
X107170114Y-80403878D01*
X107187459Y-80402007D01*
X107211031Y-80400347D01*
X107241923Y-80398884D01*
X107281232Y-80397608D01*
X107330050Y-80396504D01*
X107389473Y-80395561D01*
X107460596Y-80394767D01*
X107544512Y-80394109D01*
X107642317Y-80393575D01*
X107755106Y-80393153D01*
X107883971Y-80392829D01*
X108030009Y-80392592D01*
X108194314Y-80392430D01*
X108377980Y-80392330D01*
X108582103Y-80392280D01*
X108793247Y-80392267D01*
X110413600Y-80392267D01*
X110413600Y-80489054D01*
G36*
X111086957Y-80026571D02*
G01*
X111183232Y-80050809D01*
X111269816Y-80093641D01*
X111344627Y-80153419D01*
X111405582Y-80228494D01*
X111450601Y-80317220D01*
X111476864Y-80413530D01*
X111482714Y-80510795D01*
X111467860Y-80604654D01*
X111434160Y-80692511D01*
X111383472Y-80771770D01*
X111317655Y-80839836D01*
X111238566Y-80894112D01*
X111148066Y-80932002D01*
X111096800Y-80944426D01*
X111052302Y-80951947D01*
X111018001Y-80954919D01*
X110985040Y-80953094D01*
X110944566Y-80946225D01*
X110911469Y-80939250D01*
X110818053Y-80907741D01*
X110734381Y-80856617D01*
X110662335Y-80787429D01*
X110603800Y-80701728D01*
X110589852Y-80674489D01*
X110573414Y-80638122D01*
X110563106Y-80607582D01*
X110557540Y-80575450D01*
X110555331Y-80534307D01*
X110555052Y-80488222D01*
X110559139Y-80403865D01*
X110572554Y-80334586D01*
X110597744Y-80273961D01*
X110637154Y-80215567D01*
X110675702Y-80171302D01*
X110747594Y-80105484D01*
X110822687Y-80060053D01*
X110905438Y-80032850D01*
X110983072Y-80022576D01*
X111086957Y-80026571D01*
G37*
X111086957Y-80026571D02*
X111183232Y-80050809D01*
X111269816Y-80093641D01*
X111344627Y-80153419D01*
X111405582Y-80228494D01*
X111450601Y-80317220D01*
X111476864Y-80413530D01*
X111482714Y-80510795D01*
X111467860Y-80604654D01*
X111434160Y-80692511D01*
X111383472Y-80771770D01*
X111317655Y-80839836D01*
X111238566Y-80894112D01*
X111148066Y-80932002D01*
X111096800Y-80944426D01*
X111052302Y-80951947D01*
X111018001Y-80954919D01*
X110985040Y-80953094D01*
X110944566Y-80946225D01*
X110911469Y-80939250D01*
X110818053Y-80907741D01*
X110734381Y-80856617D01*
X110662335Y-80787429D01*
X110603800Y-80701728D01*
X110589852Y-80674489D01*
X110573414Y-80638122D01*
X110563106Y-80607582D01*
X110557540Y-80575450D01*
X110555331Y-80534307D01*
X110555052Y-80488222D01*
X110559139Y-80403865D01*
X110572554Y-80334586D01*
X110597744Y-80273961D01*
X110637154Y-80215567D01*
X110675702Y-80171302D01*
X110747594Y-80105484D01*
X110822687Y-80060053D01*
X110905438Y-80032850D01*
X110983072Y-80022576D01*
X111086957Y-80026571D01*
G36*
X112059886Y-85273448D02*
G01*
X112083452Y-85287273D01*
X112114265Y-85309881D01*
X112153922Y-85342338D01*
X112204020Y-85385708D01*
X112266157Y-85441058D01*
X112341928Y-85509451D01*
X112428666Y-85588084D01*
X112609289Y-85751878D01*
X112614933Y-85532029D01*
X112616971Y-85456351D01*
X112618937Y-85399994D01*
X112621266Y-85359706D01*
X112624394Y-85332235D01*
X112628755Y-85314329D01*
X112634784Y-85302737D01*
X112642916Y-85294208D01*
X112647228Y-85290623D01*
X112681759Y-85271670D01*
X112714617Y-85274441D01*
X112740682Y-85290633D01*
X112767333Y-85312199D01*
X112770648Y-85627151D01*
X112771565Y-85719779D01*
X112772032Y-85792544D01*
X112771887Y-85848161D01*
X112770968Y-85889342D01*
X112769113Y-85918803D01*
X112766161Y-85939255D01*
X112761950Y-85953413D01*
X112756318Y-85963991D01*
X112750073Y-85972474D01*
X112736561Y-85988207D01*
X112723117Y-85998636D01*
X112707876Y-86002639D01*
X112688974Y-85999094D01*
X112664545Y-85986879D01*
X112632727Y-85964871D01*
X112591652Y-85931949D01*
X112539458Y-85886991D01*
X112474278Y-85828875D01*
X112400444Y-85762099D01*
X112135155Y-85521458D01*
X112129511Y-85740589D01*
X112127469Y-85816128D01*
X112125498Y-85872354D01*
X112123161Y-85912524D01*
X112120019Y-85939896D01*
X112115636Y-85957728D01*
X112109576Y-85969279D01*
X112101400Y-85977807D01*
X112097216Y-85981282D01*
X112060235Y-86000372D01*
X112025292Y-85997493D01*
X111994864Y-85973100D01*
X111987903Y-85963286D01*
X111982477Y-85951826D01*
X111978397Y-85935968D01*
X111975471Y-85912963D01*
X111973508Y-85880062D01*
X111972317Y-85834516D01*
X111971708Y-85773573D01*
X111971489Y-85694486D01*
X111971466Y-85635956D01*
X111971540Y-85544407D01*
X111971887Y-85472687D01*
X111972699Y-85418045D01*
X111974167Y-85377732D01*
X111976481Y-85348998D01*
X111979833Y-85329093D01*
X111984412Y-85315268D01*
X111990411Y-85304772D01*
X111994864Y-85298811D01*
X112006150Y-85284691D01*
X112016699Y-85274029D01*
X112028107Y-85267892D01*
X112041970Y-85267343D01*
X112059886Y-85273448D01*
G37*
X112059886Y-85273448D02*
X112083452Y-85287273D01*
X112114265Y-85309881D01*
X112153922Y-85342338D01*
X112204020Y-85385708D01*
X112266157Y-85441058D01*
X112341928Y-85509451D01*
X112428666Y-85588084D01*
X112609289Y-85751878D01*
X112614933Y-85532029D01*
X112616971Y-85456351D01*
X112618937Y-85399994D01*
X112621266Y-85359706D01*
X112624394Y-85332235D01*
X112628755Y-85314329D01*
X112634784Y-85302737D01*
X112642916Y-85294208D01*
X112647228Y-85290623D01*
X112681759Y-85271670D01*
X112714617Y-85274441D01*
X112740682Y-85290633D01*
X112767333Y-85312199D01*
X112770648Y-85627151D01*
X112771565Y-85719779D01*
X112772032Y-85792544D01*
X112771887Y-85848161D01*
X112770968Y-85889342D01*
X112769113Y-85918803D01*
X112766161Y-85939255D01*
X112761950Y-85953413D01*
X112756318Y-85963991D01*
X112750073Y-85972474D01*
X112736561Y-85988207D01*
X112723117Y-85998636D01*
X112707876Y-86002639D01*
X112688974Y-85999094D01*
X112664545Y-85986879D01*
X112632727Y-85964871D01*
X112591652Y-85931949D01*
X112539458Y-85886991D01*
X112474278Y-85828875D01*
X112400444Y-85762099D01*
X112135155Y-85521458D01*
X112129511Y-85740589D01*
X112127469Y-85816128D01*
X112125498Y-85872354D01*
X112123161Y-85912524D01*
X112120019Y-85939896D01*
X112115636Y-85957728D01*
X112109576Y-85969279D01*
X112101400Y-85977807D01*
X112097216Y-85981282D01*
X112060235Y-86000372D01*
X112025292Y-85997493D01*
X111994864Y-85973100D01*
X111987903Y-85963286D01*
X111982477Y-85951826D01*
X111978397Y-85935968D01*
X111975471Y-85912963D01*
X111973508Y-85880062D01*
X111972317Y-85834516D01*
X111971708Y-85773573D01*
X111971489Y-85694486D01*
X111971466Y-85635956D01*
X111971540Y-85544407D01*
X111971887Y-85472687D01*
X111972699Y-85418045D01*
X111974167Y-85377732D01*
X111976481Y-85348998D01*
X111979833Y-85329093D01*
X111984412Y-85315268D01*
X111990411Y-85304772D01*
X111994864Y-85298811D01*
X112006150Y-85284691D01*
X112016699Y-85274029D01*
X112028107Y-85267892D01*
X112041970Y-85267343D01*
X112059886Y-85273448D01*
G36*
X108647206Y-85269146D02*
G01*
X108716614Y-85269518D01*
X108769003Y-85270385D01*
X108807153Y-85271946D01*
X108833841Y-85274403D01*
X108851847Y-85277957D01*
X108863951Y-85282810D01*
X108872931Y-85289161D01*
X108876182Y-85292084D01*
X108895957Y-85323142D01*
X108899518Y-85358828D01*
X108886509Y-85390510D01*
X108880494Y-85396913D01*
X108870765Y-85403121D01*
X108855099Y-85407910D01*
X108830592Y-85411514D01*
X108794339Y-85414164D01*
X108743435Y-85416095D01*
X108674974Y-85417539D01*
X108612383Y-85418418D01*
X108364666Y-85421467D01*
X108361281Y-85486378D01*
X108357895Y-85551289D01*
X108526042Y-85551289D01*
X108599041Y-85551919D01*
X108652483Y-85554553D01*
X108689372Y-85560309D01*
X108712712Y-85570304D01*
X108725506Y-85585656D01*
X108730758Y-85607482D01*
X108731555Y-85627738D01*
X108729077Y-85652592D01*
X108719723Y-85670906D01*
X108700617Y-85683637D01*
X108668882Y-85691741D01*
X108621641Y-85696176D01*
X108556017Y-85697899D01*
X108520199Y-85698045D01*
X108359022Y-85698045D01*
X108359022Y-85856089D01*
X108607378Y-85856089D01*
X108688787Y-85856202D01*
X108750658Y-85856712D01*
X108796032Y-85857870D01*
X108827946Y-85859930D01*
X108849441Y-85863146D01*
X108863557Y-85867772D01*
X108873332Y-85874059D01*
X108878311Y-85878667D01*
X108895390Y-85905560D01*
X108900889Y-85929467D01*
X108893037Y-85958667D01*
X108878311Y-85980267D01*
X108870454Y-85987066D01*
X108860312Y-85992346D01*
X108845156Y-85996298D01*
X108822259Y-85999113D01*
X108788891Y-86000982D01*
X108742325Y-86002098D01*
X108679833Y-86002651D01*
X108598686Y-86002833D01*
X108556578Y-86002845D01*
X108466402Y-86002765D01*
X108396076Y-86002398D01*
X108342871Y-86001552D01*
X108304060Y-86000036D01*
X108276913Y-85997659D01*
X108258702Y-85994229D01*
X108246700Y-85989554D01*
X108238178Y-85983444D01*
X108234844Y-85980267D01*
X108228245Y-85972670D01*
X108223073Y-85962870D01*
X108219154Y-85948239D01*
X108216316Y-85926152D01*
X108214385Y-85893982D01*
X108213188Y-85849103D01*
X108212552Y-85788889D01*
X108212303Y-85710713D01*
X108212266Y-85637923D01*
X108212300Y-85544707D01*
X108212535Y-85471431D01*
X108213170Y-85415458D01*
X108214406Y-85374151D01*
X108216444Y-85344872D01*
X108219483Y-85324984D01*
X108223723Y-85311850D01*
X108229365Y-85302832D01*
X108236609Y-85295293D01*
X108238394Y-85293612D01*
X108247055Y-85286172D01*
X108257118Y-85280409D01*
X108271375Y-85276112D01*
X108292617Y-85273064D01*
X108323636Y-85271051D01*
X108367223Y-85269860D01*
X108426169Y-85269275D01*
X108503266Y-85269083D01*
X108557999Y-85269067D01*
X108647206Y-85269146D01*
G37*
X108647206Y-85269146D02*
X108716614Y-85269518D01*
X108769003Y-85270385D01*
X108807153Y-85271946D01*
X108833841Y-85274403D01*
X108851847Y-85277957D01*
X108863951Y-85282810D01*
X108872931Y-85289161D01*
X108876182Y-85292084D01*
X108895957Y-85323142D01*
X108899518Y-85358828D01*
X108886509Y-85390510D01*
X108880494Y-85396913D01*
X108870765Y-85403121D01*
X108855099Y-85407910D01*
X108830592Y-85411514D01*
X108794339Y-85414164D01*
X108743435Y-85416095D01*
X108674974Y-85417539D01*
X108612383Y-85418418D01*
X108364666Y-85421467D01*
X108361281Y-85486378D01*
X108357895Y-85551289D01*
X108526042Y-85551289D01*
X108599041Y-85551919D01*
X108652483Y-85554553D01*
X108689372Y-85560309D01*
X108712712Y-85570304D01*
X108725506Y-85585656D01*
X108730758Y-85607482D01*
X108731555Y-85627738D01*
X108729077Y-85652592D01*
X108719723Y-85670906D01*
X108700617Y-85683637D01*
X108668882Y-85691741D01*
X108621641Y-85696176D01*
X108556017Y-85697899D01*
X108520199Y-85698045D01*
X108359022Y-85698045D01*
X108359022Y-85856089D01*
X108607378Y-85856089D01*
X108688787Y-85856202D01*
X108750658Y-85856712D01*
X108796032Y-85857870D01*
X108827946Y-85859930D01*
X108849441Y-85863146D01*
X108863557Y-85867772D01*
X108873332Y-85874059D01*
X108878311Y-85878667D01*
X108895390Y-85905560D01*
X108900889Y-85929467D01*
X108893037Y-85958667D01*
X108878311Y-85980267D01*
X108870454Y-85987066D01*
X108860312Y-85992346D01*
X108845156Y-85996298D01*
X108822259Y-85999113D01*
X108788891Y-86000982D01*
X108742325Y-86002098D01*
X108679833Y-86002651D01*
X108598686Y-86002833D01*
X108556578Y-86002845D01*
X108466402Y-86002765D01*
X108396076Y-86002398D01*
X108342871Y-86001552D01*
X108304060Y-86000036D01*
X108276913Y-85997659D01*
X108258702Y-85994229D01*
X108246700Y-85989554D01*
X108238178Y-85983444D01*
X108234844Y-85980267D01*
X108228245Y-85972670D01*
X108223073Y-85962870D01*
X108219154Y-85948239D01*
X108216316Y-85926152D01*
X108214385Y-85893982D01*
X108213188Y-85849103D01*
X108212552Y-85788889D01*
X108212303Y-85710713D01*
X108212266Y-85637923D01*
X108212300Y-85544707D01*
X108212535Y-85471431D01*
X108213170Y-85415458D01*
X108214406Y-85374151D01*
X108216444Y-85344872D01*
X108219483Y-85324984D01*
X108223723Y-85311850D01*
X108229365Y-85302832D01*
X108236609Y-85295293D01*
X108238394Y-85293612D01*
X108247055Y-85286172D01*
X108257118Y-85280409D01*
X108271375Y-85276112D01*
X108292617Y-85273064D01*
X108323636Y-85271051D01*
X108367223Y-85269860D01*
X108426169Y-85269275D01*
X108503266Y-85269083D01*
X108557999Y-85269067D01*
X108647206Y-85269146D01*
G36*
X113590343Y-85269260D02*
G01*
X113666701Y-85270174D01*
X113725217Y-85272311D01*
X113768255Y-85276175D01*
X113798183Y-85282267D01*
X113817368Y-85291090D01*
X113828176Y-85303146D01*
X113832973Y-85318939D01*
X113834127Y-85338970D01*
X113834133Y-85341335D01*
X113833131Y-85363992D01*
X113828396Y-85381503D01*
X113817333Y-85394574D01*
X113797348Y-85403913D01*
X113765846Y-85410227D01*
X113720232Y-85414222D01*
X113657913Y-85416606D01*
X113576293Y-85418086D01*
X113551277Y-85418414D01*
X113309200Y-85421467D01*
X113305814Y-85486378D01*
X113302429Y-85551289D01*
X113470576Y-85551289D01*
X113536266Y-85551531D01*
X113583172Y-85552556D01*
X113615083Y-85554811D01*
X113635791Y-85558742D01*
X113649084Y-85564798D01*
X113658755Y-85573424D01*
X113658817Y-85573493D01*
X113676356Y-85607112D01*
X113675722Y-85643448D01*
X113657314Y-85674423D01*
X113653671Y-85677607D01*
X113640741Y-85685812D01*
X113623024Y-85691521D01*
X113596570Y-85695162D01*
X113557432Y-85697167D01*
X113501662Y-85697964D01*
X113465994Y-85698045D01*
X113303555Y-85698045D01*
X113303555Y-85856089D01*
X113550161Y-85856089D01*
X113631580Y-85856231D01*
X113693410Y-85856814D01*
X113738637Y-85858068D01*
X113770248Y-85860227D01*
X113791231Y-85863523D01*
X113804573Y-85868189D01*
X113813261Y-85874457D01*
X113815450Y-85876733D01*
X113831614Y-85908280D01*
X113832797Y-85944168D01*
X113819536Y-85975285D01*
X113809043Y-85985271D01*
X113798129Y-85990769D01*
X113781217Y-85995022D01*
X113755633Y-85998180D01*
X113718701Y-86000392D01*
X113667746Y-86001806D01*
X113600094Y-86002572D01*
X113513069Y-86002838D01*
X113493394Y-86002845D01*
X113404911Y-86002787D01*
X113336227Y-86002467D01*
X113284564Y-86001667D01*
X113247145Y-86000167D01*
X113221190Y-85997749D01*
X113203922Y-85994194D01*
X113192562Y-85989282D01*
X113184332Y-85982795D01*
X113179817Y-85978138D01*
X113173021Y-85969889D01*
X113167712Y-85959669D01*
X113163706Y-85944800D01*
X113160821Y-85922602D01*
X113158874Y-85890393D01*
X113157681Y-85845496D01*
X113157061Y-85785228D01*
X113156829Y-85706911D01*
X113156800Y-85640994D01*
X113156871Y-85548628D01*
X113157208Y-85476117D01*
X113157998Y-85420737D01*
X113159426Y-85379765D01*
X113161679Y-85350478D01*
X113164943Y-85330153D01*
X113169404Y-85316066D01*
X113175248Y-85305495D01*
X113180197Y-85298811D01*
X113203594Y-85269067D01*
X113493774Y-85269067D01*
X113590343Y-85269260D01*
G37*
X113590343Y-85269260D02*
X113666701Y-85270174D01*
X113725217Y-85272311D01*
X113768255Y-85276175D01*
X113798183Y-85282267D01*
X113817368Y-85291090D01*
X113828176Y-85303146D01*
X113832973Y-85318939D01*
X113834127Y-85338970D01*
X113834133Y-85341335D01*
X113833131Y-85363992D01*
X113828396Y-85381503D01*
X113817333Y-85394574D01*
X113797348Y-85403913D01*
X113765846Y-85410227D01*
X113720232Y-85414222D01*
X113657913Y-85416606D01*
X113576293Y-85418086D01*
X113551277Y-85418414D01*
X113309200Y-85421467D01*
X113305814Y-85486378D01*
X113302429Y-85551289D01*
X113470576Y-85551289D01*
X113536266Y-85551531D01*
X113583172Y-85552556D01*
X113615083Y-85554811D01*
X113635791Y-85558742D01*
X113649084Y-85564798D01*
X113658755Y-85573424D01*
X113658817Y-85573493D01*
X113676356Y-85607112D01*
X113675722Y-85643448D01*
X113657314Y-85674423D01*
X113653671Y-85677607D01*
X113640741Y-85685812D01*
X113623024Y-85691521D01*
X113596570Y-85695162D01*
X113557432Y-85697167D01*
X113501662Y-85697964D01*
X113465994Y-85698045D01*
X113303555Y-85698045D01*
X113303555Y-85856089D01*
X113550161Y-85856089D01*
X113631580Y-85856231D01*
X113693410Y-85856814D01*
X113738637Y-85858068D01*
X113770248Y-85860227D01*
X113791231Y-85863523D01*
X113804573Y-85868189D01*
X113813261Y-85874457D01*
X113815450Y-85876733D01*
X113831614Y-85908280D01*
X113832797Y-85944168D01*
X113819536Y-85975285D01*
X113809043Y-85985271D01*
X113798129Y-85990769D01*
X113781217Y-85995022D01*
X113755633Y-85998180D01*
X113718701Y-86000392D01*
X113667746Y-86001806D01*
X113600094Y-86002572D01*
X113513069Y-86002838D01*
X113493394Y-86002845D01*
X113404911Y-86002787D01*
X113336227Y-86002467D01*
X113284564Y-86001667D01*
X113247145Y-86000167D01*
X113221190Y-85997749D01*
X113203922Y-85994194D01*
X113192562Y-85989282D01*
X113184332Y-85982795D01*
X113179817Y-85978138D01*
X113173021Y-85969889D01*
X113167712Y-85959669D01*
X113163706Y-85944800D01*
X113160821Y-85922602D01*
X113158874Y-85890393D01*
X113157681Y-85845496D01*
X113157061Y-85785228D01*
X113156829Y-85706911D01*
X113156800Y-85640994D01*
X113156871Y-85548628D01*
X113157208Y-85476117D01*
X113157998Y-85420737D01*
X113159426Y-85379765D01*
X113161679Y-85350478D01*
X113164943Y-85330153D01*
X113169404Y-85316066D01*
X113175248Y-85305495D01*
X113180197Y-85298811D01*
X113203594Y-85269067D01*
X113493774Y-85269067D01*
X113590343Y-85269260D01*
G36*
X117548614Y-85275877D02*
G01*
X117572327Y-85290647D01*
X117598978Y-85312227D01*
X117598978Y-85633773D01*
X117598893Y-85727830D01*
X117598529Y-85801932D01*
X117597724Y-85858704D01*
X117596313Y-85900768D01*
X117594133Y-85930748D01*
X117591021Y-85951267D01*
X117586814Y-85964949D01*
X117581348Y-85974416D01*
X117577472Y-85979082D01*
X117546034Y-85999575D01*
X117510233Y-85998739D01*
X117478873Y-85981264D01*
X117452222Y-85959684D01*
X117452222Y-85312227D01*
X117478873Y-85290647D01*
X117504594Y-85274949D01*
X117525600Y-85269067D01*
X117548614Y-85275877D01*
G37*
X117548614Y-85275877D02*
X117572327Y-85290647D01*
X117598978Y-85312227D01*
X117598978Y-85633773D01*
X117598893Y-85727830D01*
X117598529Y-85801932D01*
X117597724Y-85858704D01*
X117596313Y-85900768D01*
X117594133Y-85930748D01*
X117591021Y-85951267D01*
X117586814Y-85964949D01*
X117581348Y-85974416D01*
X117577472Y-85979082D01*
X117546034Y-85999575D01*
X117510233Y-85998739D01*
X117478873Y-85981264D01*
X117452222Y-85959684D01*
X117452222Y-85312227D01*
X117478873Y-85290647D01*
X117504594Y-85274949D01*
X117525600Y-85269067D01*
X117548614Y-85275877D01*
G36*
X119588823Y-85274533D02*
G01*
X119620202Y-85296776D01*
X119647911Y-85324485D01*
X119647911Y-85633920D01*
X119647838Y-85725799D01*
X119647495Y-85797840D01*
X119646692Y-85852780D01*
X119645241Y-85893360D01*
X119642952Y-85922317D01*
X119639636Y-85942391D01*
X119635105Y-85956321D01*
X119629169Y-85966845D01*
X119624514Y-85973100D01*
X119593783Y-85997673D01*
X119558496Y-86000341D01*
X119526245Y-85985271D01*
X119515588Y-85976374D01*
X119508464Y-85964557D01*
X119504167Y-85945526D01*
X119501991Y-85914992D01*
X119501228Y-85868662D01*
X119501155Y-85832871D01*
X119501155Y-85698045D01*
X119004444Y-85698045D01*
X119004444Y-85820700D01*
X119003931Y-85876787D01*
X119001876Y-85915333D01*
X118997508Y-85941361D01*
X118990056Y-85959897D01*
X118981047Y-85973100D01*
X118950144Y-85997604D01*
X118915196Y-86000506D01*
X118881738Y-85983089D01*
X118872604Y-85973959D01*
X118866152Y-85961855D01*
X118861897Y-85943001D01*
X118859352Y-85913620D01*
X118858029Y-85869937D01*
X118857443Y-85808175D01*
X118857375Y-85794000D01*
X118856891Y-85677631D01*
X118856641Y-85581727D01*
X118856723Y-85504177D01*
X118857231Y-85442869D01*
X118858262Y-85395690D01*
X118859913Y-85360530D01*
X118862279Y-85335276D01*
X118865457Y-85317817D01*
X118869544Y-85306041D01*
X118874634Y-85297835D01*
X118880266Y-85291645D01*
X118912128Y-85271844D01*
X118945357Y-85274533D01*
X118976735Y-85296776D01*
X118989433Y-85311126D01*
X118997526Y-85326978D01*
X119002042Y-85349554D01*
X119004006Y-85384078D01*
X119004444Y-85435776D01*
X119004444Y-85551289D01*
X119501155Y-85551289D01*
X119501155Y-85432756D01*
X119501662Y-85378148D01*
X119503698Y-85341275D01*
X119508035Y-85317307D01*
X119515447Y-85301415D01*
X119523733Y-85291645D01*
X119555594Y-85271844D01*
X119588823Y-85274533D01*
G37*
X119588823Y-85274533D02*
X119620202Y-85296776D01*
X119647911Y-85324485D01*
X119647911Y-85633920D01*
X119647838Y-85725799D01*
X119647495Y-85797840D01*
X119646692Y-85852780D01*
X119645241Y-85893360D01*
X119642952Y-85922317D01*
X119639636Y-85942391D01*
X119635105Y-85956321D01*
X119629169Y-85966845D01*
X119624514Y-85973100D01*
X119593783Y-85997673D01*
X119558496Y-86000341D01*
X119526245Y-85985271D01*
X119515588Y-85976374D01*
X119508464Y-85964557D01*
X119504167Y-85945526D01*
X119501991Y-85914992D01*
X119501228Y-85868662D01*
X119501155Y-85832871D01*
X119501155Y-85698045D01*
X119004444Y-85698045D01*
X119004444Y-85820700D01*
X119003931Y-85876787D01*
X119001876Y-85915333D01*
X118997508Y-85941361D01*
X118990056Y-85959897D01*
X118981047Y-85973100D01*
X118950144Y-85997604D01*
X118915196Y-86000506D01*
X118881738Y-85983089D01*
X118872604Y-85973959D01*
X118866152Y-85961855D01*
X118861897Y-85943001D01*
X118859352Y-85913620D01*
X118858029Y-85869937D01*
X118857443Y-85808175D01*
X118857375Y-85794000D01*
X118856891Y-85677631D01*
X118856641Y-85581727D01*
X118856723Y-85504177D01*
X118857231Y-85442869D01*
X118858262Y-85395690D01*
X118859913Y-85360530D01*
X118862279Y-85335276D01*
X118865457Y-85317817D01*
X118869544Y-85306041D01*
X118874634Y-85297835D01*
X118880266Y-85291645D01*
X118912128Y-85271844D01*
X118945357Y-85274533D01*
X118976735Y-85296776D01*
X118989433Y-85311126D01*
X118997526Y-85326978D01*
X119002042Y-85349554D01*
X119004006Y-85384078D01*
X119004444Y-85435776D01*
X119004444Y-85551289D01*
X119501155Y-85551289D01*
X119501155Y-85432756D01*
X119501662Y-85378148D01*
X119503698Y-85341275D01*
X119508035Y-85317307D01*
X119515447Y-85301415D01*
X119523733Y-85291645D01*
X119555594Y-85271844D01*
X119588823Y-85274533D01*
G36*
X111409919Y-85274599D02*
G01*
X111478435Y-85286095D01*
X111531057Y-85303967D01*
X111565292Y-85327499D01*
X111574621Y-85340924D01*
X111584107Y-85372148D01*
X111577723Y-85400395D01*
X111557570Y-85427182D01*
X111526255Y-85439713D01*
X111480817Y-85438696D01*
X111445674Y-85431906D01*
X111367581Y-85418971D01*
X111287774Y-85417742D01*
X111198445Y-85428241D01*
X111173771Y-85432690D01*
X111090709Y-85456108D01*
X111025727Y-85490945D01*
X110979539Y-85536604D01*
X110952855Y-85592494D01*
X110947337Y-85621388D01*
X110950949Y-85680012D01*
X110974271Y-85731879D01*
X111015176Y-85775978D01*
X111071541Y-85811299D01*
X111141240Y-85836829D01*
X111222148Y-85851559D01*
X111312140Y-85854478D01*
X111409090Y-85844575D01*
X111414564Y-85843641D01*
X111453125Y-85836459D01*
X111474506Y-85829521D01*
X111483773Y-85819227D01*
X111485994Y-85801976D01*
X111486044Y-85792841D01*
X111486044Y-85754489D01*
X111417569Y-85754489D01*
X111357100Y-85750347D01*
X111315835Y-85737147D01*
X111291825Y-85713730D01*
X111283123Y-85678936D01*
X111283017Y-85674394D01*
X111288108Y-85644654D01*
X111305567Y-85623419D01*
X111338061Y-85609366D01*
X111388257Y-85601173D01*
X111436877Y-85598161D01*
X111507544Y-85596433D01*
X111558802Y-85599070D01*
X111593761Y-85608800D01*
X111615530Y-85628353D01*
X111627220Y-85660456D01*
X111631940Y-85707838D01*
X111632800Y-85770071D01*
X111631391Y-85839535D01*
X111627152Y-85886786D01*
X111620064Y-85912012D01*
X111618689Y-85913988D01*
X111579772Y-85945508D01*
X111522714Y-85970470D01*
X111451131Y-85988340D01*
X111368642Y-85998586D01*
X111278861Y-86000673D01*
X111185408Y-85994068D01*
X111130444Y-85985956D01*
X111044234Y-85961554D01*
X110964108Y-85921662D01*
X110897023Y-85869887D01*
X110886827Y-85859539D01*
X110853698Y-85816035D01*
X110823806Y-85762118D01*
X110800643Y-85705592D01*
X110787702Y-85654259D01*
X110786142Y-85634544D01*
X110792782Y-85593419D01*
X110810432Y-85542252D01*
X110835703Y-85488394D01*
X110865211Y-85439195D01*
X110891281Y-85406334D01*
X110952235Y-85357452D01*
X111031031Y-85318545D01*
X111124843Y-85290494D01*
X111230850Y-85274179D01*
X111328000Y-85270192D01*
X111409919Y-85274599D01*
G37*
X111409919Y-85274599D02*
X111478435Y-85286095D01*
X111531057Y-85303967D01*
X111565292Y-85327499D01*
X111574621Y-85340924D01*
X111584107Y-85372148D01*
X111577723Y-85400395D01*
X111557570Y-85427182D01*
X111526255Y-85439713D01*
X111480817Y-85438696D01*
X111445674Y-85431906D01*
X111367581Y-85418971D01*
X111287774Y-85417742D01*
X111198445Y-85428241D01*
X111173771Y-85432690D01*
X111090709Y-85456108D01*
X111025727Y-85490945D01*
X110979539Y-85536604D01*
X110952855Y-85592494D01*
X110947337Y-85621388D01*
X110950949Y-85680012D01*
X110974271Y-85731879D01*
X111015176Y-85775978D01*
X111071541Y-85811299D01*
X111141240Y-85836829D01*
X111222148Y-85851559D01*
X111312140Y-85854478D01*
X111409090Y-85844575D01*
X111414564Y-85843641D01*
X111453125Y-85836459D01*
X111474506Y-85829521D01*
X111483773Y-85819227D01*
X111485994Y-85801976D01*
X111486044Y-85792841D01*
X111486044Y-85754489D01*
X111417569Y-85754489D01*
X111357100Y-85750347D01*
X111315835Y-85737147D01*
X111291825Y-85713730D01*
X111283123Y-85678936D01*
X111283017Y-85674394D01*
X111288108Y-85644654D01*
X111305567Y-85623419D01*
X111338061Y-85609366D01*
X111388257Y-85601173D01*
X111436877Y-85598161D01*
X111507544Y-85596433D01*
X111558802Y-85599070D01*
X111593761Y-85608800D01*
X111615530Y-85628353D01*
X111627220Y-85660456D01*
X111631940Y-85707838D01*
X111632800Y-85770071D01*
X111631391Y-85839535D01*
X111627152Y-85886786D01*
X111620064Y-85912012D01*
X111618689Y-85913988D01*
X111579772Y-85945508D01*
X111522714Y-85970470D01*
X111451131Y-85988340D01*
X111368642Y-85998586D01*
X111278861Y-86000673D01*
X111185408Y-85994068D01*
X111130444Y-85985956D01*
X111044234Y-85961554D01*
X110964108Y-85921662D01*
X110897023Y-85869887D01*
X110886827Y-85859539D01*
X110853698Y-85816035D01*
X110823806Y-85762118D01*
X110800643Y-85705592D01*
X110787702Y-85654259D01*
X110786142Y-85634544D01*
X110792782Y-85593419D01*
X110810432Y-85542252D01*
X110835703Y-85488394D01*
X110865211Y-85439195D01*
X110891281Y-85406334D01*
X110952235Y-85357452D01*
X111031031Y-85318545D01*
X111124843Y-85290494D01*
X111230850Y-85274179D01*
X111328000Y-85270192D01*
X111409919Y-85274599D01*
G36*
X114173050Y-85774311D02*
G01*
X114172825Y-85695526D01*
X114172800Y-85633920D01*
X114172800Y-85324485D01*
X114200509Y-85296776D01*
X114212806Y-85285544D01*
X114226103Y-85277853D01*
X114244672Y-85273040D01*
X114272786Y-85270446D01*
X114314717Y-85269410D01*
X114374737Y-85269270D01*
X114378309Y-85269275D01*
X114507288Y-85273636D01*
X114616991Y-85286861D01*
X114709226Y-85309741D01*
X114785802Y-85343070D01*
X114848527Y-85387638D01*
X114899212Y-85444236D01*
X114939663Y-85513658D01*
X114940459Y-85515351D01*
X114964601Y-85577483D01*
X114973203Y-85632509D01*
X114966231Y-85687887D01*
X114943654Y-85751073D01*
X114939372Y-85760689D01*
X114910172Y-85816966D01*
X114877356Y-85860451D01*
X114835002Y-85897417D01*
X114777190Y-85934135D01*
X114773831Y-85936052D01*
X114723504Y-85960227D01*
X114666621Y-85978282D01*
X114599527Y-85990839D01*
X114518565Y-85998522D01*
X114420082Y-86001953D01*
X114385286Y-86002251D01*
X114219594Y-86002845D01*
X114196197Y-85973100D01*
X114189257Y-85963319D01*
X114183842Y-85951897D01*
X114179765Y-85936095D01*
X114176837Y-85913175D01*
X114174867Y-85880396D01*
X114174225Y-85856089D01*
X114330844Y-85856089D01*
X114424726Y-85856089D01*
X114479664Y-85854483D01*
X114536060Y-85850255D01*
X114582345Y-85844292D01*
X114585139Y-85843790D01*
X114667348Y-85821736D01*
X114731114Y-85788600D01*
X114778452Y-85742847D01*
X114811382Y-85682939D01*
X114817108Y-85667061D01*
X114822721Y-85642333D01*
X114820291Y-85617902D01*
X114808467Y-85585400D01*
X114801340Y-85569434D01*
X114778000Y-85527006D01*
X114749880Y-85497240D01*
X114718940Y-85476511D01*
X114656966Y-85449537D01*
X114577651Y-85429998D01*
X114485253Y-85418746D01*
X114418333Y-85416270D01*
X114330844Y-85415822D01*
X114330844Y-85856089D01*
X114174225Y-85856089D01*
X114173668Y-85835021D01*
X114173050Y-85774311D01*
G37*
X114173050Y-85774311D02*
X114172825Y-85695526D01*
X114172800Y-85633920D01*
X114172800Y-85324485D01*
X114200509Y-85296776D01*
X114212806Y-85285544D01*
X114226103Y-85277853D01*
X114244672Y-85273040D01*
X114272786Y-85270446D01*
X114314717Y-85269410D01*
X114374737Y-85269270D01*
X114378309Y-85269275D01*
X114507288Y-85273636D01*
X114616991Y-85286861D01*
X114709226Y-85309741D01*
X114785802Y-85343070D01*
X114848527Y-85387638D01*
X114899212Y-85444236D01*
X114939663Y-85513658D01*
X114940459Y-85515351D01*
X114964601Y-85577483D01*
X114973203Y-85632509D01*
X114966231Y-85687887D01*
X114943654Y-85751073D01*
X114939372Y-85760689D01*
X114910172Y-85816966D01*
X114877356Y-85860451D01*
X114835002Y-85897417D01*
X114777190Y-85934135D01*
X114773831Y-85936052D01*
X114723504Y-85960227D01*
X114666621Y-85978282D01*
X114599527Y-85990839D01*
X114518565Y-85998522D01*
X114420082Y-86001953D01*
X114385286Y-86002251D01*
X114219594Y-86002845D01*
X114196197Y-85973100D01*
X114189257Y-85963319D01*
X114183842Y-85951897D01*
X114179765Y-85936095D01*
X114176837Y-85913175D01*
X114174867Y-85880396D01*
X114174225Y-85856089D01*
X114330844Y-85856089D01*
X114424726Y-85856089D01*
X114479664Y-85854483D01*
X114536060Y-85850255D01*
X114582345Y-85844292D01*
X114585139Y-85843790D01*
X114667348Y-85821736D01*
X114731114Y-85788600D01*
X114778452Y-85742847D01*
X114811382Y-85682939D01*
X114817108Y-85667061D01*
X114822721Y-85642333D01*
X114820291Y-85617902D01*
X114808467Y-85585400D01*
X114801340Y-85569434D01*
X114778000Y-85527006D01*
X114749880Y-85497240D01*
X114718940Y-85476511D01*
X114656966Y-85449537D01*
X114577651Y-85429998D01*
X114485253Y-85418746D01*
X114418333Y-85416270D01*
X114330844Y-85415822D01*
X114330844Y-85856089D01*
X114174225Y-85856089D01*
X114173668Y-85835021D01*
X114173050Y-85774311D01*
G36*
X113688429Y-80949071D02*
G01*
X113848570Y-80970245D01*
X114012510Y-81010385D01*
X114182313Y-81069889D01*
X114360043Y-81149154D01*
X114371310Y-81154699D01*
X114429005Y-81182725D01*
X114480552Y-81206802D01*
X114522191Y-81225249D01*
X114550162Y-81236386D01*
X114559733Y-81238933D01*
X114578950Y-81243941D01*
X114583561Y-81248147D01*
X114578458Y-81258580D01*
X114562418Y-81284868D01*
X114537288Y-81324257D01*
X114504914Y-81373991D01*
X114467143Y-81431315D01*
X114425822Y-81493476D01*
X114382798Y-81557718D01*
X114339917Y-81621285D01*
X114299026Y-81681425D01*
X114261971Y-81735380D01*
X114230600Y-81780397D01*
X114206759Y-81813721D01*
X114192294Y-81832597D01*
X114190309Y-81834787D01*
X114180191Y-81830138D01*
X114157850Y-81812962D01*
X114127280Y-81786440D01*
X114111536Y-81771964D01*
X114015047Y-81696682D01*
X113908336Y-81641241D01*
X113792832Y-81606141D01*
X113669962Y-81591880D01*
X113600561Y-81593051D01*
X113479423Y-81610212D01*
X113370205Y-81646094D01*
X113272582Y-81700959D01*
X113186228Y-81775070D01*
X113110815Y-81868688D01*
X113046018Y-81982076D01*
X113008601Y-82068667D01*
X112964748Y-82204366D01*
X112932428Y-82351850D01*
X112911557Y-82507314D01*
X112902051Y-82666956D01*
X112903827Y-82826973D01*
X112916803Y-82983561D01*
X112940894Y-83132918D01*
X112976018Y-83271240D01*
X113022092Y-83394724D01*
X113038373Y-83428978D01*
X113106620Y-83543064D01*
X113187079Y-83639557D01*
X113278570Y-83717670D01*
X113379911Y-83776617D01*
X113489920Y-83815612D01*
X113607415Y-83833868D01*
X113648883Y-83835211D01*
X113770441Y-83824290D01*
X113890878Y-83791474D01*
X114008666Y-83737439D01*
X114122277Y-83662865D01*
X114213685Y-83584539D01*
X114260215Y-83540008D01*
X114441483Y-83837271D01*
X114486580Y-83911433D01*
X114527819Y-83979646D01*
X114563735Y-84039459D01*
X114592866Y-84088420D01*
X114613750Y-84124079D01*
X114624924Y-84143984D01*
X114626375Y-84147079D01*
X114618146Y-84156718D01*
X114592567Y-84173999D01*
X114552873Y-84197283D01*
X114502297Y-84224934D01*
X114444074Y-84255315D01*
X114381437Y-84286790D01*
X114317621Y-84317722D01*
X114255860Y-84346473D01*
X114199388Y-84371408D01*
X114151438Y-84390889D01*
X114127986Y-84399318D01*
X113994221Y-84437133D01*
X113856327Y-84462136D01*
X113708622Y-84475140D01*
X113581833Y-84477468D01*
X113513878Y-84476373D01*
X113448277Y-84474275D01*
X113390847Y-84471434D01*
X113347403Y-84468106D01*
X113333298Y-84466422D01*
X113194284Y-84437587D01*
X113052757Y-84392468D01*
X112915275Y-84333750D01*
X112788394Y-84264120D01*
X112710889Y-84211441D01*
X112583481Y-84103239D01*
X112465178Y-83976671D01*
X112358172Y-83834866D01*
X112264652Y-83680951D01*
X112186810Y-83518053D01*
X112142956Y-83400756D01*
X112092708Y-83217128D01*
X112059209Y-83022581D01*
X112042449Y-82821325D01*
X112042416Y-82617568D01*
X112059101Y-82415521D01*
X112092493Y-82219392D01*
X112142580Y-82033391D01*
X112146397Y-82021803D01*
X112209281Y-81859750D01*
X112286028Y-81711832D01*
X112379242Y-81573865D01*
X112491527Y-81441661D01*
X112535392Y-81396399D01*
X112671534Y-81272457D01*
X112811491Y-81169915D01*
X112957411Y-81087656D01*
X113111442Y-81024564D01*
X113275732Y-80979523D01*
X113371289Y-80962033D01*
X113530023Y-80946466D01*
X113688429Y-80949071D01*
G37*
X113688429Y-80949071D02*
X113848570Y-80970245D01*
X114012510Y-81010385D01*
X114182313Y-81069889D01*
X114360043Y-81149154D01*
X114371310Y-81154699D01*
X114429005Y-81182725D01*
X114480552Y-81206802D01*
X114522191Y-81225249D01*
X114550162Y-81236386D01*
X114559733Y-81238933D01*
X114578950Y-81243941D01*
X114583561Y-81248147D01*
X114578458Y-81258580D01*
X114562418Y-81284868D01*
X114537288Y-81324257D01*
X114504914Y-81373991D01*
X114467143Y-81431315D01*
X114425822Y-81493476D01*
X114382798Y-81557718D01*
X114339917Y-81621285D01*
X114299026Y-81681425D01*
X114261971Y-81735380D01*
X114230600Y-81780397D01*
X114206759Y-81813721D01*
X114192294Y-81832597D01*
X114190309Y-81834787D01*
X114180191Y-81830138D01*
X114157850Y-81812962D01*
X114127280Y-81786440D01*
X114111536Y-81771964D01*
X114015047Y-81696682D01*
X113908336Y-81641241D01*
X113792832Y-81606141D01*
X113669962Y-81591880D01*
X113600561Y-81593051D01*
X113479423Y-81610212D01*
X113370205Y-81646094D01*
X113272582Y-81700959D01*
X113186228Y-81775070D01*
X113110815Y-81868688D01*
X113046018Y-81982076D01*
X113008601Y-82068667D01*
X112964748Y-82204366D01*
X112932428Y-82351850D01*
X112911557Y-82507314D01*
X112902051Y-82666956D01*
X112903827Y-82826973D01*
X112916803Y-82983561D01*
X112940894Y-83132918D01*
X112976018Y-83271240D01*
X113022092Y-83394724D01*
X113038373Y-83428978D01*
X113106620Y-83543064D01*
X113187079Y-83639557D01*
X113278570Y-83717670D01*
X113379911Y-83776617D01*
X113489920Y-83815612D01*
X113607415Y-83833868D01*
X113648883Y-83835211D01*
X113770441Y-83824290D01*
X113890878Y-83791474D01*
X114008666Y-83737439D01*
X114122277Y-83662865D01*
X114213685Y-83584539D01*
X114260215Y-83540008D01*
X114441483Y-83837271D01*
X114486580Y-83911433D01*
X114527819Y-83979646D01*
X114563735Y-84039459D01*
X114592866Y-84088420D01*
X114613750Y-84124079D01*
X114624924Y-84143984D01*
X114626375Y-84147079D01*
X114618146Y-84156718D01*
X114592567Y-84173999D01*
X114552873Y-84197283D01*
X114502297Y-84224934D01*
X114444074Y-84255315D01*
X114381437Y-84286790D01*
X114317621Y-84317722D01*
X114255860Y-84346473D01*
X114199388Y-84371408D01*
X114151438Y-84390889D01*
X114127986Y-84399318D01*
X113994221Y-84437133D01*
X113856327Y-84462136D01*
X113708622Y-84475140D01*
X113581833Y-84477468D01*
X113513878Y-84476373D01*
X113448277Y-84474275D01*
X113390847Y-84471434D01*
X113347403Y-84468106D01*
X113333298Y-84466422D01*
X113194284Y-84437587D01*
X113052757Y-84392468D01*
X112915275Y-84333750D01*
X112788394Y-84264120D01*
X112710889Y-84211441D01*
X112583481Y-84103239D01*
X112465178Y-83976671D01*
X112358172Y-83834866D01*
X112264652Y-83680951D01*
X112186810Y-83518053D01*
X112142956Y-83400756D01*
X112092708Y-83217128D01*
X112059209Y-83022581D01*
X112042449Y-82821325D01*
X112042416Y-82617568D01*
X112059101Y-82415521D01*
X112092493Y-82219392D01*
X112142580Y-82033391D01*
X112146397Y-82021803D01*
X112209281Y-81859750D01*
X112286028Y-81711832D01*
X112379242Y-81573865D01*
X112491527Y-81441661D01*
X112535392Y-81396399D01*
X112671534Y-81272457D01*
X112811491Y-81169915D01*
X112957411Y-81087656D01*
X113111442Y-81024564D01*
X113275732Y-80979523D01*
X113371289Y-80962033D01*
X113530023Y-80946466D01*
X113688429Y-80949071D01*
G36*
X110436178Y-85291645D02*
G01*
X110442758Y-85299218D01*
X110447921Y-85308987D01*
X110451836Y-85323571D01*
X110454676Y-85345585D01*
X110456613Y-85377648D01*
X110457817Y-85422375D01*
X110458461Y-85482385D01*
X110458716Y-85560294D01*
X110458755Y-85635956D01*
X110458686Y-85729802D01*
X110458362Y-85803689D01*
X110457614Y-85860232D01*
X110456268Y-85902049D01*
X110454154Y-85931757D01*
X110451100Y-85951973D01*
X110446934Y-85965314D01*
X110441484Y-85974398D01*
X110436178Y-85980267D01*
X110403174Y-85999947D01*
X110368009Y-85998181D01*
X110336545Y-85976717D01*
X110329316Y-85968337D01*
X110323666Y-85958614D01*
X110319401Y-85944861D01*
X110316327Y-85924389D01*
X110314248Y-85894512D01*
X110312970Y-85852541D01*
X110312299Y-85795789D01*
X110312041Y-85721567D01*
X110312000Y-85637537D01*
X110312000Y-85324485D01*
X110339709Y-85296776D01*
X110373863Y-85273463D01*
X110406994Y-85272623D01*
X110436178Y-85291645D01*
G37*
X110436178Y-85291645D02*
X110442758Y-85299218D01*
X110447921Y-85308987D01*
X110451836Y-85323571D01*
X110454676Y-85345585D01*
X110456613Y-85377648D01*
X110457817Y-85422375D01*
X110458461Y-85482385D01*
X110458716Y-85560294D01*
X110458755Y-85635956D01*
X110458686Y-85729802D01*
X110458362Y-85803689D01*
X110457614Y-85860232D01*
X110456268Y-85902049D01*
X110454154Y-85931757D01*
X110451100Y-85951973D01*
X110446934Y-85965314D01*
X110441484Y-85974398D01*
X110436178Y-85980267D01*
X110403174Y-85999947D01*
X110368009Y-85998181D01*
X110336545Y-85976717D01*
X110329316Y-85968337D01*
X110323666Y-85958614D01*
X110319401Y-85944861D01*
X110316327Y-85924389D01*
X110314248Y-85894512D01*
X110312970Y-85852541D01*
X110312299Y-85795789D01*
X110312041Y-85721567D01*
X110312000Y-85637537D01*
X110312000Y-85324485D01*
X110339709Y-85296776D01*
X110373863Y-85273463D01*
X110406994Y-85272623D01*
X110436178Y-85291645D01*
G36*
X114642522Y-83470812D02*
G01*
X114658768Y-83399590D01*
X114684405Y-83328864D01*
X114708401Y-83276493D01*
X114767020Y-83181196D01*
X114845117Y-83093170D01*
X114940315Y-83014017D01*
X115050238Y-82945340D01*
X115172510Y-82888741D01*
X115304755Y-82845821D01*
X115369422Y-82830882D01*
X115505604Y-82808777D01*
X115654049Y-82794194D01*
X115805505Y-82787813D01*
X115932064Y-82789445D01*
X116093950Y-82796224D01*
X116086530Y-82737245D01*
X116067238Y-82638092D01*
X116036104Y-82557372D01*
X115992269Y-82494466D01*
X115934871Y-82448756D01*
X115863048Y-82419622D01*
X115775941Y-82406447D01*
X115672686Y-82408611D01*
X115634711Y-82412612D01*
X115493520Y-82437780D01*
X115356707Y-82478814D01*
X115262178Y-82516815D01*
X115217018Y-82536190D01*
X115178585Y-82551760D01*
X115152234Y-82561405D01*
X115144546Y-82563452D01*
X115134802Y-82554374D01*
X115118083Y-82525405D01*
X115094232Y-82476217D01*
X115063093Y-82406484D01*
X115024507Y-82315879D01*
X115017910Y-82300089D01*
X114987853Y-82227772D01*
X114960874Y-82162425D01*
X114938136Y-82106906D01*
X114920806Y-82064072D01*
X114910048Y-82036781D01*
X114906941Y-82027942D01*
X114916940Y-82023187D01*
X114943217Y-82017910D01*
X114971489Y-82014231D01*
X115001646Y-82009474D01*
X115049433Y-82000028D01*
X115110612Y-81986820D01*
X115180946Y-81970776D01*
X115256194Y-81952820D01*
X115284755Y-81945797D01*
X115389816Y-81920209D01*
X115477480Y-81900147D01*
X115552068Y-81884969D01*
X115617903Y-81874035D01*
X115679307Y-81866704D01*
X115740602Y-81862335D01*
X115806110Y-81860287D01*
X115864128Y-81859889D01*
X116033574Y-81866552D01*
X116185492Y-81886567D01*
X116320756Y-81920202D01*
X116440239Y-81967725D01*
X116544815Y-82029405D01*
X116622424Y-82092965D01*
X116691265Y-82167099D01*
X116745006Y-82246871D01*
X116787910Y-82339091D01*
X116803384Y-82382161D01*
X116816244Y-82421142D01*
X116827446Y-82457289D01*
X116837120Y-82492434D01*
X116845396Y-82528410D01*
X116852403Y-82567050D01*
X116858272Y-82610185D01*
X116863131Y-82659649D01*
X116867110Y-82717273D01*
X116870340Y-82784891D01*
X116872949Y-82864334D01*
X116875067Y-82957436D01*
X116876824Y-83066027D01*
X116878349Y-83191942D01*
X116879772Y-83337012D01*
X116881025Y-83479778D01*
X116882351Y-83635968D01*
X116883556Y-83771239D01*
X116884766Y-83887246D01*
X116886106Y-83985645D01*
X116887700Y-84068093D01*
X116889675Y-84136246D01*
X116892156Y-84191760D01*
X116895269Y-84236292D01*
X116899138Y-84271498D01*
X116903889Y-84299034D01*
X116909648Y-84320556D01*
X116916539Y-84337722D01*
X116924689Y-84352186D01*
X116934223Y-84365606D01*
X116945266Y-84379638D01*
X116949566Y-84385071D01*
X116965386Y-84407910D01*
X116972422Y-84423463D01*
X116972444Y-84423922D01*
X116961567Y-84426121D01*
X116930582Y-84428147D01*
X116881957Y-84429942D01*
X116818163Y-84431451D01*
X116741669Y-84432616D01*
X116654944Y-84433380D01*
X116560457Y-84433686D01*
X116549550Y-84433689D01*
X116126657Y-84433689D01*
X116123395Y-84337622D01*
X116120133Y-84241556D01*
X116058044Y-84292543D01*
X115960714Y-84360057D01*
X115850813Y-84414749D01*
X115764349Y-84444978D01*
X115695278Y-84459666D01*
X115611925Y-84469659D01*
X115522159Y-84474646D01*
X115433845Y-84474313D01*
X115354851Y-84468351D01*
X115318622Y-84462638D01*
X115178603Y-84424776D01*
X115052178Y-84369932D01*
X114940260Y-84298924D01*
X114843762Y-84212568D01*
X114763600Y-84111679D01*
X114700687Y-83997076D01*
X114656312Y-83870984D01*
X114643978Y-83814401D01*
X114636368Y-83752202D01*
X114632739Y-83677363D01*
X114632245Y-83643467D01*
X114632310Y-83640282D01*
X115392248Y-83640282D01*
X115401541Y-83715333D01*
X115429728Y-83779160D01*
X115478197Y-83834798D01*
X115483254Y-83839211D01*
X115531548Y-83874037D01*
X115583257Y-83896620D01*
X115643989Y-83908540D01*
X115719352Y-83911383D01*
X115737459Y-83910978D01*
X115791278Y-83908325D01*
X115831308Y-83902909D01*
X115866324Y-83892745D01*
X115905103Y-83875850D01*
X115915745Y-83870672D01*
X115976396Y-83834844D01*
X116023215Y-83792212D01*
X116035952Y-83776973D01*
X116080622Y-83720462D01*
X116080622Y-83524586D01*
X116080086Y-83445939D01*
X116078396Y-83387988D01*
X116075428Y-83348875D01*
X116071057Y-83326741D01*
X116066972Y-83320274D01*
X116051047Y-83317111D01*
X116017264Y-83314488D01*
X115970340Y-83312655D01*
X115914993Y-83311857D01*
X115906106Y-83311842D01*
X115785330Y-83317096D01*
X115682660Y-83333263D01*
X115596106Y-83360961D01*
X115523681Y-83400808D01*
X115468751Y-83447758D01*
X115424204Y-83505645D01*
X115399480Y-83568693D01*
X115392248Y-83640282D01*
X114632310Y-83640282D01*
X114634178Y-83549712D01*
X114642522Y-83470812D01*
G37*
X114642522Y-83470812D02*
X114658768Y-83399590D01*
X114684405Y-83328864D01*
X114708401Y-83276493D01*
X114767020Y-83181196D01*
X114845117Y-83093170D01*
X114940315Y-83014017D01*
X115050238Y-82945340D01*
X115172510Y-82888741D01*
X115304755Y-82845821D01*
X115369422Y-82830882D01*
X115505604Y-82808777D01*
X115654049Y-82794194D01*
X115805505Y-82787813D01*
X115932064Y-82789445D01*
X116093950Y-82796224D01*
X116086530Y-82737245D01*
X116067238Y-82638092D01*
X116036104Y-82557372D01*
X115992269Y-82494466D01*
X115934871Y-82448756D01*
X115863048Y-82419622D01*
X115775941Y-82406447D01*
X115672686Y-82408611D01*
X115634711Y-82412612D01*
X115493520Y-82437780D01*
X115356707Y-82478814D01*
X115262178Y-82516815D01*
X115217018Y-82536190D01*
X115178585Y-82551760D01*
X115152234Y-82561405D01*
X115144546Y-82563452D01*
X115134802Y-82554374D01*
X115118083Y-82525405D01*
X115094232Y-82476217D01*
X115063093Y-82406484D01*
X115024507Y-82315879D01*
X115017910Y-82300089D01*
X114987853Y-82227772D01*
X114960874Y-82162425D01*
X114938136Y-82106906D01*
X114920806Y-82064072D01*
X114910048Y-82036781D01*
X114906941Y-82027942D01*
X114916940Y-82023187D01*
X114943217Y-82017910D01*
X114971489Y-82014231D01*
X115001646Y-82009474D01*
X115049433Y-82000028D01*
X115110612Y-81986820D01*
X115180946Y-81970776D01*
X115256194Y-81952820D01*
X115284755Y-81945797D01*
X115389816Y-81920209D01*
X115477480Y-81900147D01*
X115552068Y-81884969D01*
X115617903Y-81874035D01*
X115679307Y-81866704D01*
X115740602Y-81862335D01*
X115806110Y-81860287D01*
X115864128Y-81859889D01*
X116033574Y-81866552D01*
X116185492Y-81886567D01*
X116320756Y-81920202D01*
X116440239Y-81967725D01*
X116544815Y-82029405D01*
X116622424Y-82092965D01*
X116691265Y-82167099D01*
X116745006Y-82246871D01*
X116787910Y-82339091D01*
X116803384Y-82382161D01*
X116816244Y-82421142D01*
X116827446Y-82457289D01*
X116837120Y-82492434D01*
X116845396Y-82528410D01*
X116852403Y-82567050D01*
X116858272Y-82610185D01*
X116863131Y-82659649D01*
X116867110Y-82717273D01*
X116870340Y-82784891D01*
X116872949Y-82864334D01*
X116875067Y-82957436D01*
X116876824Y-83066027D01*
X116878349Y-83191942D01*
X116879772Y-83337012D01*
X116881025Y-83479778D01*
X116882351Y-83635968D01*
X116883556Y-83771239D01*
X116884766Y-83887246D01*
X116886106Y-83985645D01*
X116887700Y-84068093D01*
X116889675Y-84136246D01*
X116892156Y-84191760D01*
X116895269Y-84236292D01*
X116899138Y-84271498D01*
X116903889Y-84299034D01*
X116909648Y-84320556D01*
X116916539Y-84337722D01*
X116924689Y-84352186D01*
X116934223Y-84365606D01*
X116945266Y-84379638D01*
X116949566Y-84385071D01*
X116965386Y-84407910D01*
X116972422Y-84423463D01*
X116972444Y-84423922D01*
X116961567Y-84426121D01*
X116930582Y-84428147D01*
X116881957Y-84429942D01*
X116818163Y-84431451D01*
X116741669Y-84432616D01*
X116654944Y-84433380D01*
X116560457Y-84433686D01*
X116549550Y-84433689D01*
X116126657Y-84433689D01*
X116123395Y-84337622D01*
X116120133Y-84241556D01*
X116058044Y-84292543D01*
X115960714Y-84360057D01*
X115850813Y-84414749D01*
X115764349Y-84444978D01*
X115695278Y-84459666D01*
X115611925Y-84469659D01*
X115522159Y-84474646D01*
X115433845Y-84474313D01*
X115354851Y-84468351D01*
X115318622Y-84462638D01*
X115178603Y-84424776D01*
X115052178Y-84369932D01*
X114940260Y-84298924D01*
X114843762Y-84212568D01*
X114763600Y-84111679D01*
X114700687Y-83997076D01*
X114656312Y-83870984D01*
X114643978Y-83814401D01*
X114636368Y-83752202D01*
X114632739Y-83677363D01*
X114632245Y-83643467D01*
X114632310Y-83640282D01*
X115392248Y-83640282D01*
X115401541Y-83715333D01*
X115429728Y-83779160D01*
X115478197Y-83834798D01*
X115483254Y-83839211D01*
X115531548Y-83874037D01*
X115583257Y-83896620D01*
X115643989Y-83908540D01*
X115719352Y-83911383D01*
X115737459Y-83910978D01*
X115791278Y-83908325D01*
X115831308Y-83902909D01*
X115866324Y-83892745D01*
X115905103Y-83875850D01*
X115915745Y-83870672D01*
X115976396Y-83834844D01*
X116023215Y-83792212D01*
X116035952Y-83776973D01*
X116080622Y-83720462D01*
X116080622Y-83524586D01*
X116080086Y-83445939D01*
X116078396Y-83387988D01*
X116075428Y-83348875D01*
X116071057Y-83326741D01*
X116066972Y-83320274D01*
X116051047Y-83317111D01*
X116017264Y-83314488D01*
X115970340Y-83312655D01*
X115914993Y-83311857D01*
X115906106Y-83311842D01*
X115785330Y-83317096D01*
X115682660Y-83333263D01*
X115596106Y-83360961D01*
X115523681Y-83400808D01*
X115468751Y-83447758D01*
X115424204Y-83505645D01*
X115399480Y-83568693D01*
X115392248Y-83640282D01*
X114632310Y-83640282D01*
X114634178Y-83549712D01*
X114642522Y-83470812D01*
G36*
X109668297Y-85270351D02*
G01*
X109743112Y-85275581D01*
X109812694Y-85283750D01*
X109872998Y-85294550D01*
X109919980Y-85307673D01*
X109949594Y-85322813D01*
X109954140Y-85327269D01*
X109969946Y-85361850D01*
X109965153Y-85397351D01*
X109940636Y-85427725D01*
X109939466Y-85428596D01*
X109925046Y-85437954D01*
X109909992Y-85442876D01*
X109888995Y-85443473D01*
X109856743Y-85439861D01*
X109807927Y-85432154D01*
X109804000Y-85431505D01*
X109731261Y-85422569D01*
X109652783Y-85418161D01*
X109574073Y-85418119D01*
X109500639Y-85422279D01*
X109437989Y-85430479D01*
X109391630Y-85442557D01*
X109388584Y-85443771D01*
X109354952Y-85462615D01*
X109343136Y-85481685D01*
X109352386Y-85500439D01*
X109381953Y-85518337D01*
X109431089Y-85534837D01*
X109499043Y-85549396D01*
X109544355Y-85556406D01*
X109638544Y-85569889D01*
X109713456Y-85582214D01*
X109772283Y-85594449D01*
X109818215Y-85607661D01*
X109854445Y-85622917D01*
X109884162Y-85641285D01*
X109910558Y-85663831D01*
X109931770Y-85685971D01*
X109956935Y-85716819D01*
X109969319Y-85743345D01*
X109973192Y-85776026D01*
X109973333Y-85787995D01*
X109970424Y-85827712D01*
X109958798Y-85857259D01*
X109938677Y-85883486D01*
X109897784Y-85923576D01*
X109852183Y-85954149D01*
X109798487Y-85976203D01*
X109733308Y-85990735D01*
X109653256Y-85998741D01*
X109554943Y-86001218D01*
X109538711Y-86001177D01*
X109473151Y-85999818D01*
X109408134Y-85996730D01*
X109350748Y-85992356D01*
X109308078Y-85987140D01*
X109304628Y-85986541D01*
X109262204Y-85976491D01*
X109226220Y-85963796D01*
X109205850Y-85952190D01*
X109186893Y-85921572D01*
X109185573Y-85885918D01*
X109201915Y-85854144D01*
X109205571Y-85850551D01*
X109220685Y-85839876D01*
X109239585Y-85835276D01*
X109268838Y-85836059D01*
X109304349Y-85840127D01*
X109344030Y-85843762D01*
X109399655Y-85846828D01*
X109464594Y-85849053D01*
X109532215Y-85850164D01*
X109550000Y-85850237D01*
X109617872Y-85849964D01*
X109667546Y-85848646D01*
X109703390Y-85845827D01*
X109729776Y-85841050D01*
X109751074Y-85833857D01*
X109763874Y-85827867D01*
X109792000Y-85811233D01*
X109809932Y-85796168D01*
X109812553Y-85791897D01*
X109807024Y-85774263D01*
X109780740Y-85757192D01*
X109735522Y-85741458D01*
X109673192Y-85727838D01*
X109654829Y-85724804D01*
X109558910Y-85709738D01*
X109482359Y-85697146D01*
X109422220Y-85686111D01*
X109375540Y-85675720D01*
X109339363Y-85665056D01*
X109310735Y-85653205D01*
X109286702Y-85639251D01*
X109264308Y-85622281D01*
X109240598Y-85601378D01*
X109232620Y-85594049D01*
X109204647Y-85566699D01*
X109189840Y-85545029D01*
X109184048Y-85520232D01*
X109183111Y-85488983D01*
X109193425Y-85427705D01*
X109224248Y-85375640D01*
X109275405Y-85332958D01*
X109346717Y-85299825D01*
X109397600Y-85284964D01*
X109452900Y-85275366D01*
X109519147Y-85269936D01*
X109592294Y-85268367D01*
X109668297Y-85270351D01*
G37*
X109668297Y-85270351D02*
X109743112Y-85275581D01*
X109812694Y-85283750D01*
X109872998Y-85294550D01*
X109919980Y-85307673D01*
X109949594Y-85322813D01*
X109954140Y-85327269D01*
X109969946Y-85361850D01*
X109965153Y-85397351D01*
X109940636Y-85427725D01*
X109939466Y-85428596D01*
X109925046Y-85437954D01*
X109909992Y-85442876D01*
X109888995Y-85443473D01*
X109856743Y-85439861D01*
X109807927Y-85432154D01*
X109804000Y-85431505D01*
X109731261Y-85422569D01*
X109652783Y-85418161D01*
X109574073Y-85418119D01*
X109500639Y-85422279D01*
X109437989Y-85430479D01*
X109391630Y-85442557D01*
X109388584Y-85443771D01*
X109354952Y-85462615D01*
X109343136Y-85481685D01*
X109352386Y-85500439D01*
X109381953Y-85518337D01*
X109431089Y-85534837D01*
X109499043Y-85549396D01*
X109544355Y-85556406D01*
X109638544Y-85569889D01*
X109713456Y-85582214D01*
X109772283Y-85594449D01*
X109818215Y-85607661D01*
X109854445Y-85622917D01*
X109884162Y-85641285D01*
X109910558Y-85663831D01*
X109931770Y-85685971D01*
X109956935Y-85716819D01*
X109969319Y-85743345D01*
X109973192Y-85776026D01*
X109973333Y-85787995D01*
X109970424Y-85827712D01*
X109958798Y-85857259D01*
X109938677Y-85883486D01*
X109897784Y-85923576D01*
X109852183Y-85954149D01*
X109798487Y-85976203D01*
X109733308Y-85990735D01*
X109653256Y-85998741D01*
X109554943Y-86001218D01*
X109538711Y-86001177D01*
X109473151Y-85999818D01*
X109408134Y-85996730D01*
X109350748Y-85992356D01*
X109308078Y-85987140D01*
X109304628Y-85986541D01*
X109262204Y-85976491D01*
X109226220Y-85963796D01*
X109205850Y-85952190D01*
X109186893Y-85921572D01*
X109185573Y-85885918D01*
X109201915Y-85854144D01*
X109205571Y-85850551D01*
X109220685Y-85839876D01*
X109239585Y-85835276D01*
X109268838Y-85836059D01*
X109304349Y-85840127D01*
X109344030Y-85843762D01*
X109399655Y-85846828D01*
X109464594Y-85849053D01*
X109532215Y-85850164D01*
X109550000Y-85850237D01*
X109617872Y-85849964D01*
X109667546Y-85848646D01*
X109703390Y-85845827D01*
X109729776Y-85841050D01*
X109751074Y-85833857D01*
X109763874Y-85827867D01*
X109792000Y-85811233D01*
X109809932Y-85796168D01*
X109812553Y-85791897D01*
X109807024Y-85774263D01*
X109780740Y-85757192D01*
X109735522Y-85741458D01*
X109673192Y-85727838D01*
X109654829Y-85724804D01*
X109558910Y-85709738D01*
X109482359Y-85697146D01*
X109422220Y-85686111D01*
X109375540Y-85675720D01*
X109339363Y-85665056D01*
X109310735Y-85653205D01*
X109286702Y-85639251D01*
X109264308Y-85622281D01*
X109240598Y-85601378D01*
X109232620Y-85594049D01*
X109204647Y-85566699D01*
X109189840Y-85545029D01*
X109184048Y-85520232D01*
X109183111Y-85488983D01*
X109193425Y-85427705D01*
X109224248Y-85375640D01*
X109275405Y-85332958D01*
X109346717Y-85299825D01*
X109397600Y-85284964D01*
X109452900Y-85275366D01*
X109519147Y-85269936D01*
X109592294Y-85268367D01*
X109668297Y-85270351D01*
D11*
%TO.C,K1*%
X130460000Y-80510000D02*
X130460000Y-84510000D01*
X132910000Y-90610000D02*
X130410000Y-90610000D01*
X136510000Y-75060000D02*
X136510000Y-94860000D01*
X128660000Y-87410000D02*
X131160000Y-92010000D01*
X128660000Y-79110000D02*
X128660000Y-78310000D01*
X126860000Y-84510000D02*
X130460000Y-80510000D01*
X128660000Y-85910000D02*
X128660000Y-87410000D01*
X134660000Y-82510000D02*
X130460000Y-82510000D01*
X128660000Y-79110000D02*
X125060000Y-79110000D01*
X127510000Y-75060000D02*
X120910000Y-75060000D01*
X120910000Y-94860000D02*
X120910000Y-75060000D01*
X125060000Y-85910000D02*
X125060000Y-79110000D01*
X124510000Y-90610000D02*
X126960000Y-90610000D01*
X126860000Y-82510000D02*
X122660000Y-82510000D01*
X122660000Y-80010000D02*
X122660000Y-82510000D01*
X130460000Y-84510000D02*
X126860000Y-84510000D01*
X134660000Y-82510000D02*
X134660000Y-80010000D01*
X136510000Y-94860000D02*
X120910000Y-94860000D01*
X136510000Y-75060000D02*
X129910000Y-75060000D01*
X128660000Y-85910000D02*
X125060000Y-85910000D01*
X126860000Y-80510000D02*
X130460000Y-80510000D01*
X126860000Y-84510000D02*
X126860000Y-80510000D01*
%TO.C,C4*%
X98355000Y-94321252D02*
X98355000Y-93798748D01*
X99825000Y-94321252D02*
X99825000Y-93798748D01*
%TO.C,SW1*%
X103560000Y-89320000D02*
X103560000Y-90820000D01*
X109310000Y-86820000D02*
X104810000Y-86820000D01*
X104810000Y-93320000D02*
X109310000Y-93320000D01*
X110560000Y-90820000D02*
X110560000Y-89320000D01*
%TO.C,D2*%
X73215000Y-87145000D02*
X75500000Y-87145000D01*
X73215000Y-85675000D02*
X73215000Y-87145000D01*
X75500000Y-85675000D02*
X73215000Y-85675000D01*
%TO.C,C17*%
X116385000Y-62708748D02*
X116385000Y-63231252D01*
X114915000Y-62708748D02*
X114915000Y-63231252D01*
%TO.C,C13*%
X108605000Y-76771252D02*
X108605000Y-76248748D01*
X107135000Y-76771252D02*
X107135000Y-76248748D01*
%TO.C,J4*%
X82447500Y-64680000D02*
X79847500Y-64680000D01*
X73247500Y-64680000D02*
X73247500Y-62780000D01*
X82647500Y-63830000D02*
X82647500Y-64880000D01*
X81597500Y-64880000D02*
X82647500Y-64880000D01*
X73247500Y-58780000D02*
X73247500Y-49980000D01*
X82447500Y-49980000D02*
X82447500Y-64680000D01*
X75947500Y-64680000D02*
X73247500Y-64680000D01*
X73247500Y-49980000D02*
X82447500Y-49980000D01*
%TO.C,U2*%
X91480000Y-63200000D02*
X91480000Y-59440000D01*
X91480000Y-59440000D02*
X90220000Y-59440000D01*
X84660000Y-65450000D02*
X84660000Y-59440000D01*
X84660000Y-59440000D02*
X85920000Y-59440000D01*
%TO.C,Y1*%
X78975000Y-99590000D02*
X78975000Y-93190000D01*
X73925000Y-99590000D02*
X73925000Y-93190000D01*
X78975000Y-93190000D02*
G75*
G03*
X73925000Y-93190000I-2525000J0D01*
G01*
X73925000Y-99590000D02*
G75*
G03*
X78975000Y-99590000I2525000J0D01*
G01*
%TO.C,C6*%
X80643750Y-82711250D02*
X80643750Y-81923750D01*
X78945563Y-83880000D02*
X73190000Y-83880000D01*
X78945563Y-77060000D02*
X73190000Y-77060000D01*
X73190000Y-77060000D02*
X73190000Y-79410000D01*
X81037500Y-82317500D02*
X80250000Y-82317500D01*
X80010000Y-78124437D02*
X80010000Y-79410000D01*
X80010000Y-82815563D02*
X80010000Y-81530000D01*
X80010000Y-82815563D02*
X78945563Y-83880000D01*
X73190000Y-83880000D02*
X73190000Y-81530000D01*
X80010000Y-78124437D02*
X78945563Y-77060000D01*
%TO.C,D3*%
X89037500Y-70835000D02*
X89037500Y-72305000D01*
X91322500Y-70835000D02*
X89037500Y-70835000D01*
X89037500Y-72305000D02*
X91322500Y-72305000D01*
%TO.C,C2*%
X73150000Y-68290000D02*
X73150000Y-70640000D01*
X80997500Y-73547500D02*
X80210000Y-73547500D01*
X79970000Y-69354437D02*
X78905563Y-68290000D01*
X73150000Y-75110000D02*
X73150000Y-72760000D01*
X79970000Y-74045563D02*
X78905563Y-75110000D01*
X78905563Y-75110000D02*
X73150000Y-75110000D01*
X79970000Y-74045563D02*
X79970000Y-72760000D01*
X80603750Y-73941250D02*
X80603750Y-73153750D01*
X79970000Y-69354437D02*
X79970000Y-70640000D01*
X78905563Y-68290000D02*
X73150000Y-68290000D01*
%TO.C,J7*%
X96550000Y-104230000D02*
X93950000Y-104230000D01*
X95280000Y-106830000D02*
X93950000Y-106830000D01*
X96550000Y-106830000D02*
X96550000Y-104230000D01*
X104230000Y-106830000D02*
X104230000Y-101630000D01*
X93950000Y-101630000D02*
X104230000Y-101630000D01*
X96550000Y-106830000D02*
X104230000Y-106830000D01*
X93950000Y-106830000D02*
X93950000Y-105500000D01*
X93950000Y-104230000D02*
X93950000Y-101630000D01*
%TO.C,C3*%
X99631250Y-51356250D02*
X98843750Y-51356250D01*
X93980000Y-53054437D02*
X93980000Y-58810000D01*
X95044437Y-51990000D02*
X96330000Y-51990000D01*
X99735563Y-51990000D02*
X100800000Y-53054437D01*
X93980000Y-58810000D02*
X96330000Y-58810000D01*
X99237500Y-50962500D02*
X99237500Y-51750000D01*
X100800000Y-58810000D02*
X98450000Y-58810000D01*
X95044437Y-51990000D02*
X93980000Y-53054437D01*
X100800000Y-53054437D02*
X100800000Y-58810000D01*
X99735563Y-51990000D02*
X98450000Y-51990000D01*
%TO.C,R7*%
X95457064Y-68995000D02*
X95002936Y-68995000D01*
X95457064Y-67525000D02*
X95002936Y-67525000D01*
%TO.C,C19*%
X119688748Y-68555000D02*
X120211252Y-68555000D01*
X119688748Y-67085000D02*
X120211252Y-67085000D01*
%TO.C,C7*%
X86081252Y-67525000D02*
X85558748Y-67525000D01*
X86081252Y-68995000D02*
X85558748Y-68995000D01*
%TO.C,J2*%
X106080000Y-104035000D02*
X108740000Y-104035000D01*
X106080000Y-104035000D02*
X106080000Y-106635000D01*
X106080000Y-101435000D02*
X107410000Y-101435000D01*
X106080000Y-102765000D02*
X106080000Y-101435000D01*
X108740000Y-104035000D02*
X108740000Y-106635000D01*
X106080000Y-106635000D02*
X108740000Y-106635000D01*
%TO.C,J3*%
X72115000Y-106830000D02*
X72115000Y-105500000D01*
X74715000Y-104170000D02*
X90015000Y-104170000D01*
X73445000Y-106830000D02*
X72115000Y-106830000D01*
X74715000Y-106830000D02*
X74715000Y-104170000D01*
X90015000Y-106830000D02*
X90015000Y-104170000D01*
X74715000Y-106830000D02*
X90015000Y-106830000D01*
%TO.C,R6*%
X90282936Y-67535000D02*
X90737064Y-67535000D01*
X90282936Y-69005000D02*
X90737064Y-69005000D01*
%TO.C,Y2*%
X105035000Y-78770000D02*
X105035000Y-72370000D01*
X99985000Y-78770000D02*
X99985000Y-72370000D01*
X105035000Y-72370000D02*
G75*
G03*
X99985000Y-72370000I-2525000J0D01*
G01*
X99985000Y-78770000D02*
G75*
G03*
X105035000Y-78770000I2525000J0D01*
G01*
%TO.C,R10*%
X133297064Y-69455000D02*
X132842936Y-69455000D01*
X133297064Y-70925000D02*
X132842936Y-70925000D01*
%TO.C,C10*%
X86201252Y-72365000D02*
X85678748Y-72365000D01*
X86201252Y-70895000D02*
X85678748Y-70895000D01*
%TO.C,R4*%
X80892936Y-86805000D02*
X81347064Y-86805000D01*
X80892936Y-85335000D02*
X81347064Y-85335000D01*
%TO.C,C1*%
X96435000Y-89968748D02*
X96435000Y-90491252D01*
X94965000Y-89968748D02*
X94965000Y-90491252D01*
%TO.C,J6*%
X107660000Y-49915000D02*
X115480000Y-49915000D01*
X107660000Y-54085000D02*
X107660000Y-57315000D01*
X113680000Y-59235000D02*
X113680000Y-59665000D01*
X107660000Y-49915000D02*
X107660000Y-51865000D01*
X115480000Y-49915000D02*
X115480000Y-51865000D01*
X114760000Y-59235000D02*
X113680000Y-59235000D01*
X109460000Y-59235000D02*
X108380000Y-59235000D01*
X115480000Y-54085000D02*
X115480000Y-57315000D01*
%TO.C,R2*%
X72905000Y-96315436D02*
X72905000Y-96769564D01*
X71435000Y-96315436D02*
X71435000Y-96769564D01*
%TO.C,C5*%
X96405000Y-94341252D02*
X96405000Y-93818748D01*
X94935000Y-94341252D02*
X94935000Y-93818748D01*
%TO.C,C12*%
X108585000Y-72308748D02*
X108585000Y-72831252D01*
X107115000Y-72308748D02*
X107115000Y-72831252D01*
%TO.C,J8*%
X127875000Y-101465000D02*
G75*
G03*
X127875000Y-101465000I-1680000J0D01*
G01*
X132810000Y-102149000D02*
G75*
G03*
X132810427Y-100781958I-1534993J684001D01*
G01*
X131275000Y-99785000D02*
G75*
G03*
X130591682Y-99930244I0J-1680000D01*
G01*
X130591000Y-103000000D02*
G75*
G03*
X131958042Y-103000427I684001J1534993D01*
G01*
X131959000Y-99930000D02*
G75*
G03*
X131246195Y-99784747I-683999J-1535001D01*
G01*
X129739999Y-100781000D02*
G75*
G03*
X129739573Y-102148042I1535001J-684000D01*
G01*
X134115000Y-96565000D02*
X133615000Y-96565000D01*
X133875000Y-98865000D02*
X123595000Y-98865000D01*
X125125000Y-102740000D02*
X125160000Y-102704000D01*
X134115000Y-97305000D02*
X134115000Y-96565000D01*
X133875000Y-103766000D02*
X123595000Y-103766000D01*
X127422000Y-100442000D02*
X127469000Y-100396000D01*
X123595000Y-106726000D02*
X123595000Y-96805000D01*
X133875000Y-106726000D02*
X133875000Y-96805000D01*
X124920000Y-102534000D02*
X124967000Y-102488000D01*
X133875000Y-96805000D02*
X123595000Y-96805000D01*
X133875000Y-106726000D02*
X123595000Y-106726000D01*
X127229000Y-100226000D02*
X127264000Y-100191000D01*
X133875000Y-97365000D02*
X123595000Y-97365000D01*
%TO.C,R5*%
X89955000Y-86337064D02*
X89955000Y-85882936D01*
X91425000Y-86337064D02*
X91425000Y-85882936D01*
D10*
%TO.C,U1*%
X84645000Y-90170000D02*
X83220000Y-90170000D01*
X84645000Y-89945000D02*
X84645000Y-90170000D01*
X84645000Y-89945000D02*
X84970000Y-89945000D01*
X91895000Y-97195000D02*
X91895000Y-96870000D01*
X91895000Y-89945000D02*
X91895000Y-90270000D01*
X91895000Y-97195000D02*
X91570000Y-97195000D01*
X84645000Y-97195000D02*
X84645000Y-96870000D01*
X91895000Y-89945000D02*
X91570000Y-89945000D01*
X84645000Y-97195000D02*
X84970000Y-97195000D01*
D11*
%TO.C,J1*%
X125730000Y-52660000D02*
X133410000Y-52660000D01*
X133410000Y-52660000D02*
X133410000Y-50000000D01*
X125730000Y-50000000D02*
X133410000Y-50000000D01*
X125730000Y-52660000D02*
X125730000Y-50000000D01*
X123130000Y-52660000D02*
X123130000Y-51330000D01*
X124460000Y-52660000D02*
X123130000Y-52660000D01*
%TO.C,C8*%
X80165000Y-93981252D02*
X80165000Y-93458748D01*
X81635000Y-93981252D02*
X81635000Y-93458748D01*
%TO.C,U4*%
X113040000Y-76110000D02*
X114990000Y-76110000D01*
X113040000Y-65990000D02*
X114990000Y-65990000D01*
X113040000Y-76110000D02*
X111090000Y-76110000D01*
X113040000Y-65990000D02*
X109590000Y-65990000D01*
%TO.C,C18*%
X119868748Y-61325000D02*
X120391252Y-61325000D01*
X119868748Y-59855000D02*
X120391252Y-59855000D01*
%TO.C,D5*%
X93825000Y-70825000D02*
X93825000Y-72295000D01*
X96110000Y-70825000D02*
X93825000Y-70825000D01*
X93825000Y-72295000D02*
X96110000Y-72295000D01*
%TO.C,J5*%
X113645000Y-106595000D02*
X113645000Y-103995000D01*
X111045000Y-101395000D02*
X118785000Y-101395000D01*
X111045000Y-106595000D02*
X111045000Y-105265000D01*
X112375000Y-106595000D02*
X111045000Y-106595000D01*
X111045000Y-103995000D02*
X111045000Y-101395000D01*
X118785000Y-106595000D02*
X118785000Y-101395000D01*
X113645000Y-106595000D02*
X118785000Y-106595000D01*
X113645000Y-103995000D02*
X111045000Y-103995000D01*
%TO.C,R8*%
X104762936Y-68485000D02*
X105217064Y-68485000D01*
X104762936Y-67015000D02*
X105217064Y-67015000D01*
%TO.C,R3*%
X86185000Y-86327064D02*
X86185000Y-85872936D01*
X84715000Y-86327064D02*
X84715000Y-85872936D01*
%TO.C,U3*%
X96390000Y-80170000D02*
X95130000Y-80170000D01*
X89570000Y-76410000D02*
X89570000Y-80170000D01*
X96390000Y-74160000D02*
X96390000Y-80170000D01*
X89570000Y-80170000D02*
X90830000Y-80170000D01*
%TO.C,D6*%
X129020000Y-71060000D02*
X129020000Y-69060000D01*
X129020000Y-71060000D02*
X125120000Y-71060000D01*
X129020000Y-69060000D02*
X125120000Y-69060000D01*
%TO.C,C20*%
X127231252Y-64975000D02*
X126708748Y-64975000D01*
X127231252Y-66445000D02*
X126708748Y-66445000D01*
%TO.C,R1*%
X88855000Y-86357064D02*
X88855000Y-85902936D01*
X87385000Y-86357064D02*
X87385000Y-85902936D01*
%TO.C,C9*%
X80245000Y-97638748D02*
X80245000Y-98161252D01*
X81715000Y-97638748D02*
X81715000Y-98161252D01*
%TO.C,C15*%
X86151252Y-80045000D02*
X85628748Y-80045000D01*
X86151252Y-78575000D02*
X85628748Y-78575000D01*
%TO.C,C11*%
X86221252Y-74585000D02*
X85698748Y-74585000D01*
X86221252Y-76055000D02*
X85698748Y-76055000D01*
%TO.C,C14*%
X108288748Y-62835000D02*
X108811252Y-62835000D01*
X108288748Y-64305000D02*
X108811252Y-64305000D01*
%TO.C,R9*%
X103922936Y-65415000D02*
X104377064Y-65415000D01*
X103922936Y-63945000D02*
X104377064Y-63945000D01*
%TO.C,C16*%
X120311252Y-64965000D02*
X119788748Y-64965000D01*
X120311252Y-63495000D02*
X119788748Y-63495000D01*
%TD*%
M02*
