%TF.GenerationSoftware,KiCad,Pcbnew,(6.0.5)*%
%TF.CreationDate,2022-09-16T11:29:29+05:30*%
%TF.ProjectId,wifi-module,77696669-2d6d-46f6-9475-6c652e6b6963,rev?*%
%TF.SameCoordinates,Original*%
%TF.FileFunction,Soldermask,Top*%
%TF.FilePolarity,Negative*%
%FSLAX46Y46*%
G04 Gerber Fmt 4.6, Leading zero omitted, Abs format (unit mm)*
G04 Created by KiCad (PCBNEW (6.0.5)) date 2022-09-16 11:29:29*
%MOMM*%
%LPD*%
G01*
G04 APERTURE LIST*
G04 Aperture macros list*
%AMRoundRect*
0 Rectangle with rounded corners*
0 $1 Rounding radius*
0 $2 $3 $4 $5 $6 $7 $8 $9 X,Y pos of 4 corners*
0 Add a 4 corners polygon primitive as box body*
4,1,4,$2,$3,$4,$5,$6,$7,$8,$9,$2,$3,0*
0 Add four circle primitives for the rounded corners*
1,1,$1+$1,$2,$3*
1,1,$1+$1,$4,$5*
1,1,$1+$1,$6,$7*
1,1,$1+$1,$8,$9*
0 Add four rect primitives between the rounded corners*
20,1,$1+$1,$2,$3,$4,$5,0*
20,1,$1+$1,$4,$5,$6,$7,0*
20,1,$1+$1,$6,$7,$8,$9,0*
20,1,$1+$1,$8,$9,$2,$3,0*%
G04 Aperture macros list end*
%ADD10R,1.800000X2.500000*%
%ADD11R,2.500000X1.800000*%
%ADD12R,1.050000X1.500000*%
%ADD13O,1.050000X1.500000*%
%ADD14C,3.000000*%
%ADD15C,2.500000*%
%ADD16RoundRect,0.250000X0.475000X-0.250000X0.475000X0.250000X-0.475000X0.250000X-0.475000X-0.250000X0*%
%ADD17C,2.000000*%
%ADD18RoundRect,0.218750X-0.218750X-0.256250X0.218750X-0.256250X0.218750X0.256250X-0.218750X0.256250X0*%
%ADD19RoundRect,0.250000X-0.475000X0.250000X-0.475000X-0.250000X0.475000X-0.250000X0.475000X0.250000X0*%
%ADD20R,3.500000X3.500000*%
%ADD21RoundRect,0.750000X-1.000000X0.750000X-1.000000X-0.750000X1.000000X-0.750000X1.000000X0.750000X0*%
%ADD22RoundRect,0.875000X-0.875000X0.875000X-0.875000X-0.875000X0.875000X-0.875000X0.875000X0.875000X0*%
%ADD23R,1.500000X2.000000*%
%ADD24R,3.800000X2.000000*%
%ADD25C,1.500000*%
%ADD26RoundRect,0.250000X1.500000X0.550000X-1.500000X0.550000X-1.500000X-0.550000X1.500000X-0.550000X0*%
%ADD27R,1.700000X1.700000*%
%ADD28O,1.700000X1.700000*%
%ADD29RoundRect,0.250000X-0.550000X1.500000X-0.550000X-1.500000X0.550000X-1.500000X0.550000X1.500000X0*%
%ADD30RoundRect,0.250000X0.262500X0.450000X-0.262500X0.450000X-0.262500X-0.450000X0.262500X-0.450000X0*%
%ADD31RoundRect,0.250000X-0.250000X-0.475000X0.250000X-0.475000X0.250000X0.475000X-0.250000X0.475000X0*%
%ADD32RoundRect,0.250000X0.250000X0.475000X-0.250000X0.475000X-0.250000X-0.475000X0.250000X-0.475000X0*%
%ADD33RoundRect,0.250000X-0.262500X-0.450000X0.262500X-0.450000X0.262500X0.450000X-0.262500X0.450000X0*%
%ADD34C,1.000000*%
%ADD35R,0.500000X2.000000*%
%ADD36R,2.000000X1.700000*%
%ADD37RoundRect,0.250000X-0.450000X0.262500X-0.450000X-0.262500X0.450000X-0.262500X0.450000X0.262500X0*%
%ADD38C,2.600000*%
%ADD39R,2.600000X2.600000*%
%ADD40RoundRect,0.250000X0.450000X-0.262500X0.450000X0.262500X-0.450000X0.262500X-0.450000X-0.262500X0*%
%ADD41R,1.600000X0.550000*%
%ADD42R,0.550000X1.600000*%
%ADD43RoundRect,0.150000X-0.825000X-0.150000X0.825000X-0.150000X0.825000X0.150000X-0.825000X0.150000X0*%
%ADD44R,0.900000X1.200000*%
G04 APERTURE END LIST*
D10*
%TO.C,D4*%
X103650000Y-61120000D03*
X103650000Y-57120000D03*
%TD*%
D11*
%TO.C,D1*%
X90200000Y-53650000D03*
X86200000Y-53650000D03*
%TD*%
D12*
%TO.C,Q1*%
X132040000Y-65650000D03*
D13*
X133310000Y-65650000D03*
X134580000Y-65650000D03*
%TD*%
D14*
%TO.C,K1*%
X128710000Y-76460000D03*
D15*
X122660000Y-78410000D03*
D14*
X122660000Y-90610000D03*
X134710000Y-90660000D03*
D15*
X134660000Y-78410000D03*
%TD*%
D16*
%TO.C,C4*%
X99090000Y-95010000D03*
X99090000Y-93110000D03*
%TD*%
D17*
%TO.C,SW1*%
X110310000Y-87820000D03*
X103810000Y-87820000D03*
X110310000Y-92320000D03*
X103810000Y-92320000D03*
%TD*%
D18*
%TO.C,D2*%
X73912500Y-86410000D03*
X75487500Y-86410000D03*
%TD*%
D19*
%TO.C,C17*%
X115650000Y-62020000D03*
X115650000Y-63920000D03*
%TD*%
D16*
%TO.C,C13*%
X107870000Y-77460000D03*
X107870000Y-75560000D03*
%TD*%
D20*
%TO.C,J4*%
X77847500Y-63780000D03*
D21*
X77847500Y-57780000D03*
D22*
X73147500Y-60780000D03*
%TD*%
D23*
%TO.C,U2*%
X85770000Y-64500000D03*
D24*
X88070000Y-58200000D03*
D23*
X88070000Y-64500000D03*
X90370000Y-64500000D03*
%TD*%
D25*
%TO.C,Y1*%
X76450000Y-98830000D03*
X76450000Y-93950000D03*
%TD*%
D26*
%TO.C,C6*%
X79400000Y-80470000D03*
X73800000Y-80470000D03*
%TD*%
D18*
%TO.C,D3*%
X89735000Y-71570000D03*
X91310000Y-71570000D03*
%TD*%
D26*
%TO.C,C2*%
X79360000Y-71700000D03*
X73760000Y-71700000D03*
%TD*%
D27*
%TO.C,J7*%
X95280000Y-105500000D03*
D28*
X95280000Y-102960000D03*
X97820000Y-105500000D03*
X97820000Y-102960000D03*
X100360000Y-105500000D03*
X100360000Y-102960000D03*
X102900000Y-105500000D03*
X102900000Y-102960000D03*
%TD*%
D29*
%TO.C,C3*%
X97390000Y-52600000D03*
X97390000Y-58200000D03*
%TD*%
D30*
%TO.C,R7*%
X96142500Y-68260000D03*
X94317500Y-68260000D03*
%TD*%
D31*
%TO.C,C19*%
X119000000Y-67820000D03*
X120900000Y-67820000D03*
%TD*%
D32*
%TO.C,C7*%
X86770000Y-68260000D03*
X84870000Y-68260000D03*
%TD*%
D27*
%TO.C,J2*%
X107410000Y-102765000D03*
D28*
X107410000Y-105305000D03*
%TD*%
D27*
%TO.C,J3*%
X73445000Y-105500000D03*
D28*
X75985000Y-105500000D03*
X78525000Y-105500000D03*
X81065000Y-105500000D03*
X83605000Y-105500000D03*
X86145000Y-105500000D03*
X88685000Y-105500000D03*
%TD*%
D33*
%TO.C,R6*%
X89597500Y-68270000D03*
X91422500Y-68270000D03*
%TD*%
D25*
%TO.C,Y2*%
X102510000Y-78010000D03*
X102510000Y-73130000D03*
%TD*%
D30*
%TO.C,R10*%
X133982500Y-70190000D03*
X132157500Y-70190000D03*
%TD*%
D32*
%TO.C,C10*%
X86890000Y-71630000D03*
X84990000Y-71630000D03*
%TD*%
D33*
%TO.C,R4*%
X80207500Y-86070000D03*
X82032500Y-86070000D03*
%TD*%
D19*
%TO.C,C1*%
X95700000Y-89280000D03*
X95700000Y-91180000D03*
%TD*%
D34*
%TO.C,J6*%
X113770000Y-55825000D03*
X109370000Y-55825000D03*
D35*
X113170000Y-58525000D03*
X112370000Y-58525000D03*
X111570000Y-58525000D03*
X110770000Y-58525000D03*
X109970000Y-58525000D03*
D36*
X107120000Y-52975000D03*
X107120000Y-58425000D03*
X116020000Y-52975000D03*
X116020000Y-58425000D03*
%TD*%
D37*
%TO.C,R2*%
X72170000Y-95630000D03*
X72170000Y-97455000D03*
%TD*%
D16*
%TO.C,C5*%
X95670000Y-95030000D03*
X95670000Y-93130000D03*
%TD*%
D19*
%TO.C,C12*%
X107850000Y-71620000D03*
X107850000Y-73520000D03*
%TD*%
D38*
%TO.C,J8*%
X126195000Y-101465000D03*
D39*
X131275000Y-101465000D03*
%TD*%
D40*
%TO.C,R5*%
X90690000Y-87022500D03*
X90690000Y-85197500D03*
%TD*%
D41*
%TO.C,U1*%
X84020000Y-90770000D03*
X84020000Y-91570000D03*
X84020000Y-92370000D03*
X84020000Y-93170000D03*
X84020000Y-93970000D03*
X84020000Y-94770000D03*
X84020000Y-95570000D03*
X84020000Y-96370000D03*
D42*
X85470000Y-97820000D03*
X86270000Y-97820000D03*
X87070000Y-97820000D03*
X87870000Y-97820000D03*
X88670000Y-97820000D03*
X89470000Y-97820000D03*
X90270000Y-97820000D03*
X91070000Y-97820000D03*
D41*
X92520000Y-96370000D03*
X92520000Y-95570000D03*
X92520000Y-94770000D03*
X92520000Y-93970000D03*
X92520000Y-93170000D03*
X92520000Y-92370000D03*
X92520000Y-91570000D03*
X92520000Y-90770000D03*
D42*
X91070000Y-89320000D03*
X90270000Y-89320000D03*
X89470000Y-89320000D03*
X88670000Y-89320000D03*
X87870000Y-89320000D03*
X87070000Y-89320000D03*
X86270000Y-89320000D03*
X85470000Y-89320000D03*
%TD*%
D27*
%TO.C,J1*%
X124460000Y-51330000D03*
D28*
X127000000Y-51330000D03*
X129540000Y-51330000D03*
X132080000Y-51330000D03*
%TD*%
D16*
%TO.C,C8*%
X80900000Y-94670000D03*
X80900000Y-92770000D03*
%TD*%
D43*
%TO.C,U4*%
X110565000Y-66605000D03*
X110565000Y-67875000D03*
X110565000Y-69145000D03*
X110565000Y-70415000D03*
X110565000Y-71685000D03*
X110565000Y-72955000D03*
X110565000Y-74225000D03*
X110565000Y-75495000D03*
X115515000Y-75495000D03*
X115515000Y-74225000D03*
X115515000Y-72955000D03*
X115515000Y-71685000D03*
X115515000Y-70415000D03*
X115515000Y-69145000D03*
X115515000Y-67875000D03*
X115515000Y-66605000D03*
%TD*%
D31*
%TO.C,C18*%
X119180000Y-60590000D03*
X121080000Y-60590000D03*
%TD*%
D18*
%TO.C,D5*%
X94522500Y-71560000D03*
X96097500Y-71560000D03*
%TD*%
D27*
%TO.C,J5*%
X112375000Y-105265000D03*
D28*
X112375000Y-102725000D03*
X114915000Y-105265000D03*
X114915000Y-102725000D03*
X117455000Y-105265000D03*
X117455000Y-102725000D03*
%TD*%
D33*
%TO.C,R8*%
X104077500Y-67750000D03*
X105902500Y-67750000D03*
%TD*%
D40*
%TO.C,R3*%
X85450000Y-87012500D03*
X85450000Y-85187500D03*
%TD*%
D23*
%TO.C,U3*%
X95280000Y-75110000D03*
X92980000Y-75110000D03*
D24*
X92980000Y-81410000D03*
D23*
X90680000Y-75110000D03*
%TD*%
D44*
%TO.C,D6*%
X128420000Y-70060000D03*
X125120000Y-70060000D03*
%TD*%
D32*
%TO.C,C20*%
X127920000Y-65710000D03*
X126020000Y-65710000D03*
%TD*%
D40*
%TO.C,R1*%
X88120000Y-87042500D03*
X88120000Y-85217500D03*
%TD*%
D19*
%TO.C,C9*%
X80980000Y-96950000D03*
X80980000Y-98850000D03*
%TD*%
D32*
%TO.C,C15*%
X86840000Y-79310000D03*
X84940000Y-79310000D03*
%TD*%
%TO.C,C11*%
X86910000Y-75320000D03*
X85010000Y-75320000D03*
%TD*%
D31*
%TO.C,C14*%
X107600000Y-63570000D03*
X109500000Y-63570000D03*
%TD*%
D33*
%TO.C,R9*%
X103237500Y-64680000D03*
X105062500Y-64680000D03*
%TD*%
D32*
%TO.C,C16*%
X121000000Y-64230000D03*
X119100000Y-64230000D03*
%TD*%
M02*
